<svg version="1.1" viewBox="0.0 0.0 960.0 540.0" fill="none" stroke="none" stroke-linecap="square" stroke-miterlimit="10" xmlns:xlink="http://www.w3.org/1999/xlink" xmlns="http://www.w3.org/2000/svg"><clipPath id="g33fb8c01b2_0_198.0"><path d="m0 0l960.0 0l0 540.0l-960.0 0l0 -540.0z" clip-rule="nonzero"/></clipPath><g clip-path="url(#g33fb8c01b2_0_198.0)"><path fill="#ffffff" d="m0 0l960.0 0l0 540.0l-960.0 0z" fill-rule="evenodd"/><path fill="#ffffff" d="m151.7454 79.09739l0 0c0 -7.5610886 6.129471 -13.690567 13.690567 -13.690567l88.24092 0c3.6309662 0 7.113205 1.4423981 9.680679 4.0098724c2.5674744 2.567482 4.0098877 6.0497284 4.0098877 9.680695l0 54.760597c0 7.561096 -6.129486 13.690567 -13.690567 13.690567l-88.24092 0c-7.561096 0 -13.690567 -6.129471 -13.690567 -13.690567z" fill-rule="evenodd"/><path stroke="#008ed2" stroke-width="2.0" stroke-linejoin="round" stroke-linecap="butt" d="m151.7454 79.09739l0 0c0 -7.5610886 6.129471 -13.690567 13.690567 -13.690567l88.24092 0c3.6309662 0 7.113205 1.4423981 9.680679 4.0098724c2.5674744 2.567482 4.0098877 6.0497284 4.0098877 9.680695l0 54.760597c0 7.561096 -6.129486 13.690567 -13.690567 13.690567l-88.24092 0c-7.561096 0 -13.690567 -6.129471 -13.690567 -13.690567z" fill-rule="evenodd"/><path fill="#002776" d="m197.40213 113.86144q0.140625 0.421875 0.171875 0.671875q0.03125 0.25 -0.09375 0.375q-0.125 0.125 -0.453125 0.15625q-0.328125 0.03125 -0.90625 0.03125q-0.59375 0 -0.9375 -0.03125q-0.328125 -0.015625 -0.5 -0.0625q-0.171875 -0.0625 -0.25 -0.15625q-0.0625 -0.09375 -0.109375 -0.234375l-1.03125 -3.046875l-5.6875 0l-0.96875 2.953125q-0.046875 0.171875 -0.125 0.28125q-0.0625 0.109375 -0.234375 0.1875q-0.171875 0.0625 -0.484375 0.078125q-0.3125 0.03125 -0.8125 0.03125q-0.546875 0 -0.859375 -0.046875q-0.296875 -0.03125 -0.421875 -0.15625q-0.109375 -0.140625 -0.078125 -0.390625q0.046875 -0.25 0.1875 -0.65625l4.671875 -13.453125q0.078125 -0.203125 0.171875 -0.328125q0.09375 -0.125 0.296875 -0.1875q0.203125 -0.0625 0.5625 -0.078125q0.359375 -0.015625 0.96875 -0.015625q0.6875 0 1.09375 0.015625q0.40625 0.015625 0.640625 0.078125q0.234375 0.0625 0.328125 0.203125q0.09375 0.125 0.171875 0.34375l4.6875 13.4375zm-6.96875 -11.109375l0 0l-2.15625 6.4375l4.3125 0l-2.15625 -6.4375zm19.433594 6.484375q0 1.390625 -0.296875 2.515625q-0.296875 1.125 -0.875 1.90625q-0.578125 0.78125 -1.4375 1.203125q-0.84375 0.421875 -1.953125 0.421875q-0.453125 0 -0.84375 -0.09375q-0.375 -0.078125 -0.734375 -0.25q-0.34375 -0.1875 -0.703125 -0.453125q-0.34375 -0.28125 -0.71875 -0.640625l0 4.921875q0 0.125 -0.078125 0.21875q-0.0625 0.09375 -0.234375 0.15625q-0.171875 0.0625 -0.453125 0.09375q-0.28125 0.03125 -0.71875 0.03125q-0.4375 0 -0.71875 -0.03125q-0.28125 -0.03125 -0.453125 -0.09375q-0.15625 -0.0625 -0.234375 -0.15625q-0.0625 -0.09375 -0.0625 -0.21875l0 -14.609375q0 -0.109375 0.046875 -0.1875q0.0625 -0.09375 0.203125 -0.15625q0.15625 -0.0625 0.390625 -0.09375q0.25 -0.03125 0.609375 -0.03125q0.34375 0 0.578125 0.03125q0.25 0.03125 0.390625 0.09375q0.15625 0.0625 0.203125 0.15625q0.0625 0.078125 0.0625 0.1875l0 1.234375q0.46875 -0.46875 0.90625 -0.828125q0.4375 -0.359375 0.890625 -0.59375q0.453125 -0.234375 0.9375 -0.34375q0.5 -0.125 1.046875 -0.125q1.140625 0 1.953125 0.453125q0.8125 0.4375 1.3125 1.234375q0.515625 0.78125 0.75 1.828125q0.234375 1.03125 0.234375 2.21875zm-3.0625 0.21875q0 -0.671875 -0.109375 -1.28125q-0.09375 -0.625 -0.34375 -1.09375q-0.234375 -0.484375 -0.625 -0.765625q-0.390625 -0.296875 -0.984375 -0.296875q-0.28125 0 -0.578125 0.09375q-0.28125 0.078125 -0.578125 0.28125q-0.296875 0.203125 -0.625 0.515625q-0.3125 0.3125 -0.65625 0.78125l0 3.453125q0.609375 0.78125 1.171875 1.21875q0.5625 0.421875 1.171875 0.421875q0.578125 0 0.984375 -0.296875q0.40625 -0.296875 0.65625 -0.765625q0.265625 -0.484375 0.390625 -1.078125q0.125 -0.59375 0.125 -1.1875zm15.941406 -0.21875q0 1.390625 -0.296875 2.515625q-0.296875 1.125 -0.875 1.90625q-0.578125 0.78125 -1.4375 1.203125q-0.84375 0.421875 -1.953125 0.421875q-0.453125 0 -0.84375 -0.09375q-0.375 -0.078125 -0.734375 -0.25q-0.34375 -0.1875 -0.703125 -0.453125q-0.34375 -0.28125 -0.71875 -0.640625l0 4.921875q0 0.125 -0.078125 0.21875q-0.0625 0.09375 -0.234375 0.15625q-0.171875 0.0625 -0.453125 0.09375q-0.28125 0.03125 -0.71875 0.03125q-0.4375 0 -0.71875 -0.03125q-0.28125 -0.03125 -0.453125 -0.09375q-0.15625 -0.0625 -0.234375 -0.15625q-0.0625 -0.09375 -0.0625 -0.21875l0 -14.609375q0 -0.109375 0.046875 -0.1875q0.0625 -0.09375 0.203125 -0.15625q0.15625 -0.0625 0.390625 -0.09375q0.25 -0.03125 0.609375 -0.03125q0.34375 0 0.578125 0.03125q0.25 0.03125 0.390625 0.09375q0.15625 0.0625 0.203125 0.15625q0.0625 0.078125 0.0625 0.1875l0 1.234375q0.46875 -0.46875 0.90625 -0.828125q0.4375 -0.359375 0.890625 -0.59375q0.453125 -0.234375 0.9375 -0.34375q0.5 -0.125 1.046875 -0.125q1.140625 0 1.953125 0.453125q0.8125 0.4375 1.3125 1.234375q0.515625 0.78125 0.75 1.828125q0.234375 1.03125 0.234375 2.21875zm-3.0625 0.21875q0 -0.671875 -0.109375 -1.28125q-0.09375 -0.625 -0.34375 -1.09375q-0.234375 -0.484375 -0.625 -0.765625q-0.390625 -0.296875 -0.984375 -0.296875q-0.28125 0 -0.578125 0.09375q-0.28125 0.078125 -0.578125 0.28125q-0.296875 0.203125 -0.625 0.515625q-0.3125 0.3125 -0.65625 0.78125l0 3.453125q0.609375 0.78125 1.171875 1.21875q0.5625 0.421875 1.171875 0.421875q0.578125 0 0.984375 -0.296875q0.40625 -0.296875 0.65625 -0.765625q0.265625 -0.484375 0.390625 -1.078125q0.125 -0.59375 0.125 -1.1875zm15.003906 4.390625q0 0.328125 -0.03125 0.5625q-0.03125 0.21875 -0.109375 0.359375q-0.0625 0.125 -0.140625 0.1875q-0.078125 0.0625 -0.1875 0.0625l-8.359375 0q-0.09375 0 -0.1875 -0.0625q-0.078125 -0.0625 -0.140625 -0.1875q-0.0625 -0.140625 -0.109375 -0.359375q-0.03125 -0.234375 -0.03125 -0.5625q0 -0.34375 0.03125 -0.5625q0.03125 -0.234375 0.09375 -0.375q0.0625 -0.140625 0.140625 -0.203125q0.09375 -0.0625 0.203125 -0.0625l2.8125 0l0 -9.875l-2.4375 1.34375q-0.265625 0.140625 -0.4375 0.171875q-0.171875 0.015625 -0.265625 -0.078125q-0.09375 -0.09375 -0.140625 -0.34375q-0.03125 -0.25 -0.03125 -0.6875q0 -0.28125 0.015625 -0.46875q0.015625 -0.1875 0.0625 -0.3125q0.046875 -0.125 0.125 -0.203125q0.078125 -0.09375 0.21875 -0.1875l3.265625 -2.109375q0.046875 -0.046875 0.140625 -0.0625q0.09375 -0.03125 0.234375 -0.046875q0.140625 -0.03125 0.359375 -0.03125q0.234375 0 0.59375 0q0.453125 0 0.71875 0.015625q0.28125 0.015625 0.421875 0.0625q0.140625 0.03125 0.1875 0.109375q0.046875 0.0625 0.046875 0.171875l0 12.53125l2.46875 0q0.109375 0 0.1875 0.0625q0.09375 0.0625 0.15625 0.203125q0.0625 0.140625 0.09375 0.375q0.03125 0.21875 0.03125 0.5625z" fill-rule="nonzero"/><path fill="#ffffff" d="m710.8898 79.09739l0 0c0 -7.5610886 6.1294556 -13.690567 13.690552 -13.690567l88.240906 0c3.6309814 0 7.11322 1.4423981 9.680725 4.0098724c2.5674438 2.567482 4.0098877 6.0497284 4.0098877 9.680695l0 54.760597c0 7.561096 -6.1295166 13.690567 -13.690613 13.690567l-88.240906 0c-7.561096 0 -13.690552 -6.129471 -13.690552 -13.690567z" fill-rule="evenodd"/><path stroke="#008ed2" stroke-width="2.0" stroke-linejoin="round" stroke-linecap="butt" d="m710.8898 79.09739l0 0c0 -7.5610886 6.1294556 -13.690567 13.690552 -13.690567l88.240906 0c3.6309814 0 7.11322 1.4423981 9.680725 4.0098724c2.5674438 2.567482 4.0098877 6.0497284 4.0098877 9.680695l0 54.760597c0 7.561096 -6.1295166 13.690567 -13.690613 13.690567l-88.240906 0c-7.561096 0 -13.690552 -6.129471 -13.690552 -13.690567z" fill-rule="evenodd"/><path fill="#002776" d="m756.5465 113.86144q0.140625 0.421875 0.171875 0.671875q0.03125 0.25 -0.09375 0.375q-0.125 0.125 -0.453125 0.15625q-0.328125 0.03125 -0.90625 0.03125q-0.59375 0 -0.9375 -0.03125q-0.328125 -0.015625 -0.5 -0.0625q-0.171875 -0.0625 -0.25 -0.15625q-0.0625 -0.09375 -0.109375 -0.234375l-1.03125 -3.046875l-5.6875 0l-0.96875 2.953125q-0.046875 0.171875 -0.125 0.28125q-0.0625 0.109375 -0.234375 0.1875q-0.171875 0.0625 -0.484375 0.078125q-0.3125 0.03125 -0.8125 0.03125q-0.546875 0 -0.859375 -0.046875q-0.296875 -0.03125 -0.421875 -0.15625q-0.109375 -0.140625 -0.078125 -0.390625q0.046875 -0.25 0.1875 -0.65625l4.671875 -13.453125q0.078125 -0.203125 0.171875 -0.328125q0.09375 -0.125 0.296875 -0.1875q0.203125 -0.0625 0.5625 -0.078125q0.359375 -0.015625 0.96875 -0.015625q0.6875 0 1.09375 0.015625q0.40625 0.015625 0.640625 0.078125q0.234375 0.0625 0.328125 0.203125q0.09375 0.125 0.171875 0.34375l4.6875 13.4375zm-6.96875 -11.109375l0 0l-2.15625 6.4375l4.3125 0l-2.15625 -6.4375zm19.433594 6.484375q0 1.390625 -0.296875 2.515625q-0.296875 1.125 -0.875 1.90625q-0.578125 0.78125 -1.4375 1.203125q-0.84375 0.421875 -1.953125 0.421875q-0.453125 0 -0.84375 -0.09375q-0.375 -0.078125 -0.734375 -0.25q-0.34375 -0.1875 -0.703125 -0.453125q-0.34375 -0.28125 -0.71875 -0.640625l0 4.921875q0 0.125 -0.078125 0.21875q-0.0625 0.09375 -0.234375 0.15625q-0.171875 0.0625 -0.453125 0.09375q-0.28125 0.03125 -0.71875 0.03125q-0.4375 0 -0.71875 -0.03125q-0.28125 -0.03125 -0.453125 -0.09375q-0.15625 -0.0625 -0.234375 -0.15625q-0.0625 -0.09375 -0.0625 -0.21875l0 -14.609375q0 -0.109375 0.046875 -0.1875q0.0625 -0.09375 0.203125 -0.15625q0.15625 -0.0625 0.390625 -0.09375q0.25 -0.03125 0.609375 -0.03125q0.34375 0 0.578125 0.03125q0.25 0.03125 0.390625 0.09375q0.15625 0.0625 0.203125 0.15625q0.0625 0.078125 0.0625 0.1875l0 1.234375q0.46875 -0.46875 0.90625 -0.828125q0.4375 -0.359375 0.890625 -0.59375q0.453125 -0.234375 0.9375 -0.34375q0.5 -0.125 1.046875 -0.125q1.140625 0 1.953125 0.453125q0.8125 0.4375 1.3125 1.234375q0.515625 0.78125 0.75 1.828125q0.234375 1.03125 0.234375 2.21875zm-3.0625 0.21875q0 -0.671875 -0.109375 -1.28125q-0.09375 -0.625 -0.34375 -1.09375q-0.234375 -0.484375 -0.625 -0.765625q-0.390625 -0.296875 -0.984375 -0.296875q-0.28125 0 -0.578125 0.09375q-0.28125 0.078125 -0.578125 0.28125q-0.296875 0.203125 -0.625 0.515625q-0.3125 0.3125 -0.65625 0.78125l0 3.453125q0.609375 0.78125 1.171875 1.21875q0.5625 0.421875 1.171875 0.421875q0.578125 0 0.984375 -0.296875q0.40625 -0.296875 0.65625 -0.765625q0.265625 -0.484375 0.390625 -1.078125q0.125 -0.59375 0.125 -1.1875zm15.941406 -0.21875q0 1.390625 -0.296875 2.515625q-0.296875 1.125 -0.875 1.90625q-0.578125 0.78125 -1.4375 1.203125q-0.84375 0.421875 -1.953125 0.421875q-0.453125 0 -0.84375 -0.09375q-0.375 -0.078125 -0.734375 -0.25q-0.34375 -0.1875 -0.703125 -0.453125q-0.34375 -0.28125 -0.71875 -0.640625l0 4.921875q0 0.125 -0.078125 0.21875q-0.0625 0.09375 -0.234375 0.15625q-0.171875 0.0625 -0.453125 0.09375q-0.28125 0.03125 -0.71875 0.03125q-0.4375 0 -0.71875 -0.03125q-0.28125 -0.03125 -0.453125 -0.09375q-0.15625 -0.0625 -0.234375 -0.15625q-0.0625 -0.09375 -0.0625 -0.21875l0 -14.609375q0 -0.109375 0.046875 -0.1875q0.0625 -0.09375 0.203125 -0.15625q0.15625 -0.0625 0.390625 -0.09375q0.25 -0.03125 0.609375 -0.03125q0.34375 0 0.578125 0.03125q0.25 0.03125 0.390625 0.09375q0.15625 0.0625 0.203125 0.15625q0.0625 0.078125 0.0625 0.1875l0 1.234375q0.46875 -0.46875 0.90625 -0.828125q0.4375 -0.359375 0.890625 -0.59375q0.453125 -0.234375 0.9375 -0.34375q0.5 -0.125 1.046875 -0.125q1.140625 0 1.953125 0.453125q0.8125 0.4375 1.3125 1.234375q0.515625 0.78125 0.75 1.828125q0.234375 1.03125 0.234375 2.21875zm-3.0625 0.21875q0 -0.671875 -0.109375 -1.28125q-0.09375 -0.625 -0.34375 -1.09375q-0.234375 -0.484375 -0.625 -0.765625q-0.390625 -0.296875 -0.984375 -0.296875q-0.28125 0 -0.578125 0.09375q-0.28125 0.078125 -0.578125 0.28125q-0.296875 0.203125 -0.625 0.515625q-0.3125 0.3125 -0.65625 0.78125l0 3.453125q0.609375 0.78125 1.171875 1.21875q0.5625 0.421875 1.171875 0.421875q0.578125 0 0.984375 -0.296875q0.40625 -0.296875 0.65625 -0.765625q0.265625 -0.484375 0.390625 -1.078125q0.125 -0.59375 0.125 -1.1875zm15.144531 4.3125q0 0.328125 -0.03125 0.578125q-0.03125 0.234375 -0.09375 0.390625q-0.046875 0.15625 -0.140625 0.21875q-0.09375 0.0625 -0.21875 0.0625l-8.71875 0q-0.25 0 -0.4375 -0.046875q-0.1875 -0.046875 -0.3125 -0.171875q-0.109375 -0.140625 -0.171875 -0.390625q-0.046875 -0.265625 -0.046875 -0.6875q0 -0.375 0.03125 -0.65625q0.046875 -0.28125 0.140625 -0.484375q0.09375 -0.21875 0.234375 -0.421875q0.140625 -0.21875 0.375 -0.453125l2.625 -2.8125q0.796875 -0.828125 1.265625 -1.5q0.484375 -0.671875 0.75 -1.21875q0.28125 -0.5625 0.375 -1.03125q0.09375 -0.46875 0.09375 -0.890625q0 -0.390625 -0.125 -0.734375q-0.109375 -0.34375 -0.359375 -0.59375q-0.234375 -0.265625 -0.609375 -0.40625q-0.359375 -0.15625 -0.84375 -0.15625q-0.6875 0 -1.234375 0.171875q-0.53125 0.171875 -0.9375 0.390625q-0.390625 0.21875 -0.671875 0.40625q-0.265625 0.171875 -0.421875 0.171875q-0.09375 0 -0.171875 -0.0625q-0.078125 -0.078125 -0.125 -0.234375q-0.046875 -0.171875 -0.078125 -0.4375q-0.03125 -0.28125 -0.03125 -0.671875q0 -0.28125 0.015625 -0.453125q0.015625 -0.1875 0.046875 -0.3125q0.046875 -0.140625 0.09375 -0.234375q0.0625 -0.109375 0.203125 -0.25q0.15625 -0.140625 0.546875 -0.359375q0.390625 -0.21875 0.96875 -0.421875q0.578125 -0.203125 1.265625 -0.34375q0.6875 -0.140625 1.4375 -0.140625q1.1875 0 2.0625 0.296875q0.890625 0.296875 1.46875 0.84375q0.59375 0.53125 0.875 1.265625q0.296875 0.71875 0.296875 1.5625q0 0.75 -0.140625 1.46875q-0.140625 0.703125 -0.59375 1.53125q-0.4375 0.828125 -1.25 1.828125q-0.796875 1.0 -2.140625 2.328125l-1.765625 1.8125l5.96875 0q0.125 0 0.21875 0.078125q0.109375 0.0625 0.171875 0.21875q0.078125 0.140625 0.109375 0.390625q0.03125 0.234375 0.03125 0.5625z" fill-rule="nonzero"/><path fill="#ffffff" d="m151.7454 374.51996l0 0c0 -7.561096 6.129471 -13.690552 13.690567 -13.690552l88.24092 0c3.6309662 0 7.113205 1.4423828 9.680679 4.009857c2.5674744 2.5674744 4.0098877 6.0497437 4.0098877 9.680695l0 54.76062c0 7.5610657 -6.129486 13.690552 -13.690567 13.690552l-88.24092 0c-7.561096 0 -13.690567 -6.129486 -13.690567 -13.690552z" fill-rule="evenodd"/><path stroke="#008ed2" stroke-width="2.0" stroke-linejoin="round" stroke-linecap="butt" d="m151.7454 374.51996l0 0c0 -7.561096 6.129471 -13.690552 13.690567 -13.690552l88.24092 0c3.6309662 0 7.113205 1.4423828 9.680679 4.009857c2.5674744 2.5674744 4.0098877 6.0497437 4.0098877 9.680695l0 54.76062c0 7.5610657 -6.129486 13.690552 -13.690567 13.690552l-88.24092 0c-7.561096 0 -13.690567 -6.129486 -13.690567 -13.690552z" fill-rule="evenodd"/><path fill="#002776" d="m198.99783 409.14337q0 0.359375 -0.03125 0.609375q-0.03125 0.234375 -0.09375 0.390625q-0.046875 0.15625 -0.140625 0.234375q-0.078125 0.0625 -0.203125 0.0625l-6.953125 0q-0.375 0 -0.640625 -0.21875q-0.265625 -0.234375 -0.265625 -0.75l0 -13.78125q0 -0.109375 0.078125 -0.203125q0.078125 -0.09375 0.25 -0.15625q0.171875 -0.0625 0.46875 -0.09375q0.296875 -0.03125 0.75 -0.03125q0.453125 0 0.75 0.03125q0.296875 0.03125 0.46875 0.09375q0.171875 0.0625 0.25 0.15625q0.078125 0.09375 0.078125 0.203125l0 12.203125l4.765625 0q0.125 0 0.203125 0.0625q0.09375 0.0625 0.140625 0.21875q0.0625 0.140625 0.09375 0.390625q0.03125 0.234375 0.03125 0.578125zm4.6015625 0.890625q0 0.125 -0.078125 0.21875q-0.0625 0.078125 -0.234375 0.140625q-0.171875 0.0625 -0.453125 0.09375q-0.28125 0.03125 -0.71875 0.03125q-0.4375 0 -0.71875 -0.03125q-0.28125 -0.03125 -0.453125 -0.09375q-0.15625 -0.0625 -0.234375 -0.140625q-0.0625 -0.09375 -0.0625 -0.21875l0 -10.421875q0 -0.125 0.0625 -0.203125q0.078125 -0.09375 0.234375 -0.15625q0.171875 -0.0625 0.453125 -0.09375q0.28125 -0.046875 0.71875 -0.046875q0.4375 0 0.71875 0.046875q0.28125 0.03125 0.453125 0.09375q0.171875 0.0625 0.234375 0.15625q0.078125 0.078125 0.078125 0.203125l0 10.421875zm0.21875 -13.984375q0 0.890625 -0.375 1.234375q-0.359375 0.328125 -1.34375 0.328125q-0.984375 0 -1.34375 -0.328125q-0.34375 -0.328125 -0.34375 -1.171875q0 -0.890625 0.359375 -1.234375q0.359375 -0.359375 1.359375 -0.359375q0.984375 0 1.328125 0.34375q0.359375 0.328125 0.359375 1.1875zm13.238281 8.625q0 1.390625 -0.3125 2.515625q-0.296875 1.109375 -0.875 1.890625q-0.5625 0.78125 -1.40625 1.203125q-0.84375 0.421875 -1.90625 0.421875q-0.53125 0 -0.984375 -0.09375q-0.453125 -0.09375 -0.875 -0.3125q-0.40625 -0.234375 -0.8125 -0.578125q-0.40625 -0.34375 -0.828125 -0.8125l0 1.125q0 0.140625 -0.0625 0.234375q-0.0625 0.078125 -0.21875 0.140625q-0.140625 0.0625 -0.390625 0.078125q-0.25 0.03125 -0.59375 0.03125q-0.359375 0 -0.609375 -0.03125q-0.234375 -0.015625 -0.390625 -0.078125q-0.140625 -0.0625 -0.203125 -0.140625q-0.046875 -0.09375 -0.046875 -0.234375l0 -15.40625q0 -0.109375 0.0625 -0.203125q0.078125 -0.09375 0.234375 -0.15625q0.171875 -0.078125 0.453125 -0.109375q0.28125 -0.03125 0.71875 -0.03125q0.4375 0 0.71875 0.03125q0.28125 0.03125 0.453125 0.109375q0.171875 0.0625 0.234375 0.15625q0.078125 0.09375 0.078125 0.203125l0 5.78125q0.390625 -0.40625 0.78125 -0.6875q0.40625 -0.28125 0.796875 -0.453125q0.40625 -0.1875 0.828125 -0.265625q0.421875 -0.078125 0.890625 -0.078125q1.15625 0 1.96875 0.46875q0.8125 0.453125 1.3125 1.234375q0.515625 0.78125 0.75 1.84375q0.234375 1.046875 0.234375 2.203125zm-3.0625 0.203125q0 -0.65625 -0.09375 -1.28125q-0.09375 -0.625 -0.34375 -1.09375q-0.25 -0.484375 -0.640625 -0.765625q-0.390625 -0.296875 -0.984375 -0.296875q-0.296875 0 -0.578125 0.078125q-0.28125 0.078125 -0.578125 0.28125q-0.296875 0.203125 -0.625 0.515625q-0.3125 0.3125 -0.65625 0.78125l0 3.46875q0.609375 0.796875 1.171875 1.21875q0.578125 0.421875 1.203125 0.421875q0.578125 0 0.96875 -0.296875q0.40625 -0.296875 0.65625 -0.765625q0.265625 -0.46875 0.375 -1.0625q0.125 -0.59375 0.125 -1.203125zm15.003906 4.390625q0 0.328125 -0.03125 0.5625q-0.03125 0.21875 -0.109375 0.359375q-0.0625 0.125 -0.140625 0.1875q-0.078125 0.0625 -0.1875 0.0625l-8.359375 0q-0.09375 0 -0.1875 -0.0625q-0.078125 -0.0625 -0.140625 -0.1875q-0.0625 -0.140625 -0.109375 -0.359375q-0.03125 -0.234375 -0.03125 -0.5625q0 -0.34375 0.03125 -0.5625q0.03125 -0.234375 0.09375 -0.375q0.0625 -0.140625 0.140625 -0.203125q0.09375 -0.0625 0.203125 -0.0625l2.8125 0l0 -9.875l-2.4375 1.34375q-0.265625 0.140625 -0.4375 0.171875q-0.171875 0.015625 -0.265625 -0.078125q-0.09375 -0.09375 -0.140625 -0.34375q-0.03125 -0.25 -0.03125 -0.6875q0 -0.28125 0.015625 -0.46875q0.015625 -0.1875 0.0625 -0.3125q0.046875 -0.125 0.125 -0.203125q0.078125 -0.09375 0.21875 -0.1875l3.265625 -2.109375q0.046875 -0.046875 0.140625 -0.0625q0.09375 -0.03125 0.234375 -0.046875q0.140625 -0.03125 0.359375 -0.03125q0.234375 0 0.59375 0q0.453125 0 0.71875 0.015625q0.28125 0.015625 0.421875 0.0625q0.140625 0.03125 0.1875 0.109375q0.046875 0.0625 0.046875 0.171875l0 12.53125l2.46875 0q0.109375 0 0.1875 0.0625q0.09375 0.0625 0.15625 0.203125q0.0625 0.140625 0.09375 0.375q0.03125 0.21875 0.03125 0.5625z" fill-rule="nonzero"/><path fill="#ffffff" d="m710.8898 374.51996l0 0c0 -7.561096 6.1294556 -13.690552 13.690552 -13.690552l88.240906 0c3.6309814 0 7.11322 1.4423828 9.680725 4.009857c2.5674438 2.5674744 4.0098877 6.0497437 4.0098877 9.680695l0 54.76062c0 7.5610657 -6.1295166 13.690552 -13.690613 13.690552l-88.240906 0c-7.561096 0 -13.690552 -6.129486 -13.690552 -13.690552z" fill-rule="evenodd"/><path stroke="#008ed2" stroke-width="2.0" stroke-linejoin="round" stroke-linecap="butt" d="m710.8898 374.51996l0 0c0 -7.561096 6.1294556 -13.690552 13.690552 -13.690552l88.240906 0c3.6309814 0 7.11322 1.4423828 9.680725 4.009857c2.5674438 2.5674744 4.0098877 6.0497437 4.0098877 9.680695l0 54.76062c0 7.5610657 -6.1295166 13.690552 -13.690613 13.690552l-88.240906 0c-7.561096 0 -13.690552 -6.129486 -13.690552 -13.690552z" fill-rule="evenodd"/><path fill="#002776" d="m758.1422 409.14337q0 0.359375 -0.03125 0.609375q-0.03125 0.234375 -0.09375 0.390625q-0.046875 0.15625 -0.140625 0.234375q-0.078125 0.0625 -0.203125 0.0625l-6.953125 0q-0.375 0 -0.640625 -0.21875q-0.265625 -0.234375 -0.265625 -0.75l0 -13.78125q0 -0.109375 0.078125 -0.203125q0.078125 -0.09375 0.25 -0.15625q0.171875 -0.0625 0.46875 -0.09375q0.296875 -0.03125 0.75 -0.03125q0.453125 0 0.75 0.03125q0.296875 0.03125 0.46875 0.09375q0.171875 0.0625 0.25 0.15625q0.078125 0.09375 0.078125 0.203125l0 12.203125l4.765625 0q0.125 0 0.203125 0.0625q0.09375 0.0625 0.140625 0.21875q0.0625 0.140625 0.09375 0.390625q0.03125 0.234375 0.03125 0.578125zm4.6015625 0.890625q0 0.125 -0.078125 0.21875q-0.0625 0.078125 -0.234375 0.140625q-0.171875 0.0625 -0.453125 0.09375q-0.28125 0.03125 -0.71875 0.03125q-0.4375 0 -0.71875 -0.03125q-0.28125 -0.03125 -0.453125 -0.09375q-0.15625 -0.0625 -0.234375 -0.140625q-0.0625 -0.09375 -0.0625 -0.21875l0 -10.421875q0 -0.125 0.0625 -0.203125q0.078125 -0.09375 0.234375 -0.15625q0.171875 -0.0625 0.453125 -0.09375q0.28125 -0.046875 0.71875 -0.046875q0.4375 0 0.71875 0.046875q0.28125 0.03125 0.453125 0.09375q0.171875 0.0625 0.234375 0.15625q0.078125 0.078125 0.078125 0.203125l0 10.421875zm0.21875 -13.984375q0 0.890625 -0.375 1.234375q-0.359375 0.328125 -1.34375 0.328125q-0.984375 0 -1.34375 -0.328125q-0.34375 -0.328125 -0.34375 -1.171875q0 -0.890625 0.359375 -1.234375q0.359375 -0.359375 1.359375 -0.359375q0.984375 0 1.328125 0.34375q0.359375 0.328125 0.359375 1.1875zm13.238281 8.625q0 1.390625 -0.3125 2.515625q-0.296875 1.109375 -0.875 1.890625q-0.5625 0.78125 -1.40625 1.203125q-0.84375 0.421875 -1.90625 0.421875q-0.53125 0 -0.984375 -0.09375q-0.453125 -0.09375 -0.875 -0.3125q-0.40625 -0.234375 -0.8125 -0.578125q-0.40625 -0.34375 -0.828125 -0.8125l0 1.125q0 0.140625 -0.0625 0.234375q-0.0625 0.078125 -0.21875 0.140625q-0.140625 0.0625 -0.390625 0.078125q-0.25 0.03125 -0.59375 0.03125q-0.359375 0 -0.609375 -0.03125q-0.234375 -0.015625 -0.390625 -0.078125q-0.140625 -0.0625 -0.203125 -0.140625q-0.046875 -0.09375 -0.046875 -0.234375l0 -15.40625q0 -0.109375 0.0625 -0.203125q0.078125 -0.09375 0.234375 -0.15625q0.171875 -0.078125 0.453125 -0.109375q0.28125 -0.03125 0.71875 -0.03125q0.4375 0 0.71875 0.03125q0.28125 0.03125 0.453125 0.109375q0.171875 0.0625 0.234375 0.15625q0.078125 0.09375 0.078125 0.203125l0 5.78125q0.390625 -0.40625 0.78125 -0.6875q0.40625 -0.28125 0.796875 -0.453125q0.40625 -0.1875 0.828125 -0.265625q0.421875 -0.078125 0.890625 -0.078125q1.15625 0 1.96875 0.46875q0.8125 0.453125 1.3125 1.234375q0.515625 0.78125 0.75 1.84375q0.234375 1.046875 0.234375 2.203125zm-3.0625 0.203125q0 -0.65625 -0.09375 -1.28125q-0.09375 -0.625 -0.34375 -1.09375q-0.25 -0.484375 -0.640625 -0.765625q-0.390625 -0.296875 -0.984375 -0.296875q-0.296875 0 -0.578125 0.078125q-0.28125 0.078125 -0.578125 0.28125q-0.296875 0.203125 -0.625 0.515625q-0.3125 0.3125 -0.65625 0.78125l0 3.46875q0.609375 0.796875 1.171875 1.21875q0.578125 0.421875 1.203125 0.421875q0.578125 0 0.96875 -0.296875q0.40625 -0.296875 0.65625 -0.765625q0.265625 -0.46875 0.375 -1.0625q0.125 -0.59375 0.125 -1.203125zm15.144531 4.3125q0 0.328125 -0.03125 0.578125q-0.03125 0.234375 -0.09375 0.390625q-0.046875 0.15625 -0.140625 0.21875q-0.09375 0.0625 -0.21875 0.0625l-8.71875 0q-0.25 0 -0.4375 -0.046875q-0.1875 -0.046875 -0.3125 -0.171875q-0.109375 -0.140625 -0.171875 -0.390625q-0.046875 -0.265625 -0.046875 -0.6875q0 -0.375 0.03125 -0.65625q0.046875 -0.28125 0.140625 -0.484375q0.09375 -0.21875 0.234375 -0.421875q0.140625 -0.21875 0.375 -0.453125l2.625 -2.8125q0.796875 -0.828125 1.265625 -1.5q0.484375 -0.671875 0.75 -1.21875q0.28125 -0.5625 0.375 -1.03125q0.09375 -0.46875 0.09375 -0.890625q0 -0.390625 -0.125 -0.734375q-0.109375 -0.34375 -0.359375 -0.59375q-0.234375 -0.265625 -0.609375 -0.40625q-0.359375 -0.15625 -0.84375 -0.15625q-0.6875 0 -1.234375 0.171875q-0.53125 0.171875 -0.9375 0.390625q-0.390625 0.21875 -0.671875 0.40625q-0.265625 0.171875 -0.421875 0.171875q-0.09375 0 -0.171875 -0.0625q-0.078125 -0.078125 -0.125 -0.234375q-0.046875 -0.171875 -0.078125 -0.4375q-0.03125 -0.28125 -0.03125 -0.671875q0 -0.28125 0.015625 -0.453125q0.015625 -0.1875 0.046875 -0.3125q0.046875 -0.140625 0.09375 -0.234375q0.0625 -0.109375 0.203125 -0.25q0.15625 -0.140625 0.546875 -0.359375q0.390625 -0.21875 0.96875 -0.421875q0.578125 -0.203125 1.265625 -0.34375q0.6875 -0.140625 1.4375 -0.140625q1.1875 0 2.0625 0.296875q0.890625 0.296875 1.46875 0.84375q0.59375 0.53125 0.875 1.265625q0.296875 0.71875 0.296875 1.5625q0 0.75 -0.140625 1.46875q-0.140625 0.703125 -0.59375 1.53125q-0.4375 0.828125 -1.25 1.828125q-0.796875 1.0 -2.140625 2.328125l-1.765625 1.8125l5.96875 0q0.125 0 0.21875 0.078125q0.109375 0.0625 0.171875 0.21875q0.078125 0.140625 0.109375 0.390625q0.03125 0.234375 0.03125 0.5625z" fill-rule="nonzero"/><path fill="#000000" fill-opacity="0.0" d="m210.87927 147.56955c0 53.314972 -0.330719 79.97244 -0.6614227 106.62993c-0.33070374 26.657486 -0.6614227 53.314957 -0.6614227 106.62993" fill-rule="evenodd"/><path stroke="#a20076" stroke-width="4.0" stroke-linejoin="round" stroke-linecap="butt" d="m210.87927 147.56955c0 53.314972 -0.330719 79.97244 -0.6614227 106.62993c-0.1653595 13.328751 -0.33070374 26.657486 -0.45472717 43.318405c-0.06201172 8.330475 -0.11367798 17.493958 -0.14985657 27.907043c-0.009033203 2.6032715 -0.017120361 5.2846375 -0.024124146 8.050598l-0.007003784 3.3538818" fill-rule="evenodd"/><path fill="#a20076" stroke="#a20076" stroke-width="4.0" stroke-linecap="butt" d="m202.9752 336.82233l6.587494 18.159454l6.626358 -18.145294z" fill-rule="evenodd"/><path fill="#000000" fill-opacity="0.0" d="m209.55643 147.54855c0 53.32071 139.78741 79.979996 279.5748 106.6414c139.78741 26.661423 279.57483 53.324966 279.57483 106.64995" fill-rule="evenodd"/><path stroke="#a20076" stroke-width="4.0" stroke-linejoin="round" stroke-linecap="butt" d="m209.55643 147.54855c0 53.32071 139.78741 79.979996 279.5748 106.6414c69.89374 13.330704 139.78741 26.661942 192.2077 43.326126c26.210144 8.332092 48.05188 17.497437 63.341187 27.912567c3.8222656 2.6037598 7.2350464 5.2856445 10.204163 8.052155c1.4845581 1.3832703 2.8581543 2.7876587 4.116699 4.2140503c0.15722656 0.17831421 0.31274414 0.3569336 0.46643066 0.5359192l0.2883911 0.3404541" fill-rule="evenodd"/><path fill="#a20076" stroke="#a20076" stroke-width="4.0" stroke-linecap="butt" d="m753.6255 341.03513l12.899841 14.378998l-0.6392212 -19.306793z" fill-rule="evenodd"/><path fill="#000000" fill-opacity="0.0" d="m769.1732 147.03412c0 53.448822 -0.11810303 80.17323 -0.23620605 106.897644c-0.11810303 26.724396 -0.23620605 53.448822 -0.23620605 106.897644" fill-rule="evenodd"/><path stroke="#a20076" stroke-width="4.0" stroke-linejoin="round" stroke-linecap="butt" d="m769.1732 147.03412c0 53.448822 -0.11810303 80.17323 -0.23620605 106.897644c-0.05908203 13.362213 -0.11810303 26.724396 -0.16241455 43.427155c-0.022155762 8.351379 -0.04058838 17.537903 -0.053466797 27.977112l-0.010437012 11.493378" fill-rule="evenodd"/><path fill="#a20076" stroke="#a20076" stroke-width="4.0" stroke-linecap="butt" d="m762.1038 336.82666l6.599365 18.15512l6.614502 -18.149628z" fill-rule="evenodd"/></g></svg>