<svg version="1.1" viewBox="0.0 0.0 960.0 540.0" fill="none" stroke="none" stroke-linecap="square" stroke-miterlimit="10" xmlns:xlink="http://www.w3.org/1999/xlink" xmlns="http://www.w3.org/2000/svg"><clipPath id="g33fb8c01b2_0_260.0"><path d="m0 0l960.0 0l0 540.0l-960.0 0l0 -540.0z" clip-rule="nonzero"/></clipPath><g clip-path="url(#g33fb8c01b2_0_260.0)"><path fill="#ffffff" d="m0 0l960.0 0l0 540.0l-960.0 0z" fill-rule="evenodd"/><path fill="#ffffff" d="m151.7454 79.09739l0 0c0 -7.5610886 6.129471 -13.690567 13.690567 -13.690567l88.24092 0c3.6309662 0 7.113205 1.4423981 9.680679 4.0098724c2.5674744 2.567482 4.0098877 6.0497284 4.0098877 9.680695l0 54.760597c0 7.561096 -6.129486 13.690567 -13.690567 13.690567l-88.24092 0c-7.561096 0 -13.690567 -6.129471 -13.690567 -13.690567z" fill-rule="evenodd"/><path stroke="#008ed2" stroke-width="2.0" stroke-linejoin="round" stroke-linecap="butt" d="m151.7454 79.09739l0 0c0 -7.5610886 6.129471 -13.690567 13.690567 -13.690567l88.24092 0c3.6309662 0 7.113205 1.4423981 9.680679 4.0098724c2.5674744 2.567482 4.0098877 6.0497284 4.0098877 9.680695l0 54.760597c0 7.561096 -6.129486 13.690567 -13.690567 13.690567l-88.24092 0c-7.561096 0 -13.690567 -6.129471 -13.690567 -13.690567z" fill-rule="evenodd"/><path fill="#002776" d="m197.40213 113.86144q0.140625 0.421875 0.171875 0.671875q0.03125 0.25 -0.09375 0.375q-0.125 0.125 -0.453125 0.15625q-0.328125 0.03125 -0.90625 0.03125q-0.59375 0 -0.9375 -0.03125q-0.328125 -0.015625 -0.5 -0.0625q-0.171875 -0.0625 -0.25 -0.15625q-0.0625 -0.09375 -0.109375 -0.234375l-1.03125 -3.046875l-5.6875 0l-0.96875 2.953125q-0.046875 0.171875 -0.125 0.28125q-0.0625 0.109375 -0.234375 0.1875q-0.171875 0.0625 -0.484375 0.078125q-0.3125 0.03125 -0.8125 0.03125q-0.546875 0 -0.859375 -0.046875q-0.296875 -0.03125 -0.421875 -0.15625q-0.109375 -0.140625 -0.078125 -0.390625q0.046875 -0.25 0.1875 -0.65625l4.671875 -13.453125q0.078125 -0.203125 0.171875 -0.328125q0.09375 -0.125 0.296875 -0.1875q0.203125 -0.0625 0.5625 -0.078125q0.359375 -0.015625 0.96875 -0.015625q0.6875 0 1.09375 0.015625q0.40625 0.015625 0.640625 0.078125q0.234375 0.0625 0.328125 0.203125q0.09375 0.125 0.171875 0.34375l4.6875 13.4375zm-6.96875 -11.109375l0 0l-2.15625 6.4375l4.3125 0l-2.15625 -6.4375zm19.433594 6.484375q0 1.390625 -0.296875 2.515625q-0.296875 1.125 -0.875 1.90625q-0.578125 0.78125 -1.4375 1.203125q-0.84375 0.421875 -1.953125 0.421875q-0.453125 0 -0.84375 -0.09375q-0.375 -0.078125 -0.734375 -0.25q-0.34375 -0.1875 -0.703125 -0.453125q-0.34375 -0.28125 -0.71875 -0.640625l0 4.921875q0 0.125 -0.078125 0.21875q-0.0625 0.09375 -0.234375 0.15625q-0.171875 0.0625 -0.453125 0.09375q-0.28125 0.03125 -0.71875 0.03125q-0.4375 0 -0.71875 -0.03125q-0.28125 -0.03125 -0.453125 -0.09375q-0.15625 -0.0625 -0.234375 -0.15625q-0.0625 -0.09375 -0.0625 -0.21875l0 -14.609375q0 -0.109375 0.046875 -0.1875q0.0625 -0.09375 0.203125 -0.15625q0.15625 -0.0625 0.390625 -0.09375q0.25 -0.03125 0.609375 -0.03125q0.34375 0 0.578125 0.03125q0.25 0.03125 0.390625 0.09375q0.15625 0.0625 0.203125 0.15625q0.0625 0.078125 0.0625 0.1875l0 1.234375q0.46875 -0.46875 0.90625 -0.828125q0.4375 -0.359375 0.890625 -0.59375q0.453125 -0.234375 0.9375 -0.34375q0.5 -0.125 1.046875 -0.125q1.140625 0 1.953125 0.453125q0.8125 0.4375 1.3125 1.234375q0.515625 0.78125 0.75 1.828125q0.234375 1.03125 0.234375 2.21875zm-3.0625 0.21875q0 -0.671875 -0.109375 -1.28125q-0.09375 -0.625 -0.34375 -1.09375q-0.234375 -0.484375 -0.625 -0.765625q-0.390625 -0.296875 -0.984375 -0.296875q-0.28125 0 -0.578125 0.09375q-0.28125 0.078125 -0.578125 0.28125q-0.296875 0.203125 -0.625 0.515625q-0.3125 0.3125 -0.65625 0.78125l0 3.453125q0.609375 0.78125 1.171875 1.21875q0.5625 0.421875 1.171875 0.421875q0.578125 0 0.984375 -0.296875q0.40625 -0.296875 0.65625 -0.765625q0.265625 -0.484375 0.390625 -1.078125q0.125 -0.59375 0.125 -1.1875zm15.941406 -0.21875q0 1.390625 -0.296875 2.515625q-0.296875 1.125 -0.875 1.90625q-0.578125 0.78125 -1.4375 1.203125q-0.84375 0.421875 -1.953125 0.421875q-0.453125 0 -0.84375 -0.09375q-0.375 -0.078125 -0.734375 -0.25q-0.34375 -0.1875 -0.703125 -0.453125q-0.34375 -0.28125 -0.71875 -0.640625l0 4.921875q0 0.125 -0.078125 0.21875q-0.0625 0.09375 -0.234375 0.15625q-0.171875 0.0625 -0.453125 0.09375q-0.28125 0.03125 -0.71875 0.03125q-0.4375 0 -0.71875 -0.03125q-0.28125 -0.03125 -0.453125 -0.09375q-0.15625 -0.0625 -0.234375 -0.15625q-0.0625 -0.09375 -0.0625 -0.21875l0 -14.609375q0 -0.109375 0.046875 -0.1875q0.0625 -0.09375 0.203125 -0.15625q0.15625 -0.0625 0.390625 -0.09375q0.25 -0.03125 0.609375 -0.03125q0.34375 0 0.578125 0.03125q0.25 0.03125 0.390625 0.09375q0.15625 0.0625 0.203125 0.15625q0.0625 0.078125 0.0625 0.1875l0 1.234375q0.46875 -0.46875 0.90625 -0.828125q0.4375 -0.359375 0.890625 -0.59375q0.453125 -0.234375 0.9375 -0.34375q0.5 -0.125 1.046875 -0.125q1.140625 0 1.953125 0.453125q0.8125 0.4375 1.3125 1.234375q0.515625 0.78125 0.75 1.828125q0.234375 1.03125 0.234375 2.21875zm-3.0625 0.21875q0 -0.671875 -0.109375 -1.28125q-0.09375 -0.625 -0.34375 -1.09375q-0.234375 -0.484375 -0.625 -0.765625q-0.390625 -0.296875 -0.984375 -0.296875q-0.28125 0 -0.578125 0.09375q-0.28125 0.078125 -0.578125 0.28125q-0.296875 0.203125 -0.625 0.515625q-0.3125 0.3125 -0.65625 0.78125l0 3.453125q0.609375 0.78125 1.171875 1.21875q0.5625 0.421875 1.171875 0.421875q0.578125 0 0.984375 -0.296875q0.40625 -0.296875 0.65625 -0.765625q0.265625 -0.484375 0.390625 -1.078125q0.125 -0.59375 0.125 -1.1875zm15.003906 4.390625q0 0.328125 -0.03125 0.5625q-0.03125 0.21875 -0.109375 0.359375q-0.0625 0.125 -0.140625 0.1875q-0.078125 0.0625 -0.1875 0.0625l-8.359375 0q-0.09375 0 -0.1875 -0.0625q-0.078125 -0.0625 -0.140625 -0.1875q-0.0625 -0.140625 -0.109375 -0.359375q-0.03125 -0.234375 -0.03125 -0.5625q0 -0.34375 0.03125 -0.5625q0.03125 -0.234375 0.09375 -0.375q0.0625 -0.140625 0.140625 -0.203125q0.09375 -0.0625 0.203125 -0.0625l2.8125 0l0 -9.875l-2.4375 1.34375q-0.265625 0.140625 -0.4375 0.171875q-0.171875 0.015625 -0.265625 -0.078125q-0.09375 -0.09375 -0.140625 -0.34375q-0.03125 -0.25 -0.03125 -0.6875q0 -0.28125 0.015625 -0.46875q0.015625 -0.1875 0.0625 -0.3125q0.046875 -0.125 0.125 -0.203125q0.078125 -0.09375 0.21875 -0.1875l3.265625 -2.109375q0.046875 -0.046875 0.140625 -0.0625q0.09375 -0.03125 0.234375 -0.046875q0.140625 -0.03125 0.359375 -0.03125q0.234375 0 0.59375 0q0.453125 0 0.71875 0.015625q0.28125 0.015625 0.421875 0.0625q0.140625 0.03125 0.1875 0.109375q0.046875 0.0625 0.046875 0.171875l0 12.53125l2.46875 0q0.109375 0 0.1875 0.0625q0.09375 0.0625 0.15625 0.203125q0.0625 0.140625 0.09375 0.375q0.03125 0.21875 0.03125 0.5625z" fill-rule="nonzero"/><path fill="#ffffff" d="m710.8898 79.09739l0 0c0 -7.5610886 6.1294556 -13.690567 13.690552 -13.690567l88.240906 0c3.6309814 0 7.11322 1.4423981 9.680725 4.0098724c2.5674438 2.567482 4.0098877 6.0497284 4.0098877 9.680695l0 54.760597c0 7.561096 -6.1295166 13.690567 -13.690613 13.690567l-88.240906 0c-7.561096 0 -13.690552 -6.129471 -13.690552 -13.690567z" fill-rule="evenodd"/><path stroke="#008ed2" stroke-width="2.0" stroke-linejoin="round" stroke-linecap="butt" d="m710.8898 79.09739l0 0c0 -7.5610886 6.1294556 -13.690567 13.690552 -13.690567l88.240906 0c3.6309814 0 7.11322 1.4423981 9.680725 4.0098724c2.5674438 2.567482 4.0098877 6.0497284 4.0098877 9.680695l0 54.760597c0 7.561096 -6.1295166 13.690567 -13.690613 13.690567l-88.240906 0c-7.561096 0 -13.690552 -6.129471 -13.690552 -13.690567z" fill-rule="evenodd"/><path fill="#002776" d="m756.5465 113.86144q0.140625 0.421875 0.171875 0.671875q0.03125 0.25 -0.09375 0.375q-0.125 0.125 -0.453125 0.15625q-0.328125 0.03125 -0.90625 0.03125q-0.59375 0 -0.9375 -0.03125q-0.328125 -0.015625 -0.5 -0.0625q-0.171875 -0.0625 -0.25 -0.15625q-0.0625 -0.09375 -0.109375 -0.234375l-1.03125 -3.046875l-5.6875 0l-0.96875 2.953125q-0.046875 0.171875 -0.125 0.28125q-0.0625 0.109375 -0.234375 0.1875q-0.171875 0.0625 -0.484375 0.078125q-0.3125 0.03125 -0.8125 0.03125q-0.546875 0 -0.859375 -0.046875q-0.296875 -0.03125 -0.421875 -0.15625q-0.109375 -0.140625 -0.078125 -0.390625q0.046875 -0.25 0.1875 -0.65625l4.671875 -13.453125q0.078125 -0.203125 0.171875 -0.328125q0.09375 -0.125 0.296875 -0.1875q0.203125 -0.0625 0.5625 -0.078125q0.359375 -0.015625 0.96875 -0.015625q0.6875 0 1.09375 0.015625q0.40625 0.015625 0.640625 0.078125q0.234375 0.0625 0.328125 0.203125q0.09375 0.125 0.171875 0.34375l4.6875 13.4375zm-6.96875 -11.109375l0 0l-2.15625 6.4375l4.3125 0l-2.15625 -6.4375zm19.433594 6.484375q0 1.390625 -0.296875 2.515625q-0.296875 1.125 -0.875 1.90625q-0.578125 0.78125 -1.4375 1.203125q-0.84375 0.421875 -1.953125 0.421875q-0.453125 0 -0.84375 -0.09375q-0.375 -0.078125 -0.734375 -0.25q-0.34375 -0.1875 -0.703125 -0.453125q-0.34375 -0.28125 -0.71875 -0.640625l0 4.921875q0 0.125 -0.078125 0.21875q-0.0625 0.09375 -0.234375 0.15625q-0.171875 0.0625 -0.453125 0.09375q-0.28125 0.03125 -0.71875 0.03125q-0.4375 0 -0.71875 -0.03125q-0.28125 -0.03125 -0.453125 -0.09375q-0.15625 -0.0625 -0.234375 -0.15625q-0.0625 -0.09375 -0.0625 -0.21875l0 -14.609375q0 -0.109375 0.046875 -0.1875q0.0625 -0.09375 0.203125 -0.15625q0.15625 -0.0625 0.390625 -0.09375q0.25 -0.03125 0.609375 -0.03125q0.34375 0 0.578125 0.03125q0.25 0.03125 0.390625 0.09375q0.15625 0.0625 0.203125 0.15625q0.0625 0.078125 0.0625 0.1875l0 1.234375q0.46875 -0.46875 0.90625 -0.828125q0.4375 -0.359375 0.890625 -0.59375q0.453125 -0.234375 0.9375 -0.34375q0.5 -0.125 1.046875 -0.125q1.140625 0 1.953125 0.453125q0.8125 0.4375 1.3125 1.234375q0.515625 0.78125 0.75 1.828125q0.234375 1.03125 0.234375 2.21875zm-3.0625 0.21875q0 -0.671875 -0.109375 -1.28125q-0.09375 -0.625 -0.34375 -1.09375q-0.234375 -0.484375 -0.625 -0.765625q-0.390625 -0.296875 -0.984375 -0.296875q-0.28125 0 -0.578125 0.09375q-0.28125 0.078125 -0.578125 0.28125q-0.296875 0.203125 -0.625 0.515625q-0.3125 0.3125 -0.65625 0.78125l0 3.453125q0.609375 0.78125 1.171875 1.21875q0.5625 0.421875 1.171875 0.421875q0.578125 0 0.984375 -0.296875q0.40625 -0.296875 0.65625 -0.765625q0.265625 -0.484375 0.390625 -1.078125q0.125 -0.59375 0.125 -1.1875zm15.941406 -0.21875q0 1.390625 -0.296875 2.515625q-0.296875 1.125 -0.875 1.90625q-0.578125 0.78125 -1.4375 1.203125q-0.84375 0.421875 -1.953125 0.421875q-0.453125 0 -0.84375 -0.09375q-0.375 -0.078125 -0.734375 -0.25q-0.34375 -0.1875 -0.703125 -0.453125q-0.34375 -0.28125 -0.71875 -0.640625l0 4.921875q0 0.125 -0.078125 0.21875q-0.0625 0.09375 -0.234375 0.15625q-0.171875 0.0625 -0.453125 0.09375q-0.28125 0.03125 -0.71875 0.03125q-0.4375 0 -0.71875 -0.03125q-0.28125 -0.03125 -0.453125 -0.09375q-0.15625 -0.0625 -0.234375 -0.15625q-0.0625 -0.09375 -0.0625 -0.21875l0 -14.609375q0 -0.109375 0.046875 -0.1875q0.0625 -0.09375 0.203125 -0.15625q0.15625 -0.0625 0.390625 -0.09375q0.25 -0.03125 0.609375 -0.03125q0.34375 0 0.578125 0.03125q0.25 0.03125 0.390625 0.09375q0.15625 0.0625 0.203125 0.15625q0.0625 0.078125 0.0625 0.1875l0 1.234375q0.46875 -0.46875 0.90625 -0.828125q0.4375 -0.359375 0.890625 -0.59375q0.453125 -0.234375 0.9375 -0.34375q0.5 -0.125 1.046875 -0.125q1.140625 0 1.953125 0.453125q0.8125 0.4375 1.3125 1.234375q0.515625 0.78125 0.75 1.828125q0.234375 1.03125 0.234375 2.21875zm-3.0625 0.21875q0 -0.671875 -0.109375 -1.28125q-0.09375 -0.625 -0.34375 -1.09375q-0.234375 -0.484375 -0.625 -0.765625q-0.390625 -0.296875 -0.984375 -0.296875q-0.28125 0 -0.578125 0.09375q-0.28125 0.078125 -0.578125 0.28125q-0.296875 0.203125 -0.625 0.515625q-0.3125 0.3125 -0.65625 0.78125l0 3.453125q0.609375 0.78125 1.171875 1.21875q0.5625 0.421875 1.171875 0.421875q0.578125 0 0.984375 -0.296875q0.40625 -0.296875 0.65625 -0.765625q0.265625 -0.484375 0.390625 -1.078125q0.125 -0.59375 0.125 -1.1875zm15.144531 4.3125q0 0.328125 -0.03125 0.578125q-0.03125 0.234375 -0.09375 0.390625q-0.046875 0.15625 -0.140625 0.21875q-0.09375 0.0625 -0.21875 0.0625l-8.71875 0q-0.25 0 -0.4375 -0.046875q-0.1875 -0.046875 -0.3125 -0.171875q-0.109375 -0.140625 -0.171875 -0.390625q-0.046875 -0.265625 -0.046875 -0.6875q0 -0.375 0.03125 -0.65625q0.046875 -0.28125 0.140625 -0.484375q0.09375 -0.21875 0.234375 -0.421875q0.140625 -0.21875 0.375 -0.453125l2.625 -2.8125q0.796875 -0.828125 1.265625 -1.5q0.484375 -0.671875 0.75 -1.21875q0.28125 -0.5625 0.375 -1.03125q0.09375 -0.46875 0.09375 -0.890625q0 -0.390625 -0.125 -0.734375q-0.109375 -0.34375 -0.359375 -0.59375q-0.234375 -0.265625 -0.609375 -0.40625q-0.359375 -0.15625 -0.84375 -0.15625q-0.6875 0 -1.234375 0.171875q-0.53125 0.171875 -0.9375 0.390625q-0.390625 0.21875 -0.671875 0.40625q-0.265625 0.171875 -0.421875 0.171875q-0.09375 0 -0.171875 -0.0625q-0.078125 -0.078125 -0.125 -0.234375q-0.046875 -0.171875 -0.078125 -0.4375q-0.03125 -0.28125 -0.03125 -0.671875q0 -0.28125 0.015625 -0.453125q0.015625 -0.1875 0.046875 -0.3125q0.046875 -0.140625 0.09375 -0.234375q0.0625 -0.109375 0.203125 -0.25q0.15625 -0.140625 0.546875 -0.359375q0.390625 -0.21875 0.96875 -0.421875q0.578125 -0.203125 1.265625 -0.34375q0.6875 -0.140625 1.4375 -0.140625q1.1875 0 2.0625 0.296875q0.890625 0.296875 1.46875 0.84375q0.59375 0.53125 0.875 1.265625q0.296875 0.71875 0.296875 1.5625q0 0.75 -0.140625 1.46875q-0.140625 0.703125 -0.59375 1.53125q-0.4375 0.828125 -1.25 1.828125q-0.796875 1.0 -2.140625 2.328125l-1.765625 1.8125l5.96875 0q0.125 0 0.21875 0.078125q0.109375 0.0625 0.171875 0.21875q0.078125 0.140625 0.109375 0.390625q0.03125 0.234375 0.03125 0.5625z" fill-rule="nonzero"/><path fill="#ffffff" d="m151.7454 374.51996l0 0c0 -7.561096 6.129471 -13.690552 13.690567 -13.690552l88.24092 0c3.6309662 0 7.113205 1.4423828 9.680679 4.009857c2.5674744 2.5674744 4.0098877 6.0497437 4.0098877 9.680695l0 54.76062c0 7.5610657 -6.129486 13.690552 -13.690567 13.690552l-88.24092 0c-7.561096 0 -13.690567 -6.129486 -13.690567 -13.690552z" fill-rule="evenodd"/><path stroke="#008ed2" stroke-width="2.0" stroke-linejoin="round" stroke-linecap="butt" d="m151.7454 374.51996l0 0c0 -7.561096 6.129471 -13.690552 13.690567 -13.690552l88.24092 0c3.6309662 0 7.113205 1.4423828 9.680679 4.009857c2.5674744 2.5674744 4.0098877 6.0497437 4.0098877 9.680695l0 54.76062c0 7.5610657 -6.129486 13.690552 -13.690567 13.690552l-88.24092 0c-7.561096 0 -13.690567 -6.129486 -13.690567 -13.690552z" fill-rule="evenodd"/><path fill="#002776" d="m198.99783 409.14337q0 0.359375 -0.03125 0.609375q-0.03125 0.234375 -0.09375 0.390625q-0.046875 0.15625 -0.140625 0.234375q-0.078125 0.0625 -0.203125 0.0625l-6.953125 0q-0.375 0 -0.640625 -0.21875q-0.265625 -0.234375 -0.265625 -0.75l0 -13.78125q0 -0.109375 0.078125 -0.203125q0.078125 -0.09375 0.25 -0.15625q0.171875 -0.0625 0.46875 -0.09375q0.296875 -0.03125 0.75 -0.03125q0.453125 0 0.75 0.03125q0.296875 0.03125 0.46875 0.09375q0.171875 0.0625 0.25 0.15625q0.078125 0.09375 0.078125 0.203125l0 12.203125l4.765625 0q0.125 0 0.203125 0.0625q0.09375 0.0625 0.140625 0.21875q0.0625 0.140625 0.09375 0.390625q0.03125 0.234375 0.03125 0.578125zm4.6015625 0.890625q0 0.125 -0.078125 0.21875q-0.0625 0.078125 -0.234375 0.140625q-0.171875 0.0625 -0.453125 0.09375q-0.28125 0.03125 -0.71875 0.03125q-0.4375 0 -0.71875 -0.03125q-0.28125 -0.03125 -0.453125 -0.09375q-0.15625 -0.0625 -0.234375 -0.140625q-0.0625 -0.09375 -0.0625 -0.21875l0 -10.421875q0 -0.125 0.0625 -0.203125q0.078125 -0.09375 0.234375 -0.15625q0.171875 -0.0625 0.453125 -0.09375q0.28125 -0.046875 0.71875 -0.046875q0.4375 0 0.71875 0.046875q0.28125 0.03125 0.453125 0.09375q0.171875 0.0625 0.234375 0.15625q0.078125 0.078125 0.078125 0.203125l0 10.421875zm0.21875 -13.984375q0 0.890625 -0.375 1.234375q-0.359375 0.328125 -1.34375 0.328125q-0.984375 0 -1.34375 -0.328125q-0.34375 -0.328125 -0.34375 -1.171875q0 -0.890625 0.359375 -1.234375q0.359375 -0.359375 1.359375 -0.359375q0.984375 0 1.328125 0.34375q0.359375 0.328125 0.359375 1.1875zm13.238281 8.625q0 1.390625 -0.3125 2.515625q-0.296875 1.109375 -0.875 1.890625q-0.5625 0.78125 -1.40625 1.203125q-0.84375 0.421875 -1.90625 0.421875q-0.53125 0 -0.984375 -0.09375q-0.453125 -0.09375 -0.875 -0.3125q-0.40625 -0.234375 -0.8125 -0.578125q-0.40625 -0.34375 -0.828125 -0.8125l0 1.125q0 0.140625 -0.0625 0.234375q-0.0625 0.078125 -0.21875 0.140625q-0.140625 0.0625 -0.390625 0.078125q-0.25 0.03125 -0.59375 0.03125q-0.359375 0 -0.609375 -0.03125q-0.234375 -0.015625 -0.390625 -0.078125q-0.140625 -0.0625 -0.203125 -0.140625q-0.046875 -0.09375 -0.046875 -0.234375l0 -15.40625q0 -0.109375 0.0625 -0.203125q0.078125 -0.09375 0.234375 -0.15625q0.171875 -0.078125 0.453125 -0.109375q0.28125 -0.03125 0.71875 -0.03125q0.4375 0 0.71875 0.03125q0.28125 0.03125 0.453125 0.109375q0.171875 0.0625 0.234375 0.15625q0.078125 0.09375 0.078125 0.203125l0 5.78125q0.390625 -0.40625 0.78125 -0.6875q0.40625 -0.28125 0.796875 -0.453125q0.40625 -0.1875 0.828125 -0.265625q0.421875 -0.078125 0.890625 -0.078125q1.15625 0 1.96875 0.46875q0.8125 0.453125 1.3125 1.234375q0.515625 0.78125 0.75 1.84375q0.234375 1.046875 0.234375 2.203125zm-3.0625 0.203125q0 -0.65625 -0.09375 -1.28125q-0.09375 -0.625 -0.34375 -1.09375q-0.25 -0.484375 -0.640625 -0.765625q-0.390625 -0.296875 -0.984375 -0.296875q-0.296875 0 -0.578125 0.078125q-0.28125 0.078125 -0.578125 0.28125q-0.296875 0.203125 -0.625 0.515625q-0.3125 0.3125 -0.65625 0.78125l0 3.46875q0.609375 0.796875 1.171875 1.21875q0.578125 0.421875 1.203125 0.421875q0.578125 0 0.96875 -0.296875q0.40625 -0.296875 0.65625 -0.765625q0.265625 -0.46875 0.375 -1.0625q0.125 -0.59375 0.125 -1.203125zm15.003906 4.390625q0 0.328125 -0.03125 0.5625q-0.03125 0.21875 -0.109375 0.359375q-0.0625 0.125 -0.140625 0.1875q-0.078125 0.0625 -0.1875 0.0625l-8.359375 0q-0.09375 0 -0.1875 -0.0625q-0.078125 -0.0625 -0.140625 -0.1875q-0.0625 -0.140625 -0.109375 -0.359375q-0.03125 -0.234375 -0.03125 -0.5625q0 -0.34375 0.03125 -0.5625q0.03125 -0.234375 0.09375 -0.375q0.0625 -0.140625 0.140625 -0.203125q0.09375 -0.0625 0.203125 -0.0625l2.8125 0l0 -9.875l-2.4375 1.34375q-0.265625 0.140625 -0.4375 0.171875q-0.171875 0.015625 -0.265625 -0.078125q-0.09375 -0.09375 -0.140625 -0.34375q-0.03125 -0.25 -0.03125 -0.6875q0 -0.28125 0.015625 -0.46875q0.015625 -0.1875 0.0625 -0.3125q0.046875 -0.125 0.125 -0.203125q0.078125 -0.09375 0.21875 -0.1875l3.265625 -2.109375q0.046875 -0.046875 0.140625 -0.0625q0.09375 -0.03125 0.234375 -0.046875q0.140625 -0.03125 0.359375 -0.03125q0.234375 0 0.59375 0q0.453125 0 0.71875 0.015625q0.28125 0.015625 0.421875 0.0625q0.140625 0.03125 0.1875 0.109375q0.046875 0.0625 0.046875 0.171875l0 12.53125l2.46875 0q0.109375 0 0.1875 0.0625q0.09375 0.0625 0.15625 0.203125q0.0625 0.140625 0.09375 0.375q0.03125 0.21875 0.03125 0.5625z" fill-rule="nonzero"/><path fill="#ffffff" d="m710.8898 374.51996l0 0c0 -7.561096 6.1294556 -13.690552 13.690552 -13.690552l88.240906 0c3.6309814 0 7.11322 1.4423828 9.680725 4.009857c2.5674438 2.5674744 4.0098877 6.0497437 4.0098877 9.680695l0 54.76062c0 7.5610657 -6.1295166 13.690552 -13.690613 13.690552l-88.240906 0c-7.561096 0 -13.690552 -6.129486 -13.690552 -13.690552z" fill-rule="evenodd"/><path stroke="#008ed2" stroke-width="2.0" stroke-linejoin="round" stroke-linecap="butt" d="m710.8898 374.51996l0 0c0 -7.561096 6.1294556 -13.690552 13.690552 -13.690552l88.240906 0c3.6309814 0 7.11322 1.4423828 9.680725 4.009857c2.5674438 2.5674744 4.0098877 6.0497437 4.0098877 9.680695l0 54.76062c0 7.5610657 -6.1295166 13.690552 -13.690613 13.690552l-88.240906 0c-7.561096 0 -13.690552 -6.129486 -13.690552 -13.690552z" fill-rule="evenodd"/><path fill="#002776" d="m758.1422 409.14337q0 0.359375 -0.03125 0.609375q-0.03125 0.234375 -0.09375 0.390625q-0.046875 0.15625 -0.140625 0.234375q-0.078125 0.0625 -0.203125 0.0625l-6.953125 0q-0.375 0 -0.640625 -0.21875q-0.265625 -0.234375 -0.265625 -0.75l0 -13.78125q0 -0.109375 0.078125 -0.203125q0.078125 -0.09375 0.25 -0.15625q0.171875 -0.0625 0.46875 -0.09375q0.296875 -0.03125 0.75 -0.03125q0.453125 0 0.75 0.03125q0.296875 0.03125 0.46875 0.09375q0.171875 0.0625 0.25 0.15625q0.078125 0.09375 0.078125 0.203125l0 12.203125l4.765625 0q0.125 0 0.203125 0.0625q0.09375 0.0625 0.140625 0.21875q0.0625 0.140625 0.09375 0.390625q0.03125 0.234375 0.03125 0.578125zm4.6015625 0.890625q0 0.125 -0.078125 0.21875q-0.0625 0.078125 -0.234375 0.140625q-0.171875 0.0625 -0.453125 0.09375q-0.28125 0.03125 -0.71875 0.03125q-0.4375 0 -0.71875 -0.03125q-0.28125 -0.03125 -0.453125 -0.09375q-0.15625 -0.0625 -0.234375 -0.140625q-0.0625 -0.09375 -0.0625 -0.21875l0 -10.421875q0 -0.125 0.0625 -0.203125q0.078125 -0.09375 0.234375 -0.15625q0.171875 -0.0625 0.453125 -0.09375q0.28125 -0.046875 0.71875 -0.046875q0.4375 0 0.71875 0.046875q0.28125 0.03125 0.453125 0.09375q0.171875 0.0625 0.234375 0.15625q0.078125 0.078125 0.078125 0.203125l0 10.421875zm0.21875 -13.984375q0 0.890625 -0.375 1.234375q-0.359375 0.328125 -1.34375 0.328125q-0.984375 0 -1.34375 -0.328125q-0.34375 -0.328125 -0.34375 -1.171875q0 -0.890625 0.359375 -1.234375q0.359375 -0.359375 1.359375 -0.359375q0.984375 0 1.328125 0.34375q0.359375 0.328125 0.359375 1.1875zm13.238281 8.625q0 1.390625 -0.3125 2.515625q-0.296875 1.109375 -0.875 1.890625q-0.5625 0.78125 -1.40625 1.203125q-0.84375 0.421875 -1.90625 0.421875q-0.53125 0 -0.984375 -0.09375q-0.453125 -0.09375 -0.875 -0.3125q-0.40625 -0.234375 -0.8125 -0.578125q-0.40625 -0.34375 -0.828125 -0.8125l0 1.125q0 0.140625 -0.0625 0.234375q-0.0625 0.078125 -0.21875 0.140625q-0.140625 0.0625 -0.390625 0.078125q-0.25 0.03125 -0.59375 0.03125q-0.359375 0 -0.609375 -0.03125q-0.234375 -0.015625 -0.390625 -0.078125q-0.140625 -0.0625 -0.203125 -0.140625q-0.046875 -0.09375 -0.046875 -0.234375l0 -15.40625q0 -0.109375 0.0625 -0.203125q0.078125 -0.09375 0.234375 -0.15625q0.171875 -0.078125 0.453125 -0.109375q0.28125 -0.03125 0.71875 -0.03125q0.4375 0 0.71875 0.03125q0.28125 0.03125 0.453125 0.109375q0.171875 0.0625 0.234375 0.15625q0.078125 0.09375 0.078125 0.203125l0 5.78125q0.390625 -0.40625 0.78125 -0.6875q0.40625 -0.28125 0.796875 -0.453125q0.40625 -0.1875 0.828125 -0.265625q0.421875 -0.078125 0.890625 -0.078125q1.15625 0 1.96875 0.46875q0.8125 0.453125 1.3125 1.234375q0.515625 0.78125 0.75 1.84375q0.234375 1.046875 0.234375 2.203125zm-3.0625 0.203125q0 -0.65625 -0.09375 -1.28125q-0.09375 -0.625 -0.34375 -1.09375q-0.25 -0.484375 -0.640625 -0.765625q-0.390625 -0.296875 -0.984375 -0.296875q-0.296875 0 -0.578125 0.078125q-0.28125 0.078125 -0.578125 0.28125q-0.296875 0.203125 -0.625 0.515625q-0.3125 0.3125 -0.65625 0.78125l0 3.46875q0.609375 0.796875 1.171875 1.21875q0.578125 0.421875 1.203125 0.421875q0.578125 0 0.96875 -0.296875q0.40625 -0.296875 0.65625 -0.765625q0.265625 -0.46875 0.375 -1.0625q0.125 -0.59375 0.125 -1.203125zm15.144531 4.3125q0 0.328125 -0.03125 0.578125q-0.03125 0.234375 -0.09375 0.390625q-0.046875 0.15625 -0.140625 0.21875q-0.09375 0.0625 -0.21875 0.0625l-8.71875 0q-0.25 0 -0.4375 -0.046875q-0.1875 -0.046875 -0.3125 -0.171875q-0.109375 -0.140625 -0.171875 -0.390625q-0.046875 -0.265625 -0.046875 -0.6875q0 -0.375 0.03125 -0.65625q0.046875 -0.28125 0.140625 -0.484375q0.09375 -0.21875 0.234375 -0.421875q0.140625 -0.21875 0.375 -0.453125l2.625 -2.8125q0.796875 -0.828125 1.265625 -1.5q0.484375 -0.671875 0.75 -1.21875q0.28125 -0.5625 0.375 -1.03125q0.09375 -0.46875 0.09375 -0.890625q0 -0.390625 -0.125 -0.734375q-0.109375 -0.34375 -0.359375 -0.59375q-0.234375 -0.265625 -0.609375 -0.40625q-0.359375 -0.15625 -0.84375 -0.15625q-0.6875 0 -1.234375 0.171875q-0.53125 0.171875 -0.9375 0.390625q-0.390625 0.21875 -0.671875 0.40625q-0.265625 0.171875 -0.421875 0.171875q-0.09375 0 -0.171875 -0.0625q-0.078125 -0.078125 -0.125 -0.234375q-0.046875 -0.171875 -0.078125 -0.4375q-0.03125 -0.28125 -0.03125 -0.671875q0 -0.28125 0.015625 -0.453125q0.015625 -0.1875 0.046875 -0.3125q0.046875 -0.140625 0.09375 -0.234375q0.0625 -0.109375 0.203125 -0.25q0.15625 -0.140625 0.546875 -0.359375q0.390625 -0.21875 0.96875 -0.421875q0.578125 -0.203125 1.265625 -0.34375q0.6875 -0.140625 1.4375 -0.140625q1.1875 0 2.0625 0.296875q0.890625 0.296875 1.46875 0.84375q0.59375 0.53125 0.875 1.265625q0.296875 0.71875 0.296875 1.5625q0 0.75 -0.140625 1.46875q-0.140625 0.703125 -0.59375 1.53125q-0.4375 0.828125 -1.25 1.828125q-0.796875 1.0 -2.140625 2.328125l-1.765625 1.8125l5.96875 0q0.125 0 0.21875 0.078125q0.109375 0.0625 0.171875 0.21875q0.078125 0.140625 0.109375 0.390625q0.03125 0.234375 0.03125 0.5625z" fill-rule="nonzero"/><path fill="#000000" fill-opacity="0.0" d="m210.87665 147.55643c0 53.551178 48.204712 80.32678 96.409454 107.10237c48.204712 26.775589 96.409424 53.551163 96.409424 107.10237" fill-rule="evenodd"/><path stroke="#a20076" stroke-width="4.0" stroke-linejoin="round" stroke-linecap="butt" d="m210.87665 147.55643c0 53.551178 48.204712 80.32678 96.409454 107.10237c24.102356 13.387802 48.204712 26.775589 66.281494 43.51033c9.038361 8.367371 16.570374 17.571472 21.842743 28.0307c1.3180847 2.6148071 2.4949646 5.3080444 3.5188904 8.086273c0.2559204 0.69454956 0.50234985 1.3944397 0.73898315 2.099701c0.118377686 0.35266113 0.23425293 0.7066345 0.34768677 1.0620117c0.056732178 0.17767334 0.11282349 0.3557129 0.16830444 0.5340576l0.011016846 0.03591919" fill-rule="evenodd"/><path fill="#a20076" stroke="#a20076" stroke-width="4.0" stroke-linecap="butt" d="m393.65894 338.98138l9.183746 16.99469l3.8888245 -18.921875z" fill-rule="evenodd"/><path fill="#000000" fill-opacity="0.0" d="m209.55643 147.54855c0 53.47818 92.09448 80.2162 184.18896 106.95636c92.09451 26.740143 184.189 53.482452 184.189 106.964905" fill-rule="evenodd"/><path stroke="#a20076" stroke-width="4.0" stroke-linejoin="round" stroke-linecap="butt" d="m209.55643 147.54855c0 53.47818 92.09448 80.21619 184.18896 106.956345c46.04727 13.370071 92.09451 26.740707 126.62991 43.454086c17.267761 8.35672 31.657532 17.549103 41.730347 27.994995c2.5181885 2.6114807 4.7666016 5.3012695 6.7227173 8.075958c0.9780884 1.3873291 1.8830566 2.7958984 2.7120972 4.226471l0.039916992 0.0697937" fill-rule="evenodd"/><path fill="#a20076" stroke="#a20076" stroke-width="4.0" stroke-linecap="butt" d="m565.2092 340.07538l11.177002 15.755493l1.5653687 -19.253845z" fill-rule="evenodd"/><path fill="#ffffff" d="m344.72046 377.25775l23.12442 -16.428345l92.49765 0l0 82.14172l-115.62207 0z" fill-rule="evenodd"/><path stroke="#008ed2" stroke-width="3.0" stroke-linejoin="round" stroke-linecap="butt" d="m344.72046 377.25775l23.12442 -16.428345l92.49765 0l0 82.14172l-115.62207 0z" fill-rule="evenodd"/><path fill="#000000" fill-opacity="0.0" d="m769.18896 147.03412c0 53.606308 -47.811035 80.409454 -95.62201 107.2126c-47.811035 26.803146 -95.62207 53.606308 -95.62207 107.2126" fill-rule="evenodd"/><path stroke="#a20076" stroke-width="4.0" stroke-linejoin="round" stroke-linecap="butt" d="m769.18896 147.03412c0 53.606308 -47.811035 80.409454 -95.62201 107.2126c-23.905518 13.401566 -47.811035 26.803146 -65.74017 43.55513c-8.9646 8.375977 -16.435059 17.58957 -21.664368 28.05954c-1.307373 2.6174927 -2.4746094 5.313507 -3.4901123 8.0946045c-0.2538452 0.695282 -0.49829102 1.3958435 -0.7329712 2.1018677c-0.117370605 0.35299683 -0.23236084 0.70736694 -0.34490967 1.0630798c-0.05621338 0.17785645 -0.11187744 0.3560791 -0.16687012 0.53460693l-0.016845703 0.05532837" fill-rule="evenodd"/><path fill="#a20076" stroke="#a20076" stroke-width="4.0" stroke-linecap="butt" d="m574.87305 336.75677l3.9162598 18.91623l9.159058 -17.008026z" fill-rule="evenodd"/><path fill="#000000" fill-opacity="0.0" d="m345.88452 361.76117l115.62204 0l0 80.88187l-115.62204 0z" fill-rule="evenodd"/><path fill="#008ed2" d="m358.62012 408.88773q0 0.078125 -0.03125 0.140625q-0.03125 0.046875 -0.125 0.078125q-0.078125 0.03125 -0.21875 0.046875q-0.140625 0.015625 -0.375 0.015625q-0.21875 0 -0.375 -0.015625q-0.140625 -0.015625 -0.234375 -0.046875q-0.078125 -0.03125 -0.109375 -0.078125q-0.03125 -0.0625 -0.03125 -0.140625l0 -12.15625q0 -0.078125 0.03125 -0.125q0.03125 -0.0625 0.109375 -0.09375q0.09375 -0.046875 0.234375 -0.0625q0.15625 -0.015625 0.375 -0.015625q0.234375 0 0.375 0.015625q0.140625 0.015625 0.21875 0.0625q0.09375 0.03125 0.125 0.09375q0.03125 0.046875 0.03125 0.125l0 12.15625zm4.2814636 0q0 0.078125 -0.03125 0.140625q-0.03125 0.046875 -0.125 0.078125q-0.078125 0.03125 -0.21875 0.046875q-0.140625 0.015625 -0.375 0.015625q-0.21875 0 -0.375 -0.015625q-0.140625 -0.015625 -0.234375 -0.046875q-0.078125 -0.03125 -0.109375 -0.078125q-0.03125 -0.0625 -0.03125 -0.140625l0 -8.1875q0 -0.0625 0.03125 -0.109375q0.03125 -0.0625 0.109375 -0.09375q0.09375 -0.046875 0.234375 -0.0625q0.15625 -0.015625 0.375 -0.015625q0.234375 0 0.375 0.015625q0.140625 0.015625 0.21875 0.0625q0.09375 0.03125 0.125 0.09375q0.03125 0.046875 0.03125 0.109375l0 8.1875zm0.171875 -10.96875q0 0.53125 -0.203125 0.734375q-0.1875 0.1875 -0.734375 0.1875q-0.515625 0 -0.71875 -0.1875q-0.1875 -0.1875 -0.1875 -0.703125q0 -0.53125 0.1875 -0.71875q0.203125 -0.203125 0.75 -0.203125q0.515625 0 0.703125 0.1875q0.203125 0.1875 0.203125 0.703125zm10.156464 6.765625q0 1.0625 -0.234375 1.921875q-0.234375 0.84375 -0.6875 1.453125q-0.453125 0.59375 -1.109375 0.921875q-0.640625 0.3125 -1.5 0.3125q-0.390625 0 -0.71875 -0.078125q-0.328125 -0.078125 -0.65625 -0.25q-0.3125 -0.171875 -0.640625 -0.4375q-0.3125 -0.265625 -0.671875 -0.640625l0 1.0q0 0.078125 -0.03125 0.140625q-0.03125 0.046875 -0.125 0.078125q-0.078125 0.03125 -0.203125 0.046875q-0.125 0.015625 -0.3125 0.015625q-0.171875 0 -0.3125 -0.015625q-0.125 -0.015625 -0.203125 -0.046875q-0.078125 -0.03125 -0.109375 -0.078125q-0.03125 -0.0625 -0.03125 -0.140625l0 -12.15625q0 -0.078125 0.03125 -0.125q0.03125 -0.0625 0.109375 -0.09375q0.09375 -0.046875 0.234375 -0.0625q0.15625 -0.015625 0.375 -0.015625q0.234375 0 0.375 0.015625q0.140625 0.015625 0.21875 0.0625q0.09375 0.03125 0.125 0.09375q0.03125 0.046875 0.03125 0.125l0 4.90625q0.375 -0.375 0.703125 -0.625q0.34375 -0.265625 0.671875 -0.421875q0.328125 -0.15625 0.65625 -0.234375q0.328125 -0.078125 0.703125 -0.078125q0.890625 0 1.515625 0.359375q0.640625 0.359375 1.03125 0.953125q0.40625 0.59375 0.578125 1.40625q0.1875 0.796875 0.1875 1.6875zm-1.59375 0.171875q0 -0.625 -0.09375 -1.21875q-0.09375 -0.59375 -0.328125 -1.046875q-0.234375 -0.453125 -0.625 -0.734375q-0.390625 -0.28125 -0.984375 -0.28125q-0.28125 0 -0.5625 0.09375q-0.28125 0.078125 -0.578125 0.265625q-0.296875 0.1875 -0.609375 0.5q-0.3125 0.296875 -0.671875 0.75l0 3.265625q0.625 0.765625 1.1875 1.15625q0.5625 0.390625 1.171875 0.390625q0.578125 0 0.96875 -0.265625q0.40625 -0.28125 0.65625 -0.71875q0.25 -0.453125 0.359375 -1.015625q0.109375 -0.5625 0.109375 -1.140625zm10.895569 3.640625q0 0.171875 -0.03125 0.296875q-0.015625 0.125 -0.0625 0.203125q-0.046875 0.0625 -0.109375 0.09375q-0.046875 0.03125 -0.125 0.03125l-6.15625 0q-0.0625 0 -0.125 -0.03125q-0.046875 -0.03125 -0.09375 -0.09375q-0.046875 -0.078125 -0.078125 -0.203125q-0.03125 -0.125 -0.03125 -0.296875q0 -0.15625 0.03125 -0.265625q0.03125 -0.125 0.0625 -0.203125q0.046875 -0.078125 0.109375 -0.109375q0.0625 -0.046875 0.125 -0.046875l2.46875 0l0 -8.96875l-2.28125 1.359375q-0.171875 0.09375 -0.28125 0.109375q-0.09375 0.015625 -0.171875 -0.046875q-0.0625 -0.0625 -0.09375 -0.1875q-0.015625 -0.140625 -0.015625 -0.359375q0 -0.140625 0.015625 -0.25q0.015625 -0.109375 0.046875 -0.1875q0.03125 -0.078125 0.078125 -0.125q0.046875 -0.0625 0.125 -0.109375l2.71875 -1.75q0.03125 -0.015625 0.078125 -0.03125q0.0625 -0.03125 0.140625 -0.046875q0.09375 -0.015625 0.203125 -0.015625q0.109375 -0.015625 0.265625 -0.015625q0.21875 0 0.359375 0.03125q0.15625 0.015625 0.234375 0.046875q0.09375 0.03125 0.109375 0.078125q0.03125 0.046875 0.03125 0.109375l0 10.359375l2.125 0q0.078125 0 0.140625 0.046875q0.0625 0.03125 0.109375 0.109375q0.046875 0.078125 0.0625 0.203125q0.015625 0.109375 0.015625 0.265625zm6.096283 -3.96875q0 0.34375 -0.078125 0.484375q-0.078125 0.140625 -0.234375 0.140625l-3.8125 0q-0.15625 0 -0.25 -0.140625q-0.078125 -0.140625 -0.078125 -0.484375q0 -0.359375 0.078125 -0.484375q0.09375 -0.140625 0.25 -0.140625l3.8125 0q0.078125 0 0.125 0.03125q0.0625 0.015625 0.09375 0.09375q0.046875 0.078125 0.0625 0.203125q0.03125 0.125 0.03125 0.296875zm9.071014 3.96875q0 0.171875 -0.03125 0.296875q-0.015625 0.125 -0.0625 0.203125q-0.046875 0.0625 -0.109375 0.09375q-0.046875 0.03125 -0.125 0.03125l-6.15625 0q-0.0625 0 -0.125 -0.03125q-0.046875 -0.03125 -0.09375 -0.09375q-0.046875 -0.078125 -0.078125 -0.203125q-0.03125 -0.125 -0.03125 -0.296875q0 -0.15625 0.03125 -0.265625q0.03125 -0.125 0.0625 -0.203125q0.046875 -0.078125 0.109375 -0.109375q0.0625 -0.046875 0.125 -0.046875l2.46875 0l0 -8.96875l-2.28125 1.359375q-0.171875 0.09375 -0.28125 0.109375q-0.09375 0.015625 -0.171875 -0.046875q-0.0625 -0.0625 -0.09375 -0.1875q-0.015625 -0.140625 -0.015625 -0.359375q0 -0.140625 0.015625 -0.25q0.015625 -0.109375 0.046875 -0.1875q0.03125 -0.078125 0.078125 -0.125q0.046875 -0.0625 0.125 -0.109375l2.71875 -1.75q0.03125 -0.015625 0.078125 -0.03125q0.0625 -0.03125 0.140625 -0.046875q0.09375 -0.015625 0.203125 -0.015625q0.109375 -0.015625 0.265625 -0.015625q0.21875 0 0.359375 0.03125q0.15625 0.015625 0.234375 0.046875q0.09375 0.03125 0.109375 0.078125q0.03125 0.046875 0.03125 0.109375l0 10.359375l2.125 0q0.078125 0 0.140625 0.046875q0.0625 0.03125 0.109375 0.109375q0.046875 0.078125 0.0625 0.203125q0.015625 0.109375 0.015625 0.265625zm4.346283 -0.375q0 0.65625 -0.21875 0.875q-0.203125 0.203125 -0.765625 0.203125q-0.546875 0 -0.765625 -0.203125q-0.203125 -0.21875 -0.203125 -0.84375q0 -0.640625 0.203125 -0.859375q0.21875 -0.21875 0.796875 -0.21875q0.546875 0 0.75 0.21875q0.203125 0.203125 0.203125 0.828125zm10.194 -4.921875q0 1.359375 -0.21875 2.484375q-0.21875 1.109375 -0.71875 1.921875q-0.484375 0.8125 -1.296875 1.25q-0.796875 0.4375 -1.96875 0.4375q-1.109375 0 -1.875 -0.390625q-0.75 -0.40625 -1.21875 -1.171875q-0.46875 -0.765625 -0.671875 -1.890625q-0.1875 -1.125 -0.1875 -2.578125q0 -1.359375 0.21875 -2.484375q0.21875 -1.125 0.703125 -1.921875q0.5 -0.8125 1.296875 -1.25q0.8125 -0.4375 1.96875 -0.4375q1.125 0 1.875 0.390625q0.765625 0.390625 1.234375 1.171875q0.46875 0.765625 0.65625 1.890625q0.203125 1.125 0.203125 2.578125zm-1.609375 0.109375q0 -0.890625 -0.0625 -1.578125q-0.0625 -0.703125 -0.1875 -1.234375q-0.125 -0.546875 -0.328125 -0.9375q-0.1875 -0.390625 -0.46875 -0.640625q-0.265625 -0.25 -0.625 -0.359375q-0.34375 -0.109375 -0.78125 -0.109375q-0.765625 0 -1.25 0.359375q-0.484375 0.359375 -0.765625 1.0q-0.28125 0.640625 -0.375 1.5q-0.09375 0.859375 -0.09375 1.84375q0 1.3125 0.125 2.234375q0.140625 0.921875 0.4375 1.515625q0.296875 0.578125 0.75 0.84375q0.46875 0.265625 1.125 0.265625q0.5 0 0.890625 -0.15625q0.390625 -0.171875 0.671875 -0.46875q0.28125 -0.3125 0.453125 -0.734375q0.1875 -0.4375 0.296875 -0.953125q0.109375 -0.515625 0.140625 -1.125q0.046875 -0.609375 0.046875 -1.265625zm5.580658 4.8125q0 0.65625 -0.21875 0.875q-0.203125 0.203125 -0.765625 0.203125q-0.546875 0 -0.765625 -0.203125q-0.203125 -0.21875 -0.203125 -0.84375q0 -0.640625 0.203125 -0.859375q0.21875 -0.21875 0.796875 -0.21875q0.546875 0 0.75 0.21875q0.203125 0.203125 0.203125 0.828125zm10.19397 -4.921875q0 1.359375 -0.21875 2.484375q-0.21875 1.109375 -0.71875 1.921875q-0.484375 0.8125 -1.296875 1.25q-0.796875 0.4375 -1.96875 0.4375q-1.109375 0 -1.875 -0.390625q-0.75 -0.40625 -1.21875 -1.171875q-0.46875 -0.765625 -0.671875 -1.890625q-0.1875 -1.125 -0.1875 -2.578125q0 -1.359375 0.21875 -2.484375q0.21875 -1.125 0.703125 -1.921875q0.5 -0.8125 1.296875 -1.25q0.8125 -0.4375 1.96875 -0.4375q1.125 0 1.875 0.390625q0.765625 0.390625 1.234375 1.171875q0.46875 0.765625 0.65625 1.890625q0.203125 1.125 0.203125 2.578125zm-1.609375 0.109375q0 -0.890625 -0.0625 -1.578125q-0.0625 -0.703125 -0.1875 -1.234375q-0.125 -0.546875 -0.328125 -0.9375q-0.1875 -0.390625 -0.46875 -0.640625q-0.265625 -0.25 -0.625 -0.359375q-0.34375 -0.109375 -0.78125 -0.109375q-0.765625 0 -1.25 0.359375q-0.484375 0.359375 -0.765625 1.0q-0.28125 0.640625 -0.375 1.5q-0.09375 0.859375 -0.09375 1.84375q0 1.3125 0.125 2.234375q0.140625 0.921875 0.4375 1.515625q0.296875 0.578125 0.75 0.84375q0.46875 0.265625 1.125 0.265625q0.5 0 0.890625 -0.15625q0.390625 -0.171875 0.671875 -0.46875q0.28125 -0.3125 0.453125 -0.734375q0.1875 -0.4375 0.296875 -0.953125q0.109375 -0.515625 0.140625 -1.125q0.046875 -0.609375 0.046875 -1.265625zm5.580658 4.8125q0 0.65625 -0.21875 0.875q-0.203125 0.203125 -0.765625 0.203125q-0.546875 0 -0.765625 -0.203125q-0.203125 -0.21875 -0.203125 -0.84375q0 -0.640625 0.203125 -0.859375q0.21875 -0.21875 0.796875 -0.21875q0.546875 0 0.75 0.21875q0.203125 0.203125 0.203125 0.828125zm4.4440002 1.140625q0 0.90625 -0.140625 1.46875q-0.125 0.5625 -0.421875 0.9375q-0.28125 0.390625 -0.75 0.578125q-0.453125 0.203125 -1.09375 0.203125q-0.296875 0 -0.5 -0.046875q-0.203125 -0.03125 -0.3125 -0.078125q-0.109375 -0.046875 -0.140625 -0.109375q-0.046875 -0.046875 -0.0625 -0.125q-0.015625 -0.078125 -0.015625 -0.171875q-0.015625 -0.078125 -0.015625 -0.1875q0 -0.171875 0.015625 -0.296875q0.015625 -0.109375 0.046875 -0.1875q0.03125 -0.0625 0.078125 -0.09375q0.03125 -0.03125 0.09375 -0.03125q0.0625 0 0.21875 0.015625q0.15625 0.03125 0.359375 0.03125q0.3125 0 0.515625 -0.09375q0.21875 -0.09375 0.359375 -0.296875q0.140625 -0.203125 0.203125 -0.53125q0.0625 -0.328125 0.0625 -1.0l0 -8.546875q0 -0.0625 0.03125 -0.109375q0.03125 -0.0625 0.109375 -0.09375q0.09375 -0.046875 0.234375 -0.0625q0.15625 -0.015625 0.375 -0.015625q0.21875 0 0.359375 0.015625q0.15625 0.015625 0.234375 0.0625q0.09375 0.03125 0.125 0.09375q0.03125 0.046875 0.03125 0.109375l0 8.5625zm0.1875 -11.34375q0 0.53125 -0.203125 0.734375q-0.203125 0.1875 -0.734375 0.1875q-0.53125 0 -0.734375 -0.1875q-0.1875 -0.1875 -0.1875 -0.703125q0 -0.53125 0.1875 -0.71875q0.203125 -0.203125 0.75 -0.203125q0.53125 0 0.71875 0.1875q0.203125 0.1875 0.203125 0.703125zm8.776154 10.984375q0 0.109375 -0.078125 0.171875q-0.0625 0.046875 -0.1875 0.0625q-0.125 0.03125 -0.375 0.03125q-0.234375 0 -0.375 -0.03125q-0.140625 -0.015625 -0.203125 -0.0625q-0.0625 -0.0625 -0.0625 -0.171875l0 -0.8125q-0.546875 0.5625 -1.203125 0.890625q-0.65625 0.3125 -1.390625 0.3125q-0.65625 0 -1.1875 -0.171875q-0.515625 -0.15625 -0.890625 -0.46875q-0.359375 -0.328125 -0.5625 -0.796875q-0.203125 -0.46875 -0.203125 -1.0625q0 -0.6875 0.28125 -1.1875q0.28125 -0.515625 0.796875 -0.84375q0.53125 -0.34375 1.296875 -0.515625q0.765625 -0.171875 1.734375 -0.171875l1.125 0l0 -0.640625q0 -0.46875 -0.109375 -0.828125q-0.09375 -0.375 -0.328125 -0.609375q-0.21875 -0.25 -0.578125 -0.359375q-0.34375 -0.125 -0.859375 -0.125q-0.5625 0 -1.0 0.140625q-0.4375 0.125 -0.78125 0.28125q-0.328125 0.15625 -0.546875 0.296875q-0.21875 0.125 -0.328125 0.125q-0.078125 0 -0.140625 -0.03125q-0.046875 -0.046875 -0.09375 -0.109375q-0.03125 -0.078125 -0.0625 -0.1875q-0.015625 -0.125 -0.015625 -0.25q0 -0.234375 0.03125 -0.359375q0.03125 -0.140625 0.15625 -0.25q0.125 -0.125 0.421875 -0.28125q0.3125 -0.171875 0.703125 -0.296875q0.390625 -0.125 0.84375 -0.21875q0.46875 -0.09375 0.953125 -0.09375q0.875 0 1.484375 0.203125q0.625 0.203125 1.0 0.59375q0.390625 0.390625 0.5625 0.96875q0.171875 0.5625 0.171875 1.328125l0 5.53125zm-1.484375 -3.75l-1.28125 0q-0.625 0 -1.078125 0.109375q-0.453125 0.109375 -0.765625 0.3125q-0.296875 0.203125 -0.4375 0.5q-0.140625 0.28125 -0.140625 0.65625q0 0.625 0.40625 1.015625q0.40625 0.375 1.140625 0.375q0.59375 0 1.09375 -0.296875q0.5 -0.3125 1.0625 -0.921875l0 -1.75zm9.045776 -3.921875q0 0.203125 -0.015625 0.34375q0 0.125 -0.03125 0.203125q-0.03125 0.078125 -0.078125 0.125q-0.03125 0.046875 -0.109375 0.046875q-0.0625 0 -0.171875 -0.046875q-0.109375 -0.046875 -0.25 -0.078125q-0.125 -0.046875 -0.296875 -0.078125q-0.15625 -0.046875 -0.34375 -0.046875q-0.21875 0 -0.4375 0.09375q-0.21875 0.09375 -0.46875 0.3125q-0.234375 0.203125 -0.5 0.546875q-0.265625 0.34375 -0.59375 0.84375l0 5.390625q0 0.078125 -0.03125 0.140625q-0.03125 0.046875 -0.125 0.078125q-0.078125 0.03125 -0.21875 0.046875q-0.140625 0.015625 -0.375 0.015625q-0.21875 0 -0.375 -0.015625q-0.140625 -0.015625 -0.234375 -0.046875q-0.078125 -0.03125 -0.109375 -0.078125q-0.03125 -0.0625 -0.03125 -0.140625l0 -8.1875q0 -0.078125 0.03125 -0.125q0.03125 -0.046875 0.109375 -0.09375q0.078125 -0.046875 0.203125 -0.046875q0.140625 -0.015625 0.34375 -0.015625q0.203125 0 0.328125 0.015625q0.140625 0 0.203125 0.046875q0.078125 0.046875 0.109375 0.09375q0.03125 0.046875 0.03125 0.125l0 1.1875q0.34375 -0.484375 0.640625 -0.796875q0.296875 -0.3125 0.546875 -0.484375q0.265625 -0.1875 0.53125 -0.25q0.265625 -0.078125 0.515625 -0.078125q0.125 0 0.265625 0.015625q0.15625 0.015625 0.3125 0.0625q0.171875 0.03125 0.296875 0.078125q0.140625 0.046875 0.1875 0.09375q0.0625 0.046875 0.078125 0.09375q0.03125 0.03125 0.03125 0.09375q0.015625 0.0625 0.015625 0.1875q0.015625 0.125 0.015625 0.328125z" fill-rule="nonzero"/><path fill="#ffffff" d="m520.13385 377.55957l23.12439 -16.428345l92.49768 0l0 82.141754l-115.62207 0z" fill-rule="evenodd"/><path stroke="#008ed2" stroke-width="3.0" stroke-linejoin="round" stroke-linecap="butt" d="m520.13385 377.55957l23.12439 -16.428345l92.49768 0l0 82.141754l-115.62207 0z" fill-rule="evenodd"/><path fill="#000000" fill-opacity="0.0" d="m520.13385 361.45932l115.62207 0l0 80.8819l-115.62207 0z" fill-rule="evenodd"/><path fill="#008ed2" d="m532.86945 408.58588q0 0.078125 -0.03125 0.140625q-0.03125 0.046875 -0.125 0.078125q-0.078125 0.03125 -0.21875 0.046875q-0.140625 0.015625 -0.375 0.015625q-0.21875 0 -0.375 -0.015625q-0.140625 -0.015625 -0.234375 -0.046875q-0.078125 -0.03125 -0.109375 -0.078125q-0.03125 -0.0625 -0.03125 -0.140625l0 -12.15625q0 -0.078125 0.03125 -0.125q0.03125 -0.0625 0.109375 -0.09375q0.09375 -0.046875 0.234375 -0.0625q0.15625 -0.015625 0.375 -0.015625q0.234375 0 0.375 0.015625q0.140625 0.015625 0.21875 0.0625q0.09375 0.03125 0.125 0.09375q0.03125 0.046875 0.03125 0.125l0 12.15625zm4.281494 0q0 0.078125 -0.03125 0.140625q-0.03125 0.046875 -0.125 0.078125q-0.078125 0.03125 -0.21875 0.046875q-0.140625 0.015625 -0.375 0.015625q-0.21875 0 -0.375 -0.015625q-0.140625 -0.015625 -0.234375 -0.046875q-0.078125 -0.03125 -0.109375 -0.078125q-0.03125 -0.0625 -0.03125 -0.140625l0 -8.1875q0 -0.0625 0.03125 -0.109375q0.03125 -0.0625 0.109375 -0.09375q0.09375 -0.046875 0.234375 -0.0625q0.15625 -0.015625 0.375 -0.015625q0.234375 0 0.375 0.015625q0.140625 0.015625 0.21875 0.0625q0.09375 0.03125 0.125 0.09375q0.03125 0.046875 0.03125 0.109375l0 8.1875zm0.171875 -10.96875q0 0.53125 -0.203125 0.734375q-0.1875 0.1875 -0.734375 0.1875q-0.515625 0 -0.71875 -0.1875q-0.1875 -0.1875 -0.1875 -0.703125q0 -0.53125 0.1875 -0.71875q0.203125 -0.203125 0.75 -0.203125q0.515625 0 0.703125 0.1875q0.203125 0.1875 0.203125 0.703125zm10.156433 6.765625q0 1.0625 -0.234375 1.921875q-0.234375 0.84375 -0.6875 1.453125q-0.453125 0.59375 -1.109375 0.921875q-0.640625 0.3125 -1.5 0.3125q-0.390625 0 -0.71875 -0.078125q-0.328125 -0.078125 -0.65625 -0.25q-0.3125 -0.171875 -0.640625 -0.4375q-0.3125 -0.265625 -0.671875 -0.640625l0 1.0q0 0.078125 -0.03125 0.140625q-0.03125 0.046875 -0.125 0.078125q-0.078125 0.03125 -0.203125 0.046875q-0.125 0.015625 -0.3125 0.015625q-0.171875 0 -0.3125 -0.015625q-0.125 -0.015625 -0.203125 -0.046875q-0.078125 -0.03125 -0.109375 -0.078125q-0.03125 -0.0625 -0.03125 -0.140625l0 -12.15625q0 -0.078125 0.03125 -0.125q0.03125 -0.0625 0.109375 -0.09375q0.09375 -0.046875 0.234375 -0.0625q0.15625 -0.015625 0.375 -0.015625q0.234375 0 0.375 0.015625q0.140625 0.015625 0.21875 0.0625q0.09375 0.03125 0.125 0.09375q0.03125 0.046875 0.03125 0.125l0 4.90625q0.375 -0.375 0.703125 -0.625q0.34375 -0.265625 0.671875 -0.421875q0.328125 -0.15625 0.65625 -0.234375q0.328125 -0.078125 0.703125 -0.078125q0.890625 0 1.515625 0.359375q0.640625 0.359375 1.03125 0.953125q0.40625 0.59375 0.578125 1.40625q0.1875 0.796875 0.1875 1.6875zm-1.59375 0.171875q0 -0.625 -0.09375 -1.21875q-0.09375 -0.59375 -0.328125 -1.046875q-0.234375 -0.453125 -0.625 -0.734375q-0.390625 -0.28125 -0.984375 -0.28125q-0.28125 0 -0.5625 0.09375q-0.28125 0.078125 -0.578125 0.265625q-0.296875 0.1875 -0.609375 0.5q-0.3125 0.296875 -0.671875 0.75l0 3.265625q0.625 0.765625 1.1875 1.15625q0.5625 0.390625 1.171875 0.390625q0.578125 0 0.96875 -0.265625q0.40625 -0.28125 0.65625 -0.71875q0.25 -0.453125 0.359375 -1.015625q0.109375 -0.5625 0.109375 -1.140625zm10.879944 3.59375q0 0.15625 -0.03125 0.296875q-0.015625 0.125 -0.0625 0.21875q-0.03125 0.078125 -0.109375 0.125q-0.0625 0.03125 -0.140625 0.03125l-6.515625 0q-0.125 0 -0.234375 -0.03125q-0.09375 -0.03125 -0.15625 -0.09375q-0.0625 -0.078125 -0.109375 -0.21875q-0.03125 -0.140625 -0.03125 -0.34375q0 -0.171875 0.015625 -0.3125q0.015625 -0.140625 0.0625 -0.234375q0.046875 -0.109375 0.109375 -0.21875q0.078125 -0.109375 0.1875 -0.21875l2.28125 -2.421875q0.796875 -0.84375 1.265625 -1.5q0.484375 -0.671875 0.734375 -1.21875q0.265625 -0.546875 0.34375 -0.984375q0.09375 -0.453125 0.09375 -0.84375q0 -0.390625 -0.140625 -0.734375q-0.125 -0.359375 -0.359375 -0.625q-0.234375 -0.265625 -0.609375 -0.421875q-0.359375 -0.15625 -0.828125 -0.15625q-0.5625 0 -1.015625 0.15625q-0.4375 0.15625 -0.765625 0.34375q-0.328125 0.171875 -0.5625 0.328125q-0.21875 0.15625 -0.328125 0.15625q-0.0625 0 -0.109375 -0.03125q-0.046875 -0.046875 -0.078125 -0.125q-0.03125 -0.078125 -0.0625 -0.21875q-0.015625 -0.140625 -0.015625 -0.328125q0 -0.140625 0.015625 -0.234375q0.015625 -0.09375 0.03125 -0.171875q0.03125 -0.078125 0.0625 -0.140625q0.03125 -0.0625 0.140625 -0.15625q0.109375 -0.09375 0.375 -0.25q0.28125 -0.171875 0.671875 -0.328125q0.40625 -0.15625 0.890625 -0.265625q0.5 -0.109375 1.03125 -0.109375q0.859375 0 1.5 0.234375q0.640625 0.234375 1.0625 0.65625q0.421875 0.421875 0.625 0.984375q0.21875 0.546875 0.21875 1.171875q0 0.578125 -0.109375 1.140625q-0.09375 0.546875 -0.421875 1.203125q-0.3125 0.65625 -0.921875 1.453125q-0.609375 0.796875 -1.625 1.828125l-1.859375 1.953125l5.125 0q0.078125 0 0.140625 0.046875q0.0625 0.03125 0.109375 0.125q0.0625 0.078125 0.078125 0.203125q0.03125 0.109375 0.03125 0.28125zm6.1119385 -3.921875q0 0.34375 -0.078125 0.484375q-0.078125 0.140625 -0.234375 0.140625l-3.8125 0q-0.15625 0 -0.25 -0.140625q-0.078125 -0.140625 -0.078125 -0.484375q0 -0.359375 0.078125 -0.484375q0.09375 -0.140625 0.25 -0.140625l3.8125 0q0.078125 0 0.125 0.03125q0.0625 0.015625 0.09375 0.09375q0.046875 0.078125 0.0625 0.203125q0.03125 0.125 0.03125 0.296875zm9.555359 1.234375q0 0.3125 -0.09375 0.484375q-0.09375 0.171875 -0.25 0.171875l-1.34375 0l0 2.46875q0 0.078125 -0.03125 0.140625q-0.03125 0.046875 -0.125 0.078125q-0.09375 0.03125 -0.234375 0.046875q-0.140625 0.015625 -0.375 0.015625q-0.21875 0 -0.375 -0.015625q-0.140625 -0.015625 -0.234375 -0.046875q-0.078125 -0.03125 -0.109375 -0.078125q-0.03125 -0.0625 -0.03125 -0.140625l0 -2.46875l-4.859375 0q-0.109375 0 -0.1875 -0.03125q-0.078125 -0.03125 -0.140625 -0.09375q-0.046875 -0.078125 -0.078125 -0.203125q-0.015625 -0.140625 -0.015625 -0.359375q0 -0.1875 0 -0.3125q0.015625 -0.140625 0.046875 -0.25q0.03125 -0.125 0.0625 -0.21875q0.046875 -0.109375 0.125 -0.234375l4.234375 -7.15625q0.046875 -0.078125 0.125 -0.125q0.09375 -0.046875 0.234375 -0.078125q0.140625 -0.046875 0.328125 -0.0625q0.203125 -0.015625 0.484375 -0.015625q0.296875 0 0.515625 0.03125q0.234375 0.015625 0.359375 0.0625q0.140625 0.03125 0.203125 0.09375q0.078125 0.046875 0.078125 0.125l0 7.53125l1.34375 0q0.15625 0 0.25 0.15625q0.09375 0.15625 0.09375 0.484375zm-3.203125 -7.109375l-0.015625 0l-3.828125 6.46875l3.84375 0l0 -6.46875zm7.0650635 9.46875q0 0.65625 -0.21875 0.875q-0.203125 0.203125 -0.765625 0.203125q-0.546875 0 -0.765625 -0.203125q-0.203125 -0.21875 -0.203125 -0.84375q0 -0.640625 0.203125 -0.859375q0.21875 -0.21875 0.796875 -0.21875q0.546875 0 0.75 0.21875q0.203125 0.203125 0.203125 0.828125zm10.19397 -4.921875q0 1.359375 -0.21875 2.484375q-0.21875 1.109375 -0.71875 1.921875q-0.484375 0.8125 -1.296875 1.25q-0.796875 0.4375 -1.96875 0.4375q-1.109375 0 -1.875 -0.390625q-0.75 -0.40625 -1.21875 -1.171875q-0.46875 -0.765625 -0.671875 -1.890625q-0.1875 -1.125 -0.1875 -2.578125q0 -1.359375 0.21875 -2.484375q0.21875 -1.125 0.703125 -1.921875q0.5 -0.8125 1.296875 -1.25q0.8125 -0.4375 1.96875 -0.4375q1.125 0 1.875 0.390625q0.765625 0.390625 1.234375 1.171875q0.46875 0.765625 0.65625 1.890625q0.203125 1.125 0.203125 2.578125zm-1.609375 0.109375q0 -0.890625 -0.0625 -1.578125q-0.0625 -0.703125 -0.1875 -1.234375q-0.125 -0.546875 -0.328125 -0.9375q-0.1875 -0.390625 -0.46875 -0.640625q-0.265625 -0.25 -0.625 -0.359375q-0.34375 -0.109375 -0.78125 -0.109375q-0.765625 0 -1.25 0.359375q-0.484375 0.359375 -0.765625 1.0q-0.28125 0.640625 -0.375 1.5q-0.09375 0.859375 -0.09375 1.84375q0 1.3125 0.125 2.234375q0.140625 0.921875 0.4375 1.515625q0.296875 0.578125 0.75 0.84375q0.46875 0.265625 1.125 0.265625q0.5 0 0.890625 -0.15625q0.390625 -0.171875 0.671875 -0.46875q0.28125 -0.3125 0.453125 -0.734375q0.1875 -0.4375 0.296875 -0.953125q0.109375 -0.515625 0.140625 -1.125q0.046875 -0.609375 0.046875 -1.265625zm5.5806885 4.8125q0 0.65625 -0.21875 0.875q-0.203125 0.203125 -0.765625 0.203125q-0.546875 0 -0.765625 -0.203125q-0.203125 -0.21875 -0.203125 -0.84375q0 -0.640625 0.203125 -0.859375q0.21875 -0.21875 0.796875 -0.21875q0.546875 0 0.75 0.21875q0.203125 0.203125 0.203125 0.828125zm9.81897 0.375q0 0.171875 -0.03125 0.296875q-0.015625 0.125 -0.0625 0.203125q-0.046875 0.0625 -0.109375 0.09375q-0.046875 0.03125 -0.125 0.03125l-6.15625 0q-0.0625 0 -0.125 -0.03125q-0.046875 -0.03125 -0.09375 -0.09375q-0.046875 -0.078125 -0.078125 -0.203125q-0.03125 -0.125 -0.03125 -0.296875q0 -0.15625 0.03125 -0.265625q0.03125 -0.125 0.0625 -0.203125q0.046875 -0.078125 0.109375 -0.109375q0.0625 -0.046875 0.125 -0.046875l2.46875 0l0 -8.96875l-2.28125 1.359375q-0.171875 0.09375 -0.28125 0.109375q-0.09375 0.015625 -0.171875 -0.046875q-0.0625 -0.0625 -0.09375 -0.1875q-0.015625 -0.140625 -0.015625 -0.359375q0 -0.140625 0.015625 -0.25q0.015625 -0.109375 0.046875 -0.1875q0.03125 -0.078125 0.078125 -0.125q0.046875 -0.0625 0.125 -0.109375l2.71875 -1.75q0.03125 -0.015625 0.078125 -0.03125q0.0625 -0.03125 0.140625 -0.046875q0.09375 -0.015625 0.203125 -0.015625q0.109375 -0.015625 0.265625 -0.015625q0.21875 0 0.359375 0.03125q0.15625 0.015625 0.234375 0.046875q0.09375 0.03125 0.109375 0.078125q0.03125 0.046875 0.03125 0.109375l0 10.359375l2.125 0q0.078125 0 0.140625 0.046875q0.0625 0.03125 0.109375 0.109375q0.046875 0.078125 0.0625 0.203125q0.015625 0.109375 0.015625 0.265625zm4.3462524 -0.375q0 0.65625 -0.21875 0.875q-0.203125 0.203125 -0.765625 0.203125q-0.546875 0 -0.765625 -0.203125q-0.203125 -0.21875 -0.203125 -0.84375q0 -0.640625 0.203125 -0.859375q0.21875 -0.21875 0.796875 -0.21875q0.546875 0 0.75 0.21875q0.203125 0.203125 0.203125 0.828125zm4.444031 1.140625q0 0.90625 -0.140625 1.46875q-0.125 0.5625 -0.421875 0.9375q-0.28125 0.390625 -0.75 0.578125q-0.453125 0.203125 -1.09375 0.203125q-0.296875 0 -0.5 -0.046875q-0.203125 -0.03125 -0.3125 -0.078125q-0.109375 -0.046875 -0.140625 -0.109375q-0.046875 -0.046875 -0.0625 -0.125q-0.015625 -0.078125 -0.015625 -0.171875q-0.015625 -0.078125 -0.015625 -0.1875q0 -0.171875 0.015625 -0.296875q0.015625 -0.109375 0.046875 -0.1875q0.03125 -0.0625 0.078125 -0.09375q0.03125 -0.03125 0.09375 -0.03125q0.0625 0 0.21875 0.015625q0.15625 0.03125 0.359375 0.03125q0.3125 0 0.515625 -0.09375q0.21875 -0.09375 0.359375 -0.296875q0.140625 -0.203125 0.203125 -0.53125q0.0625 -0.328125 0.0625 -1.0l0 -8.546875q0 -0.0625 0.03125 -0.109375q0.03125 -0.0625 0.109375 -0.09375q0.09375 -0.046875 0.234375 -0.0625q0.15625 -0.015625 0.375 -0.015625q0.21875 0 0.359375 0.015625q0.15625 0.015625 0.234375 0.0625q0.09375 0.03125 0.125 0.09375q0.03125 0.046875 0.03125 0.109375l0 8.5625zm0.1875 -11.34375q0 0.53125 -0.203125 0.734375q-0.203125 0.1875 -0.734375 0.1875q-0.53125 0 -0.734375 -0.1875q-0.1875 -0.1875 -0.1875 -0.703125q0 -0.53125 0.1875 -0.71875q0.203125 -0.203125 0.75 -0.203125q0.53125 0 0.71875 0.1875q0.203125 0.1875 0.203125 0.703125zm8.776123 10.984375q0 0.109375 -0.078125 0.171875q-0.0625 0.046875 -0.1875 0.0625q-0.125 0.03125 -0.375 0.03125q-0.234375 0 -0.375 -0.03125q-0.140625 -0.015625 -0.203125 -0.0625q-0.0625 -0.0625 -0.0625 -0.171875l0 -0.8125q-0.546875 0.5625 -1.203125 0.890625q-0.65625 0.3125 -1.390625 0.3125q-0.65625 0 -1.1875 -0.171875q-0.515625 -0.15625 -0.890625 -0.46875q-0.359375 -0.328125 -0.5625 -0.796875q-0.203125 -0.46875 -0.203125 -1.0625q0 -0.6875 0.28125 -1.1875q0.28125 -0.515625 0.796875 -0.84375q0.53125 -0.34375 1.296875 -0.515625q0.765625 -0.171875 1.734375 -0.171875l1.125 0l0 -0.640625q0 -0.46875 -0.109375 -0.828125q-0.09375 -0.375 -0.328125 -0.609375q-0.21875 -0.25 -0.578125 -0.359375q-0.34375 -0.125 -0.859375 -0.125q-0.5625 0 -1.0 0.140625q-0.4375 0.125 -0.78125 0.28125q-0.328125 0.15625 -0.546875 0.296875q-0.21875 0.125 -0.328125 0.125q-0.078125 0 -0.140625 -0.03125q-0.046875 -0.046875 -0.09375 -0.109375q-0.03125 -0.078125 -0.0625 -0.1875q-0.015625 -0.125 -0.015625 -0.25q0 -0.234375 0.03125 -0.359375q0.03125 -0.140625 0.15625 -0.25q0.125 -0.125 0.421875 -0.28125q0.3125 -0.171875 0.703125 -0.296875q0.390625 -0.125 0.84375 -0.21875q0.46875 -0.09375 0.953125 -0.09375q0.875 0 1.484375 0.203125q0.625 0.203125 1.0 0.59375q0.390625 0.390625 0.5625 0.96875q0.171875 0.5625 0.171875 1.328125l0 5.53125zm-1.484375 -3.75l-1.28125 0q-0.625 0 -1.078125 0.109375q-0.453125 0.109375 -0.765625 0.3125q-0.296875 0.203125 -0.4375 0.5q-0.140625 0.28125 -0.140625 0.65625q0 0.625 0.40625 1.015625q0.40625 0.375 1.140625 0.375q0.59375 0 1.09375 -0.296875q0.5 -0.3125 1.0625 -0.921875l0 -1.75zm9.045776 -3.921875q0 0.203125 -0.015625 0.34375q0 0.125 -0.03125 0.203125q-0.03125 0.078125 -0.078125 0.125q-0.03125 0.046875 -0.109375 0.046875q-0.0625 0 -0.171875 -0.046875q-0.109375 -0.046875 -0.25 -0.078125q-0.125 -0.046875 -0.296875 -0.078125q-0.15625 -0.046875 -0.34375 -0.046875q-0.21875 0 -0.4375 0.09375q-0.21875 0.09375 -0.46875 0.3125q-0.234375 0.203125 -0.5 0.546875q-0.265625 0.34375 -0.59375 0.84375l0 5.390625q0 0.078125 -0.03125 0.140625q-0.03125 0.046875 -0.125 0.078125q-0.078125 0.03125 -0.21875 0.046875q-0.140625 0.015625 -0.375 0.015625q-0.21875 0 -0.375 -0.015625q-0.140625 -0.015625 -0.234375 -0.046875q-0.078125 -0.03125 -0.109375 -0.078125q-0.03125 -0.0625 -0.03125 -0.140625l0 -8.1875q0 -0.078125 0.03125 -0.125q0.03125 -0.046875 0.109375 -0.09375q0.078125 -0.046875 0.203125 -0.046875q0.140625 -0.015625 0.34375 -0.015625q0.203125 0 0.328125 0.015625q0.140625 0 0.203125 0.046875q0.078125 0.046875 0.109375 0.09375q0.03125 0.046875 0.03125 0.125l0 1.1875q0.34375 -0.484375 0.640625 -0.796875q0.296875 -0.3125 0.546875 -0.484375q0.265625 -0.1875 0.53125 -0.25q0.265625 -0.078125 0.515625 -0.078125q0.125 0 0.265625 0.015625q0.15625 0.015625 0.3125 0.0625q0.171875 0.03125 0.296875 0.078125q0.140625 0.046875 0.1875 0.09375q0.0625 0.046875 0.078125 0.09375q0.03125 0.03125 0.03125 0.09375q0.015625 0.0625 0.015625 0.1875q0.015625 0.125 0.015625 0.328125z" fill-rule="nonzero"/><path fill="#000000" fill-opacity="0.0" d="m267.36746 401.90027c19.338196 0 29.00708 0.01574707 38.67639 0.03149414c9.669281 0.01574707 19.338959 0.03149414 38.677917 0.03149414" fill-rule="evenodd"/><path stroke="#002776" stroke-width="2.0" stroke-linejoin="round" stroke-linecap="butt" d="m267.36746 401.90027c19.338196 0 29.00708 0.01574707 38.67639 0.03149414c4.8346252 0.007873535 9.669373 0.01574707 15.71283 0.021636963c3.0217285 0.002960205 6.345642 0.005432129 10.122772 0.0071411133l0.8423157 1.8310547E-4" fill-rule="evenodd"/><path fill="#002776" stroke="#002776" stroke-width="2.0" stroke-linecap="butt" d="m332.7211 405.2642l9.076874 -3.3015442l-9.0755005 -3.3053894z" fill-rule="evenodd"/><path fill="#000000" fill-opacity="0.0" d="m710.5906 401.83728c-18.70868 0 -28.062988 0.01574707 -37.41736 0.03149414c-9.354309 0.01574707 -18.70868 0.03149414 -37.417297 0.03149414" fill-rule="evenodd"/><path stroke="#002776" stroke-width="2.0" stroke-linejoin="round" stroke-linecap="butt" d="m710.5906 401.83728c-18.70868 0 -28.062988 0.01574707 -37.41736 0.03149414c-4.677185 0.007873535 -9.354309 0.01574707 -15.200806 0.021636963c-2.9232178 0.002960205 -6.138733 0.005432129 -9.792786 0.0071411133l-0.42370605 9.1552734E-5" fill-rule="evenodd"/><path fill="#002776" stroke="#002776" stroke-width="2.0" stroke-linecap="butt" d="m647.7552 398.59418l-9.0755005 3.3054504l9.076965 3.3014832z" fill-rule="evenodd"/></g></svg>