<svg version="1.1" viewBox="0.0 0.0 960.0 540.0" fill="none" stroke="none" stroke-linecap="square" stroke-miterlimit="10" xmlns:xlink="http://www.w3.org/1999/xlink" xmlns="http://www.w3.org/2000/svg"><clipPath id="g41cddbd8e1_0_90.0"><path d="m0 0l960.0 0l0 540.0l-960.0 0l0 -540.0z" clip-rule="nonzero"/></clipPath><g clip-path="url(#g41cddbd8e1_0_90.0)"><path fill="#ffffff" d="m0 0l960.0 0l0 540.0l-960.0 0z" fill-rule="evenodd"/><path fill="#7fc6e8" d="m133.44882 265.73227l0 0c0 -17.333893 14.214081 -31.385818 31.748032 -31.385818l0 0c8.420105 0 16.49533 3.306717 22.44925 9.192703c5.953903 5.8859863 9.298782 13.86908 9.298782 22.193115l0 0c0 17.333923 -14.214081 31.385834 -31.748032 31.385834l0 0c-17.53395 0 -31.748032 -14.05191 -31.748032 -31.385834z" fill-rule="evenodd"/><path stroke="#008ed2" stroke-width="4.0" stroke-linejoin="round" stroke-linecap="butt" d="m133.44882 265.73227l0 0c0 -17.333893 14.214081 -31.385818 31.748032 -31.385818l0 0c8.420105 0 16.49533 3.306717 22.44925 9.192703c5.953903 5.8859863 9.298782 13.86908 9.298782 22.193115l0 0c0 17.333923 -14.214081 31.385834 -31.748032 31.385834l0 0c-17.53395 0 -31.748032 -14.05191 -31.748032 -31.385834z" fill-rule="evenodd"/><path fill="#7fc6e8" d="m258.73227 265.73227l0 0c0 -17.333893 14.214081 -31.385818 31.748047 -31.385818l0 0c8.420105 0 16.49533 3.306717 22.44925 9.192703c5.9539185 5.8859863 9.298767 13.86908 9.298767 22.193115l0 0c0 17.333923 -14.21405 31.385834 -31.748016 31.385834l0 0c-17.533966 0 -31.748047 -14.05191 -31.748047 -31.385834z" fill-rule="evenodd"/><path stroke="#008ed2" stroke-width="4.0" stroke-linejoin="round" stroke-linecap="butt" d="m258.73227 265.73227l0 0c0 -17.333893 14.214081 -31.385818 31.748047 -31.385818l0 0c8.420105 0 16.49533 3.306717 22.44925 9.192703c5.9539185 5.8859863 9.298767 13.86908 9.298767 22.193115l0 0c0 17.333923 -14.21405 31.385834 -31.748016 31.385834l0 0c-17.533966 0 -31.748047 -14.05191 -31.748047 -31.385834z" fill-rule="evenodd"/><path fill="#000000" fill-opacity="0.0" d="m196.94489 265.73227l61.795258 0" fill-rule="evenodd"/><path stroke="#008ed2" stroke-width="24.0" stroke-linejoin="round" stroke-linecap="butt" d="m196.94489 265.73227l61.795258 0" fill-rule="evenodd"/><path fill="#000000" fill-opacity="0.0" d="m75.59055 266.4252l57.85827 -0.6929321" fill-rule="evenodd"/><path stroke="#008ed2" stroke-width="24.0" stroke-linejoin="round" stroke-linecap="butt" d="m75.59055 266.4252l57.85827 -0.6929321" fill-rule="evenodd"/></g></svg>