<svg version="1.1" viewBox="0.0 0.0 960.0 540.0" fill="none" stroke="none" stroke-linecap="square" stroke-miterlimit="10" xmlns:xlink="http://www.w3.org/1999/xlink" xmlns="http://www.w3.org/2000/svg"><clipPath id="g33fb8c01b2_1_16.0"><path d="m0 0l960.0 0l0 540.0l-960.0 0l0 -540.0z" clip-rule="nonzero"/></clipPath><g clip-path="url(#g33fb8c01b2_1_16.0)"><path fill="#ffffff" d="m0 0l960.0 0l0 540.0l-960.0 0z" fill-rule="evenodd"/><path fill="#ffffff" d="m422.18896 46.65644l0 0c0 -7.5610886 6.129486 -13.690563 13.690582 -13.690563l88.24094 0c3.6309204 0 7.113159 1.4423943 9.680664 4.0098763c2.567505 2.5674782 4.0098877 6.0497246 4.0098877 9.680687l0 54.760605c0 7.5610886 -6.1294556 13.690567 -13.690552 13.690567l-88.24094 0c-7.561096 0 -13.690582 -6.1294785 -13.690582 -13.690567z" fill-rule="evenodd"/><path stroke="#008ed2" stroke-width="2.0" stroke-linejoin="round" stroke-linecap="butt" d="m422.18896 46.65644l0 0c0 -7.5610886 6.129486 -13.690563 13.690582 -13.690563l88.24094 0c3.6309204 0 7.113159 1.4423943 9.680664 4.0098763c2.567505 2.5674782 4.0098877 6.0497246 4.0098877 9.680687l0 54.760605c0 7.5610886 -6.1294556 13.690567 -13.690552 13.690567l-88.24094 0c-7.561096 0 -13.690582 -6.1294785 -13.690582 -13.690567z" fill-rule="evenodd"/><path fill="#002776" d="m466.85938 72.701744q0 0.421875 -0.03125 0.6875q-0.015625 0.265625 -0.0625 0.421875q-0.046875 0.15625 -0.125 0.21875q-0.0625 0.046875 -0.1875 0.046875q-0.09375 0 -0.21875 -0.03125q-0.109375 -0.046875 -0.265625 -0.09375q-0.140625 -0.046875 -0.3125 -0.078125q-0.171875 -0.046875 -0.390625 -0.046875q-0.234375 0 -0.484375 0.09375q-0.25 0.09375 -0.515625 0.3125q-0.265625 0.203125 -0.546875 0.5625q-0.28125 0.34375 -0.609375 0.859375l0 6.515625q0 0.125 -0.078125 0.21875q-0.0625 0.078125 -0.234375 0.140625q-0.171875 0.0625 -0.453125 0.09375q-0.28125 0.03125 -0.71875 0.03125q-0.4375 0 -0.71875 -0.03125q-0.28125 -0.03125 -0.453125 -0.09375q-0.15625 -0.0625 -0.234375 -0.140625q-0.0625 -0.09375 -0.0625 -0.21875l0 -10.453125q0 -0.109375 0.046875 -0.1875q0.0625 -0.09375 0.21875 -0.15625q0.15625 -0.0625 0.390625 -0.09375q0.234375 -0.03125 0.609375 -0.03125q0.375 0 0.609375 0.03125q0.25 0.03125 0.375 0.09375q0.140625 0.0625 0.203125 0.15625q0.0625 0.078125 0.0625 0.1875l0 1.3125q0.40625 -0.59375 0.765625 -0.96875q0.375 -0.390625 0.703125 -0.609375q0.328125 -0.21875 0.65625 -0.296875q0.328125 -0.09375 0.65625 -0.09375q0.140625 0 0.3125 0.015625q0.1875 0.015625 0.375 0.0625q0.1875 0.03125 0.328125 0.09375q0.140625 0.046875 0.203125 0.109375q0.0625 0.046875 0.09375 0.125q0.03125 0.0625 0.046875 0.1875q0.03125 0.125 0.03125 0.375q0.015625 0.25 0.015625 0.671875zm12.390625 4.140625q0 1.34375 -0.359375 2.453125q-0.34375 1.09375 -1.0625 1.890625q-0.703125 0.796875 -1.78125 1.234375q-1.078125 0.421875 -2.53125 0.421875q-1.390625 0 -2.421875 -0.375q-1.03125 -0.390625 -1.71875 -1.125q-0.671875 -0.75 -1.0 -1.828125q-0.328125 -1.078125 -0.328125 -2.453125q0 -1.34375 0.359375 -2.453125q0.359375 -1.109375 1.0625 -1.890625q0.71875 -0.796875 1.796875 -1.21875q1.078125 -0.4375 2.515625 -0.4375q1.40625 0 2.4375 0.375q1.03125 0.375 1.703125 1.125q0.671875 0.734375 1.0 1.8125q0.328125 1.078125 0.328125 2.46875zm-3.03125 0.125q0 -0.78125 -0.125 -1.421875q-0.125 -0.65625 -0.421875 -1.140625q-0.28125 -0.484375 -0.78125 -0.75q-0.484375 -0.265625 -1.21875 -0.265625q-0.65625 0 -1.15625 0.25q-0.484375 0.234375 -0.796875 0.703125q-0.3125 0.453125 -0.484375 1.109375q-0.15625 0.640625 -0.15625 1.46875q0 0.78125 0.125 1.4375q0.140625 0.640625 0.421875 1.125q0.296875 0.484375 0.78125 0.75q0.5 0.25 1.21875 0.25q0.671875 0 1.15625 -0.234375q0.5 -0.234375 0.8125 -0.6875q0.3125 -0.46875 0.46875 -1.109375q0.15625 -0.65625 0.15625 -1.484375zm15.933594 -0.125q0 1.34375 -0.359375 2.453125q-0.34375 1.09375 -1.0625 1.890625q-0.703125 0.796875 -1.78125 1.234375q-1.078125 0.421875 -2.53125 0.421875q-1.390625 0 -2.421875 -0.375q-1.03125 -0.390625 -1.71875 -1.125q-0.671875 -0.75 -1.0 -1.828125q-0.328125 -1.078125 -0.328125 -2.453125q0 -1.34375 0.359375 -2.453125q0.359375 -1.109375 1.0625 -1.890625q0.71875 -0.796875 1.796875 -1.21875q1.078125 -0.4375 2.515625 -0.4375q1.40625 0 2.4375 0.375q1.03125 0.375 1.703125 1.125q0.671875 0.734375 1.0 1.8125q0.328125 1.078125 0.328125 2.46875zm-3.03125 0.125q0 -0.78125 -0.125 -1.421875q-0.125 -0.65625 -0.421875 -1.140625q-0.28125 -0.484375 -0.78125 -0.75q-0.484375 -0.265625 -1.21875 -0.265625q-0.65625 0 -1.15625 0.25q-0.484375 0.234375 -0.796875 0.703125q-0.3125 0.453125 -0.484375 1.109375q-0.15625 0.640625 -0.15625 1.46875q0 0.78125 0.125 1.4375q0.140625 0.640625 0.421875 1.125q0.296875 0.484375 0.78125 0.75q0.5 0.25 1.21875 0.25q0.671875 0 1.15625 -0.234375q0.5 -0.234375 0.8125 -0.6875q0.3125 -0.46875 0.46875 -1.109375q0.15625 -0.65625 0.15625 -1.484375zm11.558594 4.171875q0 0.515625 -0.078125 0.796875q-0.0625 0.28125 -0.171875 0.390625q-0.09375 0.109375 -0.296875 0.203125q-0.203125 0.078125 -0.484375 0.140625q-0.28125 0.078125 -0.609375 0.109375q-0.3125 0.03125 -0.640625 0.03125q-0.875 0 -1.53125 -0.234375q-0.640625 -0.21875 -1.0625 -0.671875q-0.421875 -0.46875 -0.625 -1.171875q-0.1875 -0.703125 -0.1875 -1.65625l0 -5.359375l-1.25 0q-0.234375 0 -0.359375 -0.265625q-0.109375 -0.28125 -0.109375 -0.9375q0 -0.328125 0.03125 -0.5625q0.03125 -0.234375 0.09375 -0.375q0.0625 -0.140625 0.140625 -0.1875q0.09375 -0.0625 0.203125 -0.0625l1.25 0l0 -2.328125q0 -0.125 0.0625 -0.21875q0.0625 -0.09375 0.234375 -0.15625q0.171875 -0.0625 0.453125 -0.09375q0.296875 -0.03125 0.71875 -0.03125q0.421875 0 0.703125 0.03125q0.296875 0.03125 0.453125 0.09375q0.171875 0.0625 0.234375 0.15625q0.078125 0.09375 0.078125 0.21875l0 2.328125l2.28125 0q0.109375 0 0.1875 0.0625q0.09375 0.046875 0.15625 0.1875q0.0625 0.140625 0.09375 0.375q0.03125 0.234375 0.03125 0.5625q0 0.65625 -0.125 0.9375q-0.109375 0.265625 -0.34375 0.265625l-2.28125 0l0 4.90625q0 0.859375 0.265625 1.296875q0.28125 0.421875 0.96875 0.421875q0.234375 0 0.421875 -0.046875q0.1875 -0.046875 0.328125 -0.09375q0.15625 -0.046875 0.25 -0.09375q0.09375 -0.046875 0.1875 -0.046875q0.0625 0 0.125 0.046875q0.0625 0.046875 0.09375 0.171875q0.046875 0.109375 0.078125 0.328125q0.03125 0.203125 0.03125 0.53125z" fill-rule="nonzero"/><path fill="#ffffff" d="m178.40945 202.66695l0 0c0 -7.561096 6.129471 -13.690567 13.690552 -13.690567l88.24094 0c3.630951 0 7.1131897 1.4423981 9.680695 4.0098724c2.5674744 2.5674744 4.009857 6.0497284 4.009857 9.680695l0 54.760605c0 7.561096 -6.129486 13.690552 -13.690552 13.690552l-88.24094 0c-7.561081 0 -13.690552 -6.1294556 -13.690552 -13.690552z" fill-rule="evenodd"/><path stroke="#008ed2" stroke-width="2.0" stroke-linejoin="round" stroke-linecap="butt" d="m178.40945 202.66695l0 0c0 -7.561096 6.129471 -13.690567 13.690552 -13.690567l88.24094 0c3.630951 0 7.1131897 1.4423981 9.680695 4.0098724c2.5674744 2.5674744 4.009857 6.0497284 4.009857 9.680695l0 54.760605c0 7.561096 -6.129486 13.690552 -13.690552 13.690552l-88.24094 0c-7.561081 0 -13.690552 -6.1294556 -13.690552 -13.690552z" fill-rule="evenodd"/><path fill="#002776" d="m223.02126 238.22787q0 0.15625 -0.125 0.25q-0.109375 0.09375 -0.375 0.140625q-0.25 0.046875 -0.734375 0.046875q-0.53125 0 -0.78125 -0.046875q-0.234375 -0.046875 -0.328125 -0.140625q-0.09375 -0.09375 -0.09375 -0.25l0 -0.84375q-0.65625 0.703125 -1.484375 1.09375q-0.8125 0.375 -1.828125 0.375q-0.828125 0 -1.53125 -0.21875q-0.6875 -0.21875 -1.203125 -0.640625q-0.515625 -0.421875 -0.796875 -1.046875q-0.28125 -0.640625 -0.28125 -1.484375q0 -0.921875 0.359375 -1.59375q0.359375 -0.671875 1.0625 -1.109375q0.71875 -0.4375 1.765625 -0.640625q1.0625 -0.21875 2.453125 -0.21875l1.015625 0l0 -0.640625q0 -0.484375 -0.09375 -0.859375q-0.09375 -0.375 -0.328125 -0.609375q-0.234375 -0.25 -0.609375 -0.359375q-0.375 -0.125 -0.9375 -0.125q-0.75 0 -1.328125 0.171875q-0.578125 0.15625 -1.03125 0.359375q-0.4375 0.1875 -0.734375 0.359375q-0.296875 0.15625 -0.484375 0.15625q-0.125 0 -0.234375 -0.078125q-0.09375 -0.078125 -0.15625 -0.234375q-0.0625 -0.15625 -0.109375 -0.375q-0.03125 -0.21875 -0.03125 -0.484375q0 -0.375 0.0625 -0.578125q0.0625 -0.21875 0.21875 -0.375q0.171875 -0.171875 0.578125 -0.375q0.40625 -0.21875 0.953125 -0.390625q0.5625 -0.171875 1.203125 -0.28125q0.65625 -0.109375 1.34375 -0.109375q1.234375 0 2.109375 0.234375q0.875 0.234375 1.4375 0.734375q0.5625 0.5 0.8125 1.296875q0.265625 0.78125 0.265625 1.859375l0 7.03125zm-2.90625 -4.484375l-1.125 0q-0.703125 0 -1.21875 0.109375q-0.5 0.109375 -0.8125 0.328125q-0.3125 0.203125 -0.46875 0.5q-0.140625 0.296875 -0.140625 0.6875q0 0.65625 0.40625 1.03125q0.421875 0.375 1.15625 0.375q0.625 0 1.140625 -0.3125q0.53125 -0.328125 1.0625 -0.9375l0 -1.78125zm16.363281 -0.9375q0 1.390625 -0.296875 2.515625q-0.296875 1.125 -0.875 1.90625q-0.578125 0.78125 -1.4375 1.203125q-0.84375 0.421875 -1.953125 0.421875q-0.453125 0 -0.84375 -0.09375q-0.375 -0.078125 -0.734375 -0.25q-0.34375 -0.1875 -0.703125 -0.453125q-0.34375 -0.28125 -0.71875 -0.640625l0 4.921875q0 0.125 -0.078125 0.21875q-0.0625 0.09375 -0.234375 0.15625q-0.171875 0.0625 -0.453125 0.09375q-0.28125 0.03125 -0.71875 0.03125q-0.4375 0 -0.71875 -0.03125q-0.28125 -0.03125 -0.453125 -0.09375q-0.15625 -0.0625 -0.234375 -0.15625q-0.0625 -0.09375 -0.0625 -0.21875l0 -14.609375q0 -0.109375 0.046875 -0.1875q0.0625 -0.09375 0.203125 -0.15625q0.15625 -0.0625 0.390625 -0.09375q0.25 -0.03125 0.609375 -0.03125q0.34375 0 0.578125 0.03125q0.25 0.03125 0.390625 0.09375q0.15625 0.0625 0.203125 0.15625q0.0625 0.078125 0.0625 0.1875l0 1.234375q0.46875 -0.46875 0.90625 -0.828125q0.4375 -0.359375 0.890625 -0.59375q0.453125 -0.234375 0.9375 -0.34375q0.5 -0.125 1.046875 -0.125q1.140625 0 1.953125 0.453125q0.8125 0.4375 1.3125 1.234375q0.515625 0.78125 0.75 1.828125q0.234375 1.03125 0.234375 2.21875zm-3.0625 0.21875q0 -0.671875 -0.109375 -1.28125q-0.09375 -0.625 -0.34375 -1.09375q-0.234375 -0.484375 -0.625 -0.765625q-0.390625 -0.296875 -0.984375 -0.296875q-0.28125 0 -0.578125 0.09375q-0.28125 0.078125 -0.578125 0.28125q-0.296875 0.203125 -0.625 0.515625q-0.3125 0.3125 -0.65625 0.78125l0 3.453125q0.609375 0.78125 1.171875 1.21875q0.5625 0.421875 1.171875 0.421875q0.578125 0 0.984375 -0.296875q0.40625 -0.296875 0.65625 -0.765625q0.265625 -0.484375 0.390625 -1.078125q0.125 -0.59375 0.125 -1.1875zm15.941406 -0.21875q0 1.390625 -0.296875 2.515625q-0.296875 1.125 -0.875 1.90625q-0.578125 0.78125 -1.4375 1.203125q-0.84375 0.421875 -1.953125 0.421875q-0.453125 0 -0.84375 -0.09375q-0.375 -0.078125 -0.734375 -0.25q-0.34375 -0.1875 -0.703125 -0.453125q-0.34375 -0.28125 -0.71875 -0.640625l0 4.921875q0 0.125 -0.078125 0.21875q-0.0625 0.09375 -0.234375 0.15625q-0.171875 0.0625 -0.453125 0.09375q-0.28125 0.03125 -0.71875 0.03125q-0.4375 0 -0.71875 -0.03125q-0.28125 -0.03125 -0.453125 -0.09375q-0.15625 -0.0625 -0.234375 -0.15625q-0.0625 -0.09375 -0.0625 -0.21875l0 -14.609375q0 -0.109375 0.046875 -0.1875q0.0625 -0.09375 0.203125 -0.15625q0.15625 -0.0625 0.390625 -0.09375q0.25 -0.03125 0.609375 -0.03125q0.34375 0 0.578125 0.03125q0.25 0.03125 0.390625 0.09375q0.15625 0.0625 0.203125 0.15625q0.0625 0.078125 0.0625 0.1875l0 1.234375q0.46875 -0.46875 0.90625 -0.828125q0.4375 -0.359375 0.890625 -0.59375q0.453125 -0.234375 0.9375 -0.34375q0.5 -0.125 1.046875 -0.125q1.140625 0 1.953125 0.453125q0.8125 0.4375 1.3125 1.234375q0.515625 0.78125 0.75 1.828125q0.234375 1.03125 0.234375 2.21875zm-3.0625 0.21875q0 -0.671875 -0.109375 -1.28125q-0.09375 -0.625 -0.34375 -1.09375q-0.234375 -0.484375 -0.625 -0.765625q-0.390625 -0.296875 -0.984375 -0.296875q-0.28125 0 -0.578125 0.09375q-0.28125 0.078125 -0.578125 0.28125q-0.296875 0.203125 -0.625 0.515625q-0.3125 0.3125 -0.65625 0.78125l0 3.453125q0.609375 0.78125 1.171875 1.21875q0.5625 0.421875 1.171875 0.421875q0.578125 0 0.984375 -0.296875q0.40625 -0.296875 0.65625 -0.765625q0.265625 -0.484375 0.390625 -1.078125q0.125 -0.59375 0.125 -1.1875zm12.785141 2.203125q0 0.890625 -0.34375 1.578125q-0.328125 0.671875 -0.9375 1.140625q-0.609375 0.453125 -1.453125 0.671875q-0.82810974 0.234375 -1.7968597 0.234375q-0.578125 0 -1.125 -0.09375q-0.53125 -0.078125 -0.953125 -0.203125q-0.421875 -0.140625 -0.703125 -0.28125q-0.28125 -0.140625 -0.40625 -0.265625q-0.125 -0.125 -0.203125 -0.390625q-0.0625 -0.265625 -0.0625 -0.78125q0 -0.34375 0.015625 -0.546875q0.03125 -0.203125 0.078125 -0.328125q0.046875 -0.125 0.109375 -0.15625q0.078125 -0.046875 0.1875 -0.046875q0.125 0 0.375 0.15625q0.25 0.140625 0.625 0.3125q0.375 0.171875 0.875 0.328125q0.5 0.15625 1.125 0.15625q0.40625 0 0.71875 -0.078125q0.3125 -0.09375 0.53125 -0.234375q0.234375 -0.15625 0.34373474 -0.390625q0.125 -0.234375 0.125 -0.546875q0 -0.34375 -0.21873474 -0.59375q-0.21875 -0.25 -0.578125 -0.4375q-0.359375 -0.1875 -0.8125 -0.34375q-0.4375 -0.171875 -0.921875 -0.375q-0.46875 -0.203125 -0.921875 -0.453125q-0.453125 -0.265625 -0.8125 -0.640625q-0.359375 -0.375 -0.578125 -0.890625q-0.203125 -0.53125 -0.203125 -1.28125q0 -0.75 0.28125 -1.375q0.296875 -0.625 0.84375 -1.0625q0.5625 -0.453125 1.34375 -0.6875q0.796875 -0.25 1.78125 -0.25q0.484375 0 0.95310974 0.078125q0.46875 0.0625 0.84375 0.171875q0.375 0.09375 0.625 0.21875q0.265625 0.125 0.375 0.21875q0.109375 0.078125 0.15625 0.171875q0.046875 0.078125 0.0625 0.203125q0.03125 0.125 0.046875 0.3125q0.015625 0.171875 0.015625 0.453125q0 0.3125 -0.015625 0.515625q-0.015625 0.1875 -0.0625 0.3125q-0.03125 0.109375 -0.109375 0.15625q-0.0625 0.046875 -0.15625 0.046875q-0.109375 0 -0.34375 -0.125q-0.21875 -0.125 -0.546875 -0.265625q-0.328125 -0.140625 -0.78125 -0.265625q-0.4375 -0.125 -0.99998474 -0.125q-0.390625 0 -0.6875 0.09375q-0.296875 0.078125 -0.484375 0.234375q-0.1875 0.140625 -0.28125 0.34375q-0.09375 0.203125 -0.09375 0.4375q0 0.375 0.21875 0.625q0.234375 0.234375 0.59375 0.421875q0.359375 0.1875 0.828125 0.359375q0.46873474 0.15625 0.93748474 0.359375q0.46875 0.1875 0.9375 0.453125q0.46875 0.25 0.828125 0.625q0.359375 0.375 0.578125 0.90625q0.234375 0.515625 0.234375 1.21875z" fill-rule="nonzero"/><path fill="#ffffff" d="m679.19684 202.66695l0 0c0 -7.561096 6.1294556 -13.690567 13.690552 -13.690567l88.24097 0c3.6309204 0 7.113159 1.4423981 9.680664 4.0098724c2.567505 2.5674744 4.0098877 6.0497284 4.0098877 9.680695l0 54.760605c0 7.561096 -6.1294556 13.690552 -13.690552 13.690552l-88.24097 0c-7.561096 0 -13.690552 -6.1294556 -13.690552 -13.690552z" fill-rule="evenodd"/><path stroke="#008ed2" stroke-width="2.0" stroke-linejoin="round" stroke-linecap="butt" d="m679.19684 202.66695l0 0c0 -7.561096 6.1294556 -13.690567 13.690552 -13.690567l88.24097 0c3.6309204 0 7.113159 1.4423981 9.680664 4.0098724c2.567505 2.5674744 4.0098877 6.0497284 4.0098877 9.680695l0 54.760605c0 7.561096 -6.1294556 13.690552 -13.690552 13.690552l-88.24097 0c-7.561096 0 -13.690552 -6.1294556 -13.690552 -13.690552z" fill-rule="evenodd"/><path fill="#002776" d="m724.3243 238.181q0 0.125 -0.078125 0.21875q-0.0625 0.078125 -0.234375 0.140625q-0.171875 0.0625 -0.453125 0.09375q-0.28125 0.03125 -0.71875 0.03125q-0.4375 0 -0.71875 -0.03125q-0.28125 -0.03125 -0.453125 -0.09375q-0.15625 -0.0625 -0.234375 -0.140625q-0.0625 -0.09375 -0.0625 -0.21875l0 -15.40625q0 -0.109375 0.0625 -0.203125q0.078125 -0.09375 0.234375 -0.15625q0.171875 -0.078125 0.453125 -0.109375q0.28125 -0.03125 0.71875 -0.03125q0.4375 0 0.71875 0.03125q0.28125 0.03125 0.453125 0.109375q0.171875 0.0625 0.234375 0.15625q0.078125 0.09375 0.078125 0.203125l0 15.40625zm5.8945312 0q0 0.125 -0.078125 0.21875q-0.0625 0.078125 -0.234375 0.140625q-0.171875 0.0625 -0.453125 0.09375q-0.28125 0.03125 -0.71875 0.03125q-0.4375 0 -0.71875 -0.03125q-0.28125 -0.03125 -0.453125 -0.09375q-0.15625 -0.0625 -0.234375 -0.140625q-0.0625 -0.09375 -0.0625 -0.21875l0 -10.421875q0 -0.125 0.0625 -0.203125q0.078125 -0.09375 0.234375 -0.15625q0.171875 -0.0625 0.453125 -0.09375q0.28125 -0.046875 0.71875 -0.046875q0.4375 0 0.71875 0.046875q0.28125 0.03125 0.453125 0.09375q0.171875 0.0625 0.234375 0.15625q0.078125 0.078125 0.078125 0.203125l0 10.421875zm0.21875 -13.984375q0 0.890625 -0.375 1.234375q-0.359375 0.328125 -1.34375 0.328125q-0.984375 0 -1.34375 -0.328125q-0.34375 -0.328125 -0.34375 -1.171875q0 -0.890625 0.359375 -1.234375q0.359375 -0.359375 1.359375 -0.359375q0.984375 0 1.328125 0.34375q0.359375 0.328125 0.359375 1.1875zm13.238281 8.625q0 1.390625 -0.3125 2.515625q-0.296875 1.109375 -0.875 1.890625q-0.5625 0.78125 -1.40625 1.203125q-0.84375 0.421875 -1.90625 0.421875q-0.53125 0 -0.984375 -0.09375q-0.453125 -0.09375 -0.875 -0.3125q-0.40625 -0.234375 -0.8125 -0.578125q-0.40625 -0.34375 -0.828125 -0.8125l0 1.125q0 0.140625 -0.0625 0.234375q-0.0625 0.078125 -0.21875 0.140625q-0.140625 0.0625 -0.390625 0.078125q-0.25 0.03125 -0.59375 0.03125q-0.359375 0 -0.609375 -0.03125q-0.234375 -0.015625 -0.390625 -0.078125q-0.140625 -0.0625 -0.203125 -0.140625q-0.046875 -0.09375 -0.046875 -0.234375l0 -15.40625q0 -0.109375 0.0625 -0.203125q0.078125 -0.09375 0.234375 -0.15625q0.171875 -0.078125 0.453125 -0.109375q0.28125 -0.03125 0.71875 -0.03125q0.4375 0 0.71875 0.03125q0.28125 0.03125 0.453125 0.109375q0.171875 0.0625 0.234375 0.15625q0.078125 0.09375 0.078125 0.203125l0 5.78125q0.390625 -0.40625 0.78125 -0.6875q0.40625 -0.28125 0.796875 -0.453125q0.40625 -0.1875 0.828125 -0.265625q0.421875 -0.078125 0.890625 -0.078125q1.15625 0 1.96875 0.46875q0.8125 0.453125 1.3125 1.234375q0.515625 0.78125 0.75 1.84375q0.234375 1.046875 0.234375 2.203125zm-3.0625 0.203125q0 -0.65625 -0.09375 -1.28125q-0.09375 -0.625 -0.34375 -1.09375q-0.25 -0.484375 -0.640625 -0.765625q-0.390625 -0.296875 -0.984375 -0.296875q-0.296875 0 -0.578125 0.078125q-0.28125 0.078125 -0.578125 0.28125q-0.296875 0.203125 -0.625 0.515625q-0.3125 0.3125 -0.65625 0.78125l0 3.46875q0.609375 0.796875 1.171875 1.21875q0.578125 0.421875 1.203125 0.421875q0.578125 0 0.96875 -0.296875q0.40625 -0.296875 0.65625 -0.765625q0.265625 -0.46875 0.375 -1.0625q0.125 -0.59375 0.125 -1.203125zm12.785156 2.203125q0 0.890625 -0.34375 1.578125q-0.328125 0.671875 -0.9375 1.140625q-0.609375 0.453125 -1.453125 0.671875q-0.828125 0.234375 -1.796875 0.234375q-0.578125 0 -1.125 -0.09375q-0.53125 -0.078125 -0.953125 -0.203125q-0.421875 -0.140625 -0.703125 -0.28125q-0.28125 -0.140625 -0.40625 -0.265625q-0.125 -0.125 -0.203125 -0.390625q-0.0625 -0.265625 -0.0625 -0.78125q0 -0.34375 0.015625 -0.546875q0.03125 -0.203125 0.078125 -0.328125q0.046875 -0.125 0.109375 -0.15625q0.078125 -0.046875 0.1875 -0.046875q0.125 0 0.375 0.15625q0.25 0.140625 0.625 0.3125q0.375 0.171875 0.875 0.328125q0.5 0.15625 1.125 0.15625q0.40625 0 0.71875 -0.078125q0.3125 -0.09375 0.53125 -0.234375q0.234375 -0.15625 0.34375 -0.390625q0.125 -0.234375 0.125 -0.546875q0 -0.34375 -0.21875 -0.59375q-0.21875 -0.25 -0.578125 -0.4375q-0.359375 -0.1875 -0.8125 -0.34375q-0.4375 -0.171875 -0.921875 -0.375q-0.46875 -0.203125 -0.921875 -0.453125q-0.453125 -0.265625 -0.8125 -0.640625q-0.359375 -0.375 -0.578125 -0.890625q-0.203125 -0.53125 -0.203125 -1.28125q0 -0.75 0.28125 -1.375q0.296875 -0.625 0.84375 -1.0625q0.5625 -0.453125 1.34375 -0.6875q0.796875 -0.25 1.78125 -0.25q0.484375 0 0.953125 0.078125q0.46875 0.0625 0.84375 0.171875q0.375 0.09375 0.625 0.21875q0.265625 0.125 0.375 0.21875q0.109375 0.078125 0.15625 0.171875q0.046875 0.078125 0.0625 0.203125q0.03125 0.125 0.046875 0.3125q0.015625 0.171875 0.015625 0.453125q0 0.3125 -0.015625 0.515625q-0.015625 0.1875 -0.0625 0.3125q-0.03125 0.109375 -0.109375 0.15625q-0.0625 0.046875 -0.15625 0.046875q-0.109375 0 -0.34375 -0.125q-0.21875 -0.125 -0.546875 -0.265625q-0.328125 -0.140625 -0.78125 -0.265625q-0.4375 -0.125 -1.0 -0.125q-0.390625 0 -0.6875 0.09375q-0.296875 0.078125 -0.484375 0.234375q-0.1875 0.140625 -0.28125 0.34375q-0.09375 0.203125 -0.09375 0.4375q0 0.375 0.21875 0.625q0.234375 0.234375 0.59375 0.421875q0.359375 0.1875 0.828125 0.359375q0.46875 0.15625 0.9375 0.359375q0.46875 0.1875 0.9375 0.453125q0.46875 0.25 0.828125 0.625q0.359375 0.375 0.578125 0.90625q0.234375 0.515625 0.234375 1.21875z" fill-rule="nonzero"/><path fill="#ffffff" d="m62.787403 377.95828l0 0c0 -7.561096 6.1294746 -13.690552 13.690563 -13.690552l88.24092 0c3.6309662 0 7.113205 1.4423828 9.680695 4.009857c2.5674744 2.5674744 4.0098724 6.049713 4.0098724 9.680695l0 54.76059c0 7.561096 -6.129486 13.690582 -13.690567 13.690582l-88.24092 0c-7.5610886 0 -13.690563 -6.129486 -13.690563 -13.690582z" fill-rule="evenodd"/><path stroke="#008ed2" stroke-width="2.0" stroke-linejoin="round" stroke-linecap="butt" d="m62.787403 377.95828l0 0c0 -7.561096 6.1294746 -13.690552 13.690563 -13.690552l88.24092 0c3.6309662 0 7.113205 1.4423828 9.680695 4.009857c2.5674744 2.5674744 4.0098724 6.049713 4.0098724 9.680695l0 54.76059c0 7.561096 -6.129486 13.690582 -13.690567 13.690582l-88.24092 0c-7.5610886 0 -13.690563 -6.129486 -13.690563 -13.690582z" fill-rule="evenodd"/><path fill="#002776" d="m106.10429 413.5192q0 0.15625 -0.125 0.25q-0.109375 0.09375 -0.375 0.140625q-0.25 0.046875 -0.734375 0.046875q-0.53125 0 -0.78125 -0.046875q-0.234375 -0.046875 -0.328125 -0.140625q-0.09375 -0.09375 -0.09375 -0.25l0 -0.84375q-0.65625 0.703125 -1.484375 1.09375q-0.8125 0.375 -1.828125 0.375q-0.828125 0 -1.53125 -0.21875q-0.6875 -0.21875 -1.203125 -0.640625q-0.515625 -0.421875 -0.796875 -1.046875q-0.28125 -0.640625 -0.28125 -1.484375q0 -0.921875 0.359375 -1.59375q0.359375 -0.671875 1.0625 -1.109375q0.71875 -0.4375 1.765625 -0.640625q1.0625 -0.21875 2.453125 -0.21875l1.015625 0l0 -0.640625q0 -0.484375 -0.09375 -0.859375q-0.09375 -0.375 -0.328125 -0.609375q-0.234375 -0.25 -0.609375 -0.359375q-0.375 -0.125 -0.9375 -0.125q-0.75 0 -1.328125 0.171875q-0.578125 0.15625 -1.03125 0.359375q-0.4375 0.1875 -0.734375 0.359375q-0.296875 0.15625 -0.484375 0.15625q-0.125 0 -0.234375 -0.078125q-0.09375 -0.078125 -0.15625 -0.234375q-0.0625 -0.15625 -0.109375 -0.375q-0.03125 -0.21875 -0.03125 -0.484375q0 -0.375 0.0625 -0.578125q0.0625 -0.21875 0.21875 -0.375q0.171875 -0.171875 0.578125 -0.375q0.40625 -0.21875 0.953125 -0.390625q0.5625 -0.171875 1.203125 -0.28125q0.65625 -0.109375 1.34375 -0.109375q1.234375 0 2.109375 0.234375q0.875 0.234375 1.4375 0.734375q0.5625 0.5 0.8125 1.296875q0.265625 0.78125 0.265625 1.859375l0 7.03125zm-2.90625 -4.484375l-1.125 0q-0.703125 0 -1.21875 0.109375q-0.5 0.109375 -0.8125 0.328125q-0.3125 0.203125 -0.46875 0.5q-0.140625 0.296875 -0.140625 0.6875q0 0.65625 0.40625 1.03125q0.421875 0.375 1.15625 0.375q0.625 0 1.140625 -0.3125q0.53125 -0.328125 1.0625 -0.9375l0 -1.78125zm16.363281 -0.9375q0 1.390625 -0.296875 2.515625q-0.296875 1.125 -0.875 1.90625q-0.578125 0.78125 -1.4375 1.203125q-0.84375 0.421875 -1.953125 0.421875q-0.453125 0 -0.84375 -0.09375q-0.375 -0.078125 -0.734375 -0.25q-0.34375 -0.1875 -0.703125 -0.453125q-0.34375 -0.28125 -0.71875 -0.640625l0 4.921875q0 0.125 -0.078125 0.21875q-0.0625 0.09375 -0.234375 0.15625q-0.171875 0.0625 -0.453125 0.09375q-0.28125 0.03125 -0.71875 0.03125q-0.4375 0 -0.71875 -0.03125q-0.28125 -0.03125 -0.453125 -0.09375q-0.15625 -0.0625 -0.234375 -0.15625q-0.0625 -0.09375 -0.0625 -0.21875l0 -14.609375q0 -0.109375 0.046875 -0.1875q0.0625 -0.09375 0.203125 -0.15625q0.15625 -0.0625 0.390625 -0.09375q0.25 -0.03125 0.609375 -0.03125q0.34375 0 0.578125 0.03125q0.25 0.03125 0.390625 0.09375q0.15625 0.0625 0.203125 0.15625q0.0625 0.078125 0.0625 0.1875l0 1.234375q0.46875 -0.46875 0.90625 -0.828125q0.4375 -0.359375 0.890625 -0.59375q0.453125 -0.234375 0.9375 -0.34375q0.5 -0.125 1.046875 -0.125q1.140625 0 1.953125 0.453125q0.8125 0.4375 1.3125 1.234375q0.515625 0.78125 0.75 1.828125q0.234375 1.03125 0.234375 2.21875zm-3.0625 0.21875q0 -0.671875 -0.109375 -1.28125q-0.09375 -0.625 -0.34375 -1.09375q-0.234375 -0.484375 -0.625 -0.765625q-0.390625 -0.296875 -0.984375 -0.296875q-0.28125 0 -0.578125 0.09375q-0.28125 0.078125 -0.578125 0.28125q-0.296875 0.203125 -0.625 0.515625q-0.3125 0.3125 -0.65625 0.78125l0 3.453125q0.609375 0.78125 1.171875 1.21875q0.5625 0.421875 1.171875 0.421875q0.578125 0 0.984375 -0.296875q0.40625 -0.296875 0.65625 -0.765625q0.265625 -0.484375 0.390625 -1.078125q0.125 -0.59375 0.125 -1.1875zm15.941399 -0.21875q0 1.390625 -0.296875 2.515625q-0.296875 1.125 -0.875 1.90625q-0.578125 0.78125 -1.4375 1.203125q-0.84375 0.421875 -1.9531174 0.421875q-0.453125 0 -0.84375 -0.09375q-0.375 -0.078125 -0.734375 -0.25q-0.34375 -0.1875 -0.703125 -0.453125q-0.34375 -0.28125 -0.71875 -0.640625l0 4.921875q0 0.125 -0.078125 0.21875q-0.0625 0.09375 -0.234375 0.15625q-0.171875 0.0625 -0.453125 0.09375q-0.28125 0.03125 -0.71875 0.03125q-0.4375 0 -0.71875 -0.03125q-0.28125 -0.03125 -0.453125 -0.09375q-0.15625 -0.0625 -0.234375 -0.15625q-0.0625 -0.09375 -0.0625 -0.21875l0 -14.609375q0 -0.109375 0.046875 -0.1875q0.0625 -0.09375 0.203125 -0.15625q0.15625 -0.0625 0.390625 -0.09375q0.25 -0.03125 0.609375 -0.03125q0.34375 0 0.578125 0.03125q0.25 0.03125 0.390625 0.09375q0.15625 0.0625 0.203125 0.15625q0.0625 0.078125 0.0625 0.1875l0 1.234375q0.46875 -0.46875 0.90625 -0.828125q0.4375 -0.359375 0.890625 -0.59375q0.453125 -0.234375 0.9375 -0.34375q0.5 -0.125 1.0468674 -0.125q1.140625 0 1.953125 0.453125q0.8125 0.4375 1.3125 1.234375q0.515625 0.78125 0.75 1.828125q0.234375 1.03125 0.234375 2.21875zm-3.0625 0.21875q0 -0.671875 -0.109375 -1.28125q-0.09375 -0.625 -0.34375 -1.09375q-0.234375 -0.484375 -0.625 -0.765625q-0.39061737 -0.296875 -0.9843674 -0.296875q-0.28125 0 -0.578125 0.09375q-0.28125 0.078125 -0.578125 0.28125q-0.296875 0.203125 -0.625 0.515625q-0.3125 0.3125 -0.65625 0.78125l0 3.453125q0.609375 0.78125 1.171875 1.21875q0.5625 0.421875 1.171875 0.421875q0.578125 0 0.9843674 -0.296875q0.40625 -0.296875 0.65625 -0.765625q0.265625 -0.484375 0.390625 -1.078125q0.125 -0.59375 0.125 -1.1875zm15.003906 4.390625q0 0.328125 -0.03125 0.5625q-0.03125 0.21875 -0.109375 0.359375q-0.0625 0.125 -0.140625 0.1875q-0.078125 0.0625 -0.1875 0.0625l-8.359375 0q-0.09375 0 -0.1875 -0.0625q-0.078125 -0.0625 -0.140625 -0.1875q-0.0625 -0.140625 -0.109375 -0.359375q-0.03125 -0.234375 -0.03125 -0.5625q0 -0.34375 0.03125 -0.5625q0.03125 -0.234375 0.09375 -0.375q0.0625 -0.140625 0.140625 -0.203125q0.09375 -0.0625 0.203125 -0.0625l2.8125 0l0 -9.875l-2.4375 1.34375q-0.265625 0.140625 -0.4375 0.171875q-0.171875 0.015625 -0.265625 -0.078125q-0.09375 -0.09375 -0.140625 -0.34375q-0.03125 -0.25 -0.03125 -0.6875q0 -0.28125 0.015625 -0.46875q0.015625 -0.1875 0.0625 -0.3125q0.046875 -0.125 0.125 -0.203125q0.078125 -0.09375 0.21875 -0.1875l3.265625 -2.109375q0.046875 -0.046875 0.140625 -0.0625q0.09375 -0.03125 0.234375 -0.046875q0.140625 -0.03125 0.359375 -0.03125q0.234375 0 0.59375 0q0.453125 0 0.71875 0.015625q0.28125 0.015625 0.421875 0.0625q0.140625 0.03125 0.1875 0.109375q0.046875 0.0625 0.046875 0.171875l0 12.53125l2.46875 0q0.109375 0 0.1875 0.0625q0.09375 0.0625 0.15625 0.203125q0.0625 0.140625 0.09375 0.375q0.03125 0.21875 0.03125 0.5625z" fill-rule="nonzero"/><path fill="#ffffff" d="m794.8189 377.95828l0 0c0 -7.561096 6.1294556 -13.690552 13.690552 -13.690552l88.240906 0c3.6309814 0 7.11322 1.4423828 9.680725 4.009857c2.5674438 2.5674744 4.0098267 6.049713 4.0098267 9.680695l0 54.76059c0 7.561096 -6.1294556 13.690582 -13.690552 13.690582l-88.240906 0c-7.561096 0 -13.690552 -6.129486 -13.690552 -13.690582z" fill-rule="evenodd"/><path stroke="#008ed2" stroke-width="2.0" stroke-linejoin="round" stroke-linecap="butt" d="m794.8189 377.95828l0 0c0 -7.561096 6.1294556 -13.690552 13.690552 -13.690552l88.240906 0c3.6309814 0 7.11322 1.4423828 9.680725 4.009857c2.5674438 2.5674744 4.0098267 6.049713 4.0098267 9.680695l0 54.76059c0 7.561096 -6.1294556 13.690582 -13.690552 13.690582l-88.240906 0c-7.561096 0 -13.690552 -6.129486 -13.690552 -13.690582z" fill-rule="evenodd"/><path fill="#002776" d="m838.6514 413.47232q0 0.125 -0.078125 0.21875q-0.0625 0.078125 -0.234375 0.140625q-0.171875 0.0625 -0.453125 0.09375q-0.28125 0.03125 -0.71875 0.03125q-0.4375 0 -0.71875 -0.03125q-0.28125 -0.03125 -0.453125 -0.09375q-0.15625 -0.0625 -0.234375 -0.140625q-0.0625 -0.09375 -0.0625 -0.21875l0 -15.40625q0 -0.109375 0.0625 -0.203125q0.078125 -0.09375 0.234375 -0.15625q0.171875 -0.078125 0.453125 -0.109375q0.28125 -0.03125 0.71875 -0.03125q0.4375 0 0.71875 0.03125q0.28125 0.03125 0.453125 0.109375q0.171875 0.0625 0.234375 0.15625q0.078125 0.09375 0.078125 0.203125l0 15.40625zm5.8945312 0q0 0.125 -0.078125 0.21875q-0.0625 0.078125 -0.234375 0.140625q-0.171875 0.0625 -0.453125 0.09375q-0.28125 0.03125 -0.71875 0.03125q-0.4375 0 -0.71875 -0.03125q-0.28125 -0.03125 -0.453125 -0.09375q-0.15625 -0.0625 -0.234375 -0.140625q-0.0625 -0.09375 -0.0625 -0.21875l0 -10.421875q0 -0.125 0.0625 -0.203125q0.078125 -0.09375 0.234375 -0.15625q0.171875 -0.0625 0.453125 -0.09375q0.28125 -0.046875 0.71875 -0.046875q0.4375 0 0.71875 0.046875q0.28125 0.03125 0.453125 0.09375q0.171875 0.0625 0.234375 0.15625q0.078125 0.078125 0.078125 0.203125l0 10.421875zm0.21875 -13.984375q0 0.890625 -0.375 1.234375q-0.359375 0.328125 -1.34375 0.328125q-0.984375 0 -1.34375 -0.328125q-0.34375 -0.328125 -0.34375 -1.171875q0 -0.890625 0.359375 -1.234375q0.359375 -0.359375 1.359375 -0.359375q0.984375 0 1.328125 0.34375q0.359375 0.328125 0.359375 1.1875zm13.238281 8.625q0 1.390625 -0.3125 2.515625q-0.296875 1.109375 -0.875 1.890625q-0.5625 0.78125 -1.40625 1.203125q-0.84375 0.421875 -1.90625 0.421875q-0.53125 0 -0.984375 -0.09375q-0.453125 -0.09375 -0.875 -0.3125q-0.40625 -0.234375 -0.8125 -0.578125q-0.40625 -0.34375 -0.828125 -0.8125l0 1.125q0 0.140625 -0.0625 0.234375q-0.0625 0.078125 -0.21875 0.140625q-0.140625 0.0625 -0.390625 0.078125q-0.25 0.03125 -0.59375 0.03125q-0.359375 0 -0.609375 -0.03125q-0.234375 -0.015625 -0.390625 -0.078125q-0.140625 -0.0625 -0.203125 -0.140625q-0.046875 -0.09375 -0.046875 -0.234375l0 -15.40625q0 -0.109375 0.0625 -0.203125q0.078125 -0.09375 0.234375 -0.15625q0.171875 -0.078125 0.453125 -0.109375q0.28125 -0.03125 0.71875 -0.03125q0.4375 0 0.71875 0.03125q0.28125 0.03125 0.453125 0.109375q0.171875 0.0625 0.234375 0.15625q0.078125 0.09375 0.078125 0.203125l0 5.78125q0.390625 -0.40625 0.78125 -0.6875q0.40625 -0.28125 0.796875 -0.453125q0.40625 -0.1875 0.828125 -0.265625q0.421875 -0.078125 0.890625 -0.078125q1.15625 0 1.96875 0.46875q0.8125 0.453125 1.3125 1.234375q0.515625 0.78125 0.75 1.84375q0.234375 1.046875 0.234375 2.203125zm-3.0625 0.203125q0 -0.65625 -0.09375 -1.28125q-0.09375 -0.625 -0.34375 -1.09375q-0.25 -0.484375 -0.640625 -0.765625q-0.390625 -0.296875 -0.984375 -0.296875q-0.296875 0 -0.578125 0.078125q-0.28125 0.078125 -0.578125 0.28125q-0.296875 0.203125 -0.625 0.515625q-0.3125 0.3125 -0.65625 0.78125l0 3.46875q0.609375 0.796875 1.171875 1.21875q0.578125 0.421875 1.203125 0.421875q0.578125 0 0.96875 -0.296875q0.40625 -0.296875 0.65625 -0.765625q0.265625 -0.46875 0.375 -1.0625q0.125 -0.59375 0.125 -1.203125zm15.144531 4.3125q0 0.328125 -0.03125 0.578125q-0.03125 0.234375 -0.09375 0.390625q-0.046875 0.15625 -0.140625 0.21875q-0.09375 0.0625 -0.21875 0.0625l-8.71875 0q-0.25 0 -0.4375 -0.046875q-0.1875 -0.046875 -0.3125 -0.171875q-0.109375 -0.140625 -0.171875 -0.390625q-0.046875 -0.265625 -0.046875 -0.6875q0 -0.375 0.03125 -0.65625q0.046875 -0.28125 0.140625 -0.484375q0.09375 -0.21875 0.234375 -0.421875q0.140625 -0.21875 0.375 -0.453125l2.625 -2.8125q0.796875 -0.828125 1.265625 -1.5q0.484375 -0.671875 0.75 -1.21875q0.28125 -0.5625 0.375 -1.03125q0.09375 -0.46875 0.09375 -0.890625q0 -0.390625 -0.125 -0.734375q-0.109375 -0.34375 -0.359375 -0.59375q-0.234375 -0.265625 -0.609375 -0.40625q-0.359375 -0.15625 -0.84375 -0.15625q-0.6875 0 -1.234375 0.171875q-0.53125 0.171875 -0.9375 0.390625q-0.390625 0.21875 -0.671875 0.40625q-0.265625 0.171875 -0.421875 0.171875q-0.09375 0 -0.171875 -0.0625q-0.078125 -0.078125 -0.125 -0.234375q-0.046875 -0.171875 -0.078125 -0.4375q-0.03125 -0.28125 -0.03125 -0.671875q0 -0.28125 0.015625 -0.453125q0.015625 -0.1875 0.046875 -0.3125q0.046875 -0.140625 0.09375 -0.234375q0.0625 -0.109375 0.203125 -0.25q0.15625 -0.140625 0.546875 -0.359375q0.390625 -0.21875 0.96875 -0.421875q0.578125 -0.203125 1.265625 -0.34375q0.6875 -0.140625 1.4375 -0.140625q1.1875 0 2.0625 0.296875q0.890625 0.296875 1.46875 0.84375q0.59375 0.53125 0.875 1.265625q0.296875 0.71875 0.296875 1.5625q0 0.75 -0.140625 1.46875q-0.140625 0.703125 -0.59375 1.53125q-0.4375 0.828125 -1.25 1.828125q-0.796875 1.0 -2.140625 2.328125l-1.765625 1.8125l5.96875 0q0.125 0 0.21875 0.078125q0.109375 0.0625 0.171875 0.21875q0.078125 0.140625 0.109375 0.390625q0.03125 0.234375 0.03125 0.5625z" fill-rule="nonzero"/><path fill="#ffffff" d="m294.0315 377.95828l0 0c0 -7.561096 6.129486 -13.690552 13.690552 -13.690552l88.24094 0c3.630951 0 7.11322 1.4423828 9.680695 4.009857c2.5674744 2.5674744 4.009857 6.049713 4.009857 9.680695l0 54.76059c0 7.561096 -6.1294556 13.690582 -13.690552 13.690582l-88.24094 0c-7.5610657 0 -13.690552 -6.129486 -13.690552 -13.690582z" fill-rule="evenodd"/><path stroke="#008ed2" stroke-width="2.0" stroke-linejoin="round" stroke-linecap="butt" d="m294.0315 377.95828l0 0c0 -7.561096 6.129486 -13.690552 13.690552 -13.690552l88.24094 0c3.630951 0 7.11322 1.4423828 9.680695 4.009857c2.5674744 2.5674744 4.009857 6.049713 4.009857 9.680695l0 54.76059c0 7.561096 -6.1294556 13.690582 -13.690552 13.690582l-88.24094 0c-7.5610657 0 -13.690552 -6.129486 -13.690552 -13.690582z" fill-rule="evenodd"/><path fill="#002776" d="m337.3484 413.5192q0 0.15625 -0.125 0.25q-0.109375 0.09375 -0.375 0.140625q-0.25 0.046875 -0.734375 0.046875q-0.53125 0 -0.78125 -0.046875q-0.234375 -0.046875 -0.328125 -0.140625q-0.09375 -0.09375 -0.09375 -0.25l0 -0.84375q-0.65625 0.703125 -1.484375 1.09375q-0.8125 0.375 -1.828125 0.375q-0.828125 0 -1.53125 -0.21875q-0.6875 -0.21875 -1.203125 -0.640625q-0.515625 -0.421875 -0.796875 -1.046875q-0.28125 -0.640625 -0.28125 -1.484375q0 -0.921875 0.359375 -1.59375q0.359375 -0.671875 1.0625 -1.109375q0.71875 -0.4375 1.765625 -0.640625q1.0625 -0.21875 2.453125 -0.21875l1.015625 0l0 -0.640625q0 -0.484375 -0.09375 -0.859375q-0.09375 -0.375 -0.328125 -0.609375q-0.234375 -0.25 -0.609375 -0.359375q-0.375 -0.125 -0.9375 -0.125q-0.75 0 -1.328125 0.171875q-0.578125 0.15625 -1.03125 0.359375q-0.4375 0.1875 -0.734375 0.359375q-0.296875 0.15625 -0.484375 0.15625q-0.125 0 -0.234375 -0.078125q-0.09375 -0.078125 -0.15625 -0.234375q-0.0625 -0.15625 -0.109375 -0.375q-0.03125 -0.21875 -0.03125 -0.484375q0 -0.375 0.0625 -0.578125q0.0625 -0.21875 0.21875 -0.375q0.171875 -0.171875 0.578125 -0.375q0.40625 -0.21875 0.953125 -0.390625q0.5625 -0.171875 1.203125 -0.28125q0.65625 -0.109375 1.34375 -0.109375q1.234375 0 2.109375 0.234375q0.875 0.234375 1.4375 0.734375q0.5625 0.5 0.8125 1.296875q0.265625 0.78125 0.265625 1.859375l0 7.03125zm-2.90625 -4.484375l-1.125 0q-0.703125 0 -1.21875 0.109375q-0.5 0.109375 -0.8125 0.328125q-0.3125 0.203125 -0.46875 0.5q-0.140625 0.296875 -0.140625 0.6875q0 0.65625 0.40625 1.03125q0.421875 0.375 1.15625 0.375q0.625 0 1.140625 -0.3125q0.53125 -0.328125 1.0625 -0.9375l0 -1.78125zm16.363281 -0.9375q0 1.390625 -0.296875 2.515625q-0.296875 1.125 -0.875 1.90625q-0.578125 0.78125 -1.4375 1.203125q-0.84375 0.421875 -1.953125 0.421875q-0.453125 0 -0.84375 -0.09375q-0.375 -0.078125 -0.734375 -0.25q-0.34375 -0.1875 -0.703125 -0.453125q-0.34375 -0.28125 -0.71875 -0.640625l0 4.921875q0 0.125 -0.078125 0.21875q-0.0625 0.09375 -0.234375 0.15625q-0.171875 0.0625 -0.453125 0.09375q-0.28125 0.03125 -0.71875 0.03125q-0.4375 0 -0.71875 -0.03125q-0.28125 -0.03125 -0.453125 -0.09375q-0.15625 -0.0625 -0.234375 -0.15625q-0.0625 -0.09375 -0.0625 -0.21875l0 -14.609375q0 -0.109375 0.046875 -0.1875q0.0625 -0.09375 0.203125 -0.15625q0.15625 -0.0625 0.390625 -0.09375q0.25 -0.03125 0.609375 -0.03125q0.34375 0 0.578125 0.03125q0.25 0.03125 0.390625 0.09375q0.15625 0.0625 0.203125 0.15625q0.0625 0.078125 0.0625 0.1875l0 1.234375q0.46875 -0.46875 0.90625 -0.828125q0.4375 -0.359375 0.890625 -0.59375q0.453125 -0.234375 0.9375 -0.34375q0.5 -0.125 1.046875 -0.125q1.140625 0 1.953125 0.453125q0.8125 0.4375 1.3125 1.234375q0.515625 0.78125 0.75 1.828125q0.234375 1.03125 0.234375 2.21875zm-3.0625 0.21875q0 -0.671875 -0.109375 -1.28125q-0.09375 -0.625 -0.34375 -1.09375q-0.234375 -0.484375 -0.625 -0.765625q-0.390625 -0.296875 -0.984375 -0.296875q-0.28125 0 -0.578125 0.09375q-0.28125 0.078125 -0.578125 0.28125q-0.296875 0.203125 -0.625 0.515625q-0.3125 0.3125 -0.65625 0.78125l0 3.453125q0.609375 0.78125 1.171875 1.21875q0.5625 0.421875 1.171875 0.421875q0.578125 0 0.984375 -0.296875q0.40625 -0.296875 0.65625 -0.765625q0.265625 -0.484375 0.390625 -1.078125q0.125 -0.59375 0.125 -1.1875zm15.941406 -0.21875q0 1.390625 -0.296875 2.515625q-0.296875 1.125 -0.875 1.90625q-0.578125 0.78125 -1.4375 1.203125q-0.84375 0.421875 -1.953125 0.421875q-0.453125 0 -0.84375 -0.09375q-0.375 -0.078125 -0.734375 -0.25q-0.34375 -0.1875 -0.703125 -0.453125q-0.34375 -0.28125 -0.71875 -0.640625l0 4.921875q0 0.125 -0.078125 0.21875q-0.0625 0.09375 -0.234375 0.15625q-0.171875 0.0625 -0.453125 0.09375q-0.28125 0.03125 -0.71875 0.03125q-0.4375 0 -0.71875 -0.03125q-0.28125 -0.03125 -0.453125 -0.09375q-0.15625 -0.0625 -0.234375 -0.15625q-0.0625 -0.09375 -0.0625 -0.21875l0 -14.609375q0 -0.109375 0.046875 -0.1875q0.0625 -0.09375 0.203125 -0.15625q0.15625 -0.0625 0.390625 -0.09375q0.25 -0.03125 0.609375 -0.03125q0.34375 0 0.578125 0.03125q0.25 0.03125 0.390625 0.09375q0.15625 0.0625 0.203125 0.15625q0.0625 0.078125 0.0625 0.1875l0 1.234375q0.46875 -0.46875 0.90625 -0.828125q0.4375 -0.359375 0.890625 -0.59375q0.453125 -0.234375 0.9375 -0.34375q0.5 -0.125 1.046875 -0.125q1.140625 0 1.953125 0.453125q0.8125 0.4375 1.3125 1.234375q0.515625 0.78125 0.75 1.828125q0.234375 1.03125 0.234375 2.21875zm-3.0625 0.21875q0 -0.671875 -0.109375 -1.28125q-0.09375 -0.625 -0.34375 -1.09375q-0.234375 -0.484375 -0.625 -0.765625q-0.390625 -0.296875 -0.984375 -0.296875q-0.28125 0 -0.578125 0.09375q-0.28125 0.078125 -0.578125 0.28125q-0.296875 0.203125 -0.625 0.515625q-0.3125 0.3125 -0.65625 0.78125l0 3.453125q0.609375 0.78125 1.171875 1.21875q0.5625 0.421875 1.171875 0.421875q0.578125 0 0.984375 -0.296875q0.40625 -0.296875 0.65625 -0.765625q0.265625 -0.484375 0.390625 -1.078125q0.125 -0.59375 0.125 -1.1875zm15.144531 4.3125q0 0.328125 -0.03125 0.578125q-0.03125 0.234375 -0.09375 0.390625q-0.046875 0.15625 -0.140625 0.21875q-0.09375 0.0625 -0.21875 0.0625l-8.71875 0q-0.25 0 -0.4375 -0.046875q-0.1875 -0.046875 -0.3125 -0.171875q-0.109375 -0.140625 -0.171875 -0.390625q-0.046875 -0.265625 -0.046875 -0.6875q0 -0.375 0.03125 -0.65625q0.046875 -0.28125 0.140625 -0.484375q0.09375 -0.21875 0.234375 -0.421875q0.140625 -0.21875 0.375 -0.453125l2.625 -2.8125q0.796875 -0.828125 1.265625 -1.5q0.484375 -0.671875 0.75 -1.21875q0.28125 -0.5625 0.375 -1.03125q0.09375 -0.46875 0.09375 -0.890625q0 -0.390625 -0.125 -0.734375q-0.109375 -0.34375 -0.359375 -0.59375q-0.234375 -0.265625 -0.609375 -0.40625q-0.359375 -0.15625 -0.84375 -0.15625q-0.6875 0 -1.234375 0.171875q-0.53125 0.171875 -0.9375 0.390625q-0.390625 0.21875 -0.671875 0.40625q-0.265625 0.171875 -0.421875 0.171875q-0.09375 0 -0.171875 -0.0625q-0.078125 -0.078125 -0.125 -0.234375q-0.046875 -0.171875 -0.078125 -0.4375q-0.03125 -0.28125 -0.03125 -0.671875q0 -0.28125 0.015625 -0.453125q0.015625 -0.1875 0.046875 -0.3125q0.046875 -0.140625 0.09375 -0.234375q0.0625 -0.109375 0.203125 -0.25q0.15625 -0.140625 0.546875 -0.359375q0.390625 -0.21875 0.96875 -0.421875q0.578125 -0.203125 1.265625 -0.34375q0.6875 -0.140625 1.4375 -0.140625q1.1875 0 2.0625 0.296875q0.890625 0.296875 1.46875 0.84375q0.59375 0.53125 0.875 1.265625q0.296875 0.71875 0.296875 1.5625q0 0.75 -0.140625 1.46875q-0.140625 0.703125 -0.59375 1.53125q-0.4375 0.828125 -1.25 1.828125q-0.796875 1.0 -2.140625 2.328125l-1.765625 1.8125l5.96875 0q0.125 0 0.21875 0.078125q0.109375 0.0625 0.171875 0.21875q0.078125 0.140625 0.109375 0.390625q0.03125 0.234375 0.03125 0.5625z" fill-rule="nonzero"/><path fill="#ffffff" d="m563.5748 377.95828l0 0c0 -7.561096 6.1294556 -13.690552 13.690552 -13.690552l88.240906 0c3.6309814 0 7.11322 1.4423828 9.680664 4.009857c2.567505 2.5674744 4.0098877 6.049713 4.0098877 9.680695l0 54.76059c0 7.561096 -6.1294556 13.690582 -13.690552 13.690582l-88.240906 0c-7.561096 0 -13.690552 -6.129486 -13.690552 -13.690582z" fill-rule="evenodd"/><path stroke="#008ed2" stroke-width="2.0" stroke-linejoin="round" stroke-linecap="butt" d="m563.5748 377.95828l0 0c0 -7.561096 6.1294556 -13.690552 13.690552 -13.690552l88.240906 0c3.6309814 0 7.11322 1.4423828 9.680664 4.009857c2.567505 2.5674744 4.0098877 6.049713 4.0098877 9.680695l0 54.76059c0 7.561096 -6.1294556 13.690582 -13.690552 13.690582l-88.240906 0c-7.561096 0 -13.690552 -6.129486 -13.690552 -13.690582z" fill-rule="evenodd"/><path fill="#002776" d="m607.4073 413.47232q0 0.125 -0.078125 0.21875q-0.0625 0.078125 -0.234375 0.140625q-0.171875 0.0625 -0.453125 0.09375q-0.28125 0.03125 -0.71875 0.03125q-0.4375 0 -0.71875 -0.03125q-0.28125 -0.03125 -0.453125 -0.09375q-0.15625 -0.0625 -0.234375 -0.140625q-0.0625 -0.09375 -0.0625 -0.21875l0 -15.40625q0 -0.109375 0.0625 -0.203125q0.078125 -0.09375 0.234375 -0.15625q0.171875 -0.078125 0.453125 -0.109375q0.28125 -0.03125 0.71875 -0.03125q0.4375 0 0.71875 0.03125q0.28125 0.03125 0.453125 0.109375q0.171875 0.0625 0.234375 0.15625q0.078125 0.09375 0.078125 0.203125l0 15.40625zm5.8945312 0q0 0.125 -0.078125 0.21875q-0.0625 0.078125 -0.234375 0.140625q-0.171875 0.0625 -0.453125 0.09375q-0.28125 0.03125 -0.71875 0.03125q-0.4375 0 -0.71875 -0.03125q-0.28125 -0.03125 -0.453125 -0.09375q-0.15625 -0.0625 -0.234375 -0.140625q-0.0625 -0.09375 -0.0625 -0.21875l0 -10.421875q0 -0.125 0.0625 -0.203125q0.078125 -0.09375 0.234375 -0.15625q0.171875 -0.0625 0.453125 -0.09375q0.28125 -0.046875 0.71875 -0.046875q0.4375 0 0.71875 0.046875q0.28125 0.03125 0.453125 0.09375q0.171875 0.0625 0.234375 0.15625q0.078125 0.078125 0.078125 0.203125l0 10.421875zm0.21875 -13.984375q0 0.890625 -0.375 1.234375q-0.359375 0.328125 -1.34375 0.328125q-0.984375 0 -1.34375 -0.328125q-0.34375 -0.328125 -0.34375 -1.171875q0 -0.890625 0.359375 -1.234375q0.359375 -0.359375 1.359375 -0.359375q0.984375 0 1.328125 0.34375q0.359375 0.328125 0.359375 1.1875zm13.238281 8.625q0 1.390625 -0.3125 2.515625q-0.296875 1.109375 -0.875 1.890625q-0.5625 0.78125 -1.40625 1.203125q-0.84375 0.421875 -1.90625 0.421875q-0.53125 0 -0.984375 -0.09375q-0.453125 -0.09375 -0.875 -0.3125q-0.40625 -0.234375 -0.8125 -0.578125q-0.40625 -0.34375 -0.828125 -0.8125l0 1.125q0 0.140625 -0.0625 0.234375q-0.0625 0.078125 -0.21875 0.140625q-0.140625 0.0625 -0.390625 0.078125q-0.25 0.03125 -0.59375 0.03125q-0.359375 0 -0.609375 -0.03125q-0.234375 -0.015625 -0.390625 -0.078125q-0.140625 -0.0625 -0.203125 -0.140625q-0.046875 -0.09375 -0.046875 -0.234375l0 -15.40625q0 -0.109375 0.0625 -0.203125q0.078125 -0.09375 0.234375 -0.15625q0.171875 -0.078125 0.453125 -0.109375q0.28125 -0.03125 0.71875 -0.03125q0.4375 0 0.71875 0.03125q0.28125 0.03125 0.453125 0.109375q0.171875 0.0625 0.234375 0.15625q0.078125 0.09375 0.078125 0.203125l0 5.78125q0.390625 -0.40625 0.78125 -0.6875q0.40625 -0.28125 0.796875 -0.453125q0.40625 -0.1875 0.828125 -0.265625q0.421875 -0.078125 0.890625 -0.078125q1.15625 0 1.96875 0.46875q0.8125 0.453125 1.3125 1.234375q0.515625 0.78125 0.75 1.84375q0.234375 1.046875 0.234375 2.203125zm-3.0625 0.203125q0 -0.65625 -0.09375 -1.28125q-0.09375 -0.625 -0.34375 -1.09375q-0.25 -0.484375 -0.640625 -0.765625q-0.390625 -0.296875 -0.984375 -0.296875q-0.296875 0 -0.578125 0.078125q-0.28125 0.078125 -0.578125 0.28125q-0.296875 0.203125 -0.625 0.515625q-0.3125 0.3125 -0.65625 0.78125l0 3.46875q0.609375 0.796875 1.171875 1.21875q0.578125 0.421875 1.203125 0.421875q0.578125 0 0.96875 -0.296875q0.40625 -0.296875 0.65625 -0.765625q0.265625 -0.46875 0.375 -1.0625q0.125 -0.59375 0.125 -1.203125zm15.003906 4.390625q0 0.328125 -0.03125 0.5625q-0.03125 0.21875 -0.109375 0.359375q-0.0625 0.125 -0.140625 0.1875q-0.078125 0.0625 -0.1875 0.0625l-8.359375 0q-0.09375 0 -0.1875 -0.0625q-0.078125 -0.0625 -0.140625 -0.1875q-0.0625 -0.140625 -0.109375 -0.359375q-0.03125 -0.234375 -0.03125 -0.5625q0 -0.34375 0.03125 -0.5625q0.03125 -0.234375 0.09375 -0.375q0.0625 -0.140625 0.140625 -0.203125q0.09375 -0.0625 0.203125 -0.0625l2.8125 0l0 -9.875l-2.4375 1.34375q-0.265625 0.140625 -0.4375 0.171875q-0.171875 0.015625 -0.265625 -0.078125q-0.09375 -0.09375 -0.140625 -0.34375q-0.03125 -0.25 -0.03125 -0.6875q0 -0.28125 0.015625 -0.46875q0.015625 -0.1875 0.0625 -0.3125q0.046875 -0.125 0.125 -0.203125q0.078125 -0.09375 0.21875 -0.1875l3.265625 -2.109375q0.046875 -0.046875 0.140625 -0.0625q0.09375 -0.03125 0.234375 -0.046875q0.140625 -0.03125 0.359375 -0.03125q0.234375 0 0.59375 0q0.453125 0 0.71875 0.015625q0.28125 0.015625 0.421875 0.0625q0.140625 0.03125 0.1875 0.109375q0.046875 0.0625 0.046875 0.171875l0 12.53125l2.46875 0q0.109375 0 0.1875 0.0625q0.09375 0.0625 0.15625 0.203125q0.0625 0.140625 0.09375 0.375q0.03125 0.21875 0.03125 0.5625z" fill-rule="nonzero"/><path fill="#000000" fill-opacity="0.0" d="m236.22047 271.1181l-115.62205 93.165375" fill-rule="evenodd"/><path stroke="#002776" stroke-width="2.0" stroke-linejoin="round" stroke-linecap="butt" d="m236.22047 271.1181l-106.278 85.63617" fill-rule="evenodd"/><path fill="#002776" stroke="#002776" stroke-width="2.0" stroke-linecap="butt" d="m127.86977 354.18195l-4.9946594 8.267029l9.14006 -3.122406z" fill-rule="evenodd"/><path fill="#000000" fill-opacity="0.0" d="m236.22047 271.1181l115.622055 93.165375" fill-rule="evenodd"/><path stroke="#002776" stroke-width="2.0" stroke-linejoin="round" stroke-linecap="butt" d="m236.22047 271.1181l106.278 85.63617" fill-rule="evenodd"/><path fill="#002776" stroke="#002776" stroke-width="2.0" stroke-linecap="butt" d="m340.42578 359.32657l9.140045 3.122406l-4.9946594 -8.267029z" fill-rule="evenodd"/><path fill="#000000" fill-opacity="0.0" d="m737.0079 271.1181l115.62207 93.165375" fill-rule="evenodd"/><path stroke="#002776" stroke-width="2.0" stroke-linejoin="round" stroke-linecap="butt" d="m737.0079 271.1181l106.277954 85.63617" fill-rule="evenodd"/><path fill="#002776" stroke="#002776" stroke-width="2.0" stroke-linecap="butt" d="m841.2132 359.32657l9.140076 3.122406l-4.99469 -8.267029z" fill-rule="evenodd"/><path fill="#000000" fill-opacity="0.0" d="m737.0079 271.1181l-115.62207 93.165375" fill-rule="evenodd"/><path stroke="#002776" stroke-width="2.0" stroke-linejoin="round" stroke-linecap="butt" d="m737.0079 271.1181l-106.278015 85.63617" fill-rule="evenodd"/><path fill="#002776" stroke="#002776" stroke-width="2.0" stroke-linecap="butt" d="m628.65717 354.18195l-4.994629 8.267029l9.140015 -3.122406z" fill-rule="evenodd"/><path fill="#000000" fill-opacity="0.0" d="m480.0 115.10761l-243.77953 73.85827" fill-rule="evenodd"/><path stroke="#002776" stroke-width="2.0" stroke-linejoin="round" stroke-linecap="butt" d="m480.0 115.10761l-232.29504 70.37879" fill-rule="evenodd"/><path fill="#002776" stroke="#002776" stroke-width="2.0" stroke-linecap="butt" d="m246.74709 182.32486l-7.728409 5.7932434l9.6441345 0.5298462z" fill-rule="evenodd"/><path fill="#000000" fill-opacity="0.0" d="m480.0 115.10761l257.00787 73.85827" fill-rule="evenodd"/><path stroke="#002776" stroke-width="2.0" stroke-linejoin="round" stroke-linecap="butt" d="m480.0 115.10761l245.47467 70.54388" fill-rule="evenodd"/><path fill="#002776" stroke="#002776" stroke-width="2.0" stroke-linecap="butt" d="m724.56226 188.82646l9.635559 -0.6681366l-7.81073 -5.681793z" fill-rule="evenodd"/></g></svg>