<svg version="1.1" viewBox="0.0 0.0 960.0 540.0" fill="none" stroke="none" stroke-linecap="square" stroke-miterlimit="10" xmlns:xlink="http://www.w3.org/1999/xlink" xmlns="http://www.w3.org/2000/svg"><clipPath id="g41cddbd8e1_0_125.0"><path d="m0 0l960.0 0l0 540.0l-960.0 0l0 -540.0z" clip-rule="nonzero"/></clipPath><g clip-path="url(#g41cddbd8e1_0_125.0)"><path fill="#ffffff" d="m0 0l960.0 0l0 540.0l-960.0 0z" fill-rule="evenodd"/><path fill="#000000" fill-opacity="0.0" d="m108.69554 94.43569l194.77165 0l0 374.77164l-194.77165 0z" fill-rule="evenodd"/><path stroke="#002776" stroke-width="2.0" stroke-linejoin="round" stroke-linecap="butt" stroke-dasharray="8.0,6.0" d="m108.69554 94.43569l194.77165 0l0 374.77164l-194.77165 0z" fill-rule="evenodd"/><path fill="#000000" fill-opacity="0.0" d="m126.08662 112.69554l160.0 0l0 339.1181l-160.0 0z" fill-rule="evenodd"/><path stroke="#002776" stroke-width="2.0" stroke-linejoin="round" stroke-linecap="butt" d="m126.08662 112.69554l160.0 0l0 339.1181l-160.0 0z" fill-rule="evenodd"/><path fill="#000000" fill-opacity="0.0" d="m108.698166 472.11285l194.77165 0l0 33.039368l-194.77165 0z" fill-rule="evenodd"/><path fill="#008ed2" d="m205.3495 485.59943q0 0.265625 -0.03125 0.453125q-0.015625 0.1875 -0.0625 0.3125q-0.03125 0.109375 -0.09375 0.15625q-0.046875 0.046875 -0.140625 0.046875q-0.109375 0 -0.375 -0.15625q-0.265625 -0.171875 -0.703125 -0.359375q-0.4375 -0.203125 -1.046875 -0.359375q-0.609375 -0.171875 -1.40625 -0.171875q-0.859375 0 -1.546875 0.296875q-0.6875 0.296875 -1.1875 0.84375q-0.484375 0.53125 -0.75 1.296875q-0.265625 0.765625 -0.265625 1.6875q0 1.0 0.265625 1.78125q0.265625 0.765625 0.75 1.28125q0.484375 0.515625 1.15625 0.78125q0.6875 0.265625 1.515625 0.265625q0.390625 0 0.78125 -0.09375q0.390625 -0.09375 0.734375 -0.265625l0 -2.734375l-2.234375 0q-0.15625 0 -0.25 -0.203125q-0.09375 -0.203125 -0.09375 -0.703125q0 -0.25 0.015625 -0.421875q0.03125 -0.171875 0.078125 -0.28125q0.046875 -0.109375 0.109375 -0.15625q0.0625 -0.046875 0.140625 -0.046875l3.984375 0q0.140625 0 0.25 0.046875q0.125 0.046875 0.203125 0.15625q0.09375 0.09375 0.140625 0.234375q0.046875 0.140625 0.046875 0.328125l0 4.6875q0 0.28125 -0.109375 0.484375q-0.09375 0.203125 -0.390625 0.328125q-0.296875 0.109375 -0.734375 0.234375q-0.421875 0.125 -0.90625 0.21875q-0.46875 0.09375 -0.953125 0.140625q-0.46875 0.046875 -0.953125 0.046875q-1.40625 0 -2.53125 -0.40625q-1.109375 -0.40625 -1.890625 -1.171875q-0.765625 -0.78125 -1.171875 -1.875q-0.40625 -1.109375 -0.40625 -2.515625q0 -1.453125 0.4375 -2.59375q0.4375 -1.15625 1.234375 -1.953125q0.796875 -0.8125 1.921875 -1.234375q1.140625 -0.4375 2.546875 -0.4375q0.75 0 1.375 0.109375q0.640625 0.09375 1.109375 0.25q0.46875 0.140625 0.78125 0.328125q0.3125 0.171875 0.421875 0.296875q0.125 0.125 0.171875 0.359375q0.0625 0.234375 0.0625 0.6875zm4.5910187 9.640625q0 0.09375 -0.0625 0.171875q-0.046875 0.0625 -0.1875 0.109375q-0.125 0.046875 -0.34375 0.0625q-0.21875 0.015625 -0.546875 0.015625q-0.34375 0 -0.5625 -0.015625q-0.21875 -0.015625 -0.359375 -0.0625q-0.125 -0.046875 -0.1875 -0.109375q-0.046875 -0.078125 -0.046875 -0.171875l0 -8.109375q0 -0.09375 0.046875 -0.15625q0.0625 -0.0625 0.1875 -0.109375q0.140625 -0.0625 0.359375 -0.078125q0.21875 -0.03125 0.5625 -0.03125q0.328125 0 0.546875 0.03125q0.21875 0.015625 0.34375 0.078125q0.140625 0.046875 0.1875 0.109375q0.0625 0.0625 0.0625 0.15625l0 8.109375zm0.171875 -10.875q0 0.6875 -0.28125 0.953125q-0.28125 0.265625 -1.046875 0.265625q-0.765625 0 -1.046875 -0.25q-0.265625 -0.25 -0.265625 -0.921875q0 -0.6875 0.28125 -0.953125q0.28125 -0.28125 1.0625 -0.28125q0.75 0 1.015625 0.265625q0.28125 0.265625 0.28125 0.921875zm6.925827 10.078125q0 0.40625 -0.046875 0.625q-0.046875 0.203125 -0.140625 0.296875q-0.078125 0.078125 -0.234375 0.15625q-0.15625 0.0625 -0.375 0.109375q-0.203125 0.046875 -0.453125 0.078125q-0.25 0.03125 -0.515625 0.03125q-0.6875 0 -1.1875 -0.171875q-0.5 -0.171875 -0.828125 -0.53125q-0.328125 -0.375 -0.484375 -0.921875q-0.140625 -0.546875 -0.140625 -1.28125l0 -4.171875l-0.984375 0q-0.171875 0 -0.265625 -0.203125q-0.09375 -0.21875 -0.09375 -0.71875q0 -0.265625 0.015625 -0.4375q0.03125 -0.1875 0.078125 -0.296875q0.046875 -0.109375 0.109375 -0.15625q0.078125 -0.046875 0.171875 -0.046875l0.96875 0l0 -1.8125q0 -0.09375 0.046875 -0.15625q0.046875 -0.078125 0.171875 -0.125q0.140625 -0.046875 0.359375 -0.0625q0.21875 -0.03125 0.546875 -0.03125q0.34375 0 0.5625 0.03125q0.234375 0.015625 0.359375 0.0625q0.125 0.046875 0.171875 0.125q0.0625 0.0625 0.0625 0.15625l0 1.8125l1.765625 0q0.09375 0 0.15625 0.046875q0.078125 0.046875 0.109375 0.15625q0.046875 0.109375 0.0625 0.296875q0.03125 0.171875 0.03125 0.4375q0 0.5 -0.09375 0.71875q-0.078125 0.203125 -0.25 0.203125l-1.78125 0l0 3.828125q0 0.65625 0.203125 1.0q0.21875 0.328125 0.75 0.328125q0.1875 0 0.328125 -0.03125q0.140625 -0.03125 0.25 -0.078125q0.125 -0.046875 0.203125 -0.078125q0.078125 -0.03125 0.140625 -0.03125q0.046875 0 0.09375 0.03125q0.0625 0.03125 0.078125 0.140625q0.03125 0.09375 0.046875 0.265625q0.03125 0.15625 0.03125 0.40625z" fill-rule="nonzero"/><path fill="#000000" fill-opacity="0.0" d="m108.698166 46.95538l194.74016 0l0 41.511814l-194.74016 0z" fill-rule="evenodd"/><path fill="#008ed2" d="m146.13855 79.43129l0 -22.906254l6.921875 0l4.15625 15.625004l4.109375 -15.625004l6.9375 0l0 22.906254l-4.296875 0l0 -18.031254l-4.546875 18.031254l-4.453125 0l-4.53125 -18.031254l0 18.031254l-4.296875 0zm25.671875 -8.53125q0 -2.1875 1.078125 -4.234375q1.078125 -2.046875 3.046875 -3.1250038q1.984375 -1.078125 4.421875 -1.078125q3.765625 0 6.171875 2.4531288q2.40625 2.4375 2.40625 6.171875q0 3.765625 -2.4375 6.25q-2.421875 2.46875 -6.109375 2.46875q-2.28125 0 -4.359375 -1.03125q-2.0625 -1.03125 -3.140625 -3.015625q-1.078125 -2.0 -1.078125 -4.859375zm4.5 0.234375q0 2.46875 1.171875 3.78125q1.171875 1.3125 2.890625 1.3125q1.71875 0 2.875 -1.3125q1.171875 -1.3125 1.171875 -3.8125q0 -2.4375 -1.171875 -3.75q-1.15625 -1.3125 -2.875 -1.3125q-1.71875 0 -2.890625 1.3125q-1.171875 1.3125 -1.171875 3.78125zm31.15625 8.296875l-4.390625 0l0 -8.46875q0 -2.6875 -0.28125 -3.46875q-0.28125 -0.796875 -0.921875 -1.234375q-0.625 -0.4375 -1.515625 -0.4375q-1.140625 0 -2.046875 0.625q-0.90625 0.625 -1.25 1.65625q-0.328125 1.03125 -0.328125 3.8125l0 7.515625l-4.390625 0l0 -16.593754l4.078125 0l0 2.4375038q2.171875 -2.8125038 5.46875 -2.8125038q1.453125 0 2.65625 0.53125q1.203125 0.515625 1.8125 1.3281288q0.625 0.8125 0.859375 1.84375q0.25 1.03125 0.25 2.953125l0 10.3125zm3.4375 -8.53125q0 -2.1875 1.078125 -4.234375q1.078125 -2.046875 3.046875 -3.1250038q1.984375 -1.078125 4.421875 -1.078125q3.765625 0 6.171875 2.4531288q2.40625 2.4375 2.40625 6.171875q0 3.765625 -2.4375 6.25q-2.421875 2.46875 -6.109375 2.46875q-2.28125 0 -4.359375 -1.03125q-2.0625 -1.03125 -3.140625 -3.015625q-1.078125 -2.0 -1.078125 -4.859375zm4.5 0.234375q0 2.46875 1.171875 3.78125q1.171875 1.3125 2.890625 1.3125q1.71875 0 2.875 -1.3125q1.171875 -1.3125 1.171875 -3.8125q0 -2.4375 -1.171875 -3.75q-1.15625 -1.3125 -2.875 -1.3125q-1.71875 0 -2.890625 1.3125q-1.171875 1.3125 -1.171875 3.78125zm16.0625 8.296875l0 -22.906254l4.390625 0l0 22.906254l-4.390625 0zm8.89064 -18.843754l0 -4.0625l4.390625 0l0 4.0625l-4.390625 0zm0 18.843754l0 -16.593754l4.390625 0l0 16.593754l-4.390625 0zm16.499985 -16.593754l0 3.5000038l-2.9999847 0l0 6.6875q0 2.03125 0.078125 2.375q0.09375 0.328125 0.390625 0.546875q0.3125 0.21875 0.75 0.21875q0.609375 0 1.7656097 -0.421875l0.375 3.40625q-1.5312347 0.65625 -3.4687347 0.65625q-1.1875 0 -2.140625 -0.390625q-0.953125 -0.40625 -1.40625 -1.03125q-0.4375 -0.640625 -0.609375 -1.71875q-0.140625 -0.765625 -0.140625 -3.09375l0 -7.234375l-2.015625 0l0 -3.5000038l2.015625 0l0 -3.296875l4.40625 -2.5625l0 5.859375l2.9999847 0zm10.65625 0l0 3.5000038l-3.0 0l0 6.6875q0 2.03125 0.078125 2.375q0.09375 0.328125 0.390625 0.546875q0.3125 0.21875 0.75 0.21875q0.609375 0 1.765625 -0.421875l0.375 3.40625q-1.53125 0.65625 -3.46875 0.65625q-1.1875 0 -2.140625 -0.390625q-0.953125 -0.40625 -1.40625 -1.03125q-0.4375 -0.640625 -0.609375 -1.71875q-0.140625 -0.765625 -0.140625 -3.09375l0 -7.234375l-2.015625 0l0 -3.5000038l2.015625 0l0 -3.296875l4.40625 -2.5625l0 5.859375l3.0 0z" fill-rule="nonzero"/></g></svg>